AnekOdia-ExpandedMedium.ufo
<glyph name="M" format="2">
  <advance width="1979"/>
  <unicode hex="004D"/>
  <anchor x="990" y="0" name="bottom"/>
  <anchor x="990" y="1278" name="top"/>
  <outline>
    <contour>
      <point x="150" y="0" type="line"/>
      <point x="371" y="0" type="line"/>
      <point x="404" y="555" type="line"/>
      <point x="431" y="1054" type="line"/>
      <point x="457" y="1054" type="line"/>
      <point x="874" y="157" type="line"/>
      <point x="1106" y="157" type="line"/>
      <point x="1521" y="1054" type="line"/>
      <point x="1546" y="1054" type="line"/>
      <point x="1574" y="554" type="line"/>
      <point x="1608" y="0" type="line"/>
      <point x="1829" y="0" type="line"/>
      <point x="1741" y="1278" type="line"/>
      <point x="1416" y="1278" type="line"/>
      <point x="997" y="369" type="line"/>
      <point x="981" y="369" type="line"/>
      <point x="564" y="1278" type="line"/>
      <point x="238" y="1278" type="line"/>
    </contour>
  </outline>
</glyph>
<glyph name="bracketleft" format="2">
  <advance width="780"/>
  <unicode hex="005B"/>
  <outline>
    <contour>
      <point x="185" y="-248" type="line"/>
      <point x="702" y="-248" type="line"/>
      <point x="702" y="-80" type="line"/>
      <point x="391" y="-80" type="line"/>
      <point x="391" y="1181" type="line"/>
      <point x="702" y="1181" type="line"/>
      <point x="702" y="1348" type="line"/>
      <point x="185" y="1348" type="line"/>
    </contour>
  </outline>
</glyph>
<glyph name="Candrabindu.or" format="2">
  <unicode hex="0B01"/>
  <anchor x="-428" y="1427" name="_top2"/>
  <outline>
    <contour>
      <point x="-426" y="1704" type="curve" smooth="yes"/>
      <point x="-513" y="1704"/>
      <point x="-551" y="1754"/>
      <point x="-551" y="1821" type="curve" smooth="yes"/>
      <point x="-551" y="1827" type="line" smooth="yes"/>
      <point x="-551" y="1893"/>
      <point x="-513" y="1942"/>
      <point x="-426" y="1942" type="curve" smooth="yes"/>
      <point x="-338" y="1942"/>
      <point x="-300" y="1893"/>
      <point x="-300" y="1827" type="curve" smooth="yes"/>
      <point x="-300" y="1821" type="line" smooth="yes"/>
      <point x="-300" y="1754"/>
      <point x="-338" y="1704"/>
    </contour>
    <contour>
      <point x="-167" y="1798" type="line"/>
      <point x="14" y="1797" type="line"/>
      <point x="15" y="1777"/>
      <point x="15" y="1766"/>
      <point x="15" y="1758" type="curve" smooth="yes"/>
      <point x="15" y="1547"/>
      <point x="-132" y="1429"/>
      <point x="-427" y="1429" type="curve" smooth="yes"/>
      <point x="-716" y="1429"/>
      <point x="-867" y="1547"/>
      <point x="-867" y="1757" type="curve" smooth="yes"/>
      <point x="-867" y="1765"/>
      <point x="-867" y="1777"/>
      <point x="-865" y="1797" type="curve"/>
      <point x="-685" y="1797" type="line"/>
      <point x="-685" y="1777" type="line" smooth="yes"/>
      <point x="-685" y="1645"/>
      <point x="-605" y="1579"/>
      <point x="-427" y="1579" type="curve" smooth="yes"/>
      <point x="-250" y="1579"/>
      <point x="-167" y="1647"/>
      <point x="-167" y="1777" type="curve" smooth="yes"/>
    </contour>
  </outline>
</glyph>
<glyph name="Anusvara.or" format="2">
  <advance width="806"/>
  <unicode hex="0B02"/>
  <outline>
    <contour>
      <point x="403" y="714" type="curve" smooth="yes"/>
      <point x="655" y="714"/>
      <point x="788" y="817"/>
      <point x="788" y="1011" type="curve" smooth="yes"/>
      <point x="788" y="1025" type="line" smooth="yes"/>
      <point x="788" y="1220"/>
      <point x="655" y="1324"/>
      <point x="403" y="1324" type="curve" smooth="yes"/>
      <point x="152" y="1324"/>
      <point x="19" y="1220"/>
      <point x="19" y="1025" type="curve" smooth="yes"/>
      <point x="19" y="1011" type="line" smooth="yes"/>
      <point x="19" y="817"/>
      <point x="152" y="714"/>
    </contour>
    <contour>
      <point x="403" y="862" type="curve" smooth="yes"/>
      <point x="272" y="862"/>
      <point x="202" y="915"/>
      <point x="202" y="1013" type="curve" smooth="yes"/>
      <point x="202" y="1025" type="line" smooth="yes"/>
      <point x="202" y="1125"/>
      <point x="272" y="1176"/>
      <point x="403" y="1176" type="curve" smooth="yes"/>
      <point x="535" y="1176"/>
      <point x="605" y="1125"/>
      <point x="605" y="1025" type="curve" smooth="yes"/>
      <point x="605" y="1013" type="line" smooth="yes"/>
      <point x="605" y="915"/>
      <point x="535" y="862"/>
    </contour>
  </outline>
</glyph>
<glyph name="Visarga.or" format="2">
  <advance width="1175"/>
  <unicode hex="0B03"/>
  <outline>
    <contour>
      <point x="585" y="-14" type="curve" smooth="yes"/>
      <point x="897" y="-14"/>
      <point x="1067" y="97"/>
      <point x="1067" y="309" type="curve" smooth="yes"/>
      <point x="1067" y="324" type="line" smooth="yes"/>
      <point x="1067" y="507"/>
      <point x="927" y="599"/>
      <point x="724" y="691" type="curve"/>
      <point x="622" y="742" type="line"/>
      <point x="428" y="812"/>
      <point x="316" y="880"/>
      <point x="316" y="990" type="curve" smooth="yes"/>
      <point x="316" y="1002" type="line" smooth="yes"/>
      <point x="316" y="1119"/>
      <point x="414" y="1181"/>
      <point x="583" y="1181" type="curve" smooth="yes"/>
      <point x="755" y="1181"/>
      <point x="851" y="1115"/>
      <point x="851" y="996" type="curve" smooth="yes"/>
      <point x="851" y="984" type="line" smooth="yes"/>
      <point x="851" y="882"/>
      <point x="723" y="787"/>
      <point x="547" y="725" type="curve"/>
      <point x="445" y="688" type="line"/>
      <point x="226" y="600"/>
      <point x="108" y="496"/>
      <point x="108" y="324" type="curve" smooth="yes"/>
      <point x="108" y="309" type="line" smooth="yes"/>
      <point x="108" y="97"/>
      <point x="278" y="-14"/>
    </contour>
    <contour>
      <point x="589" y="151" type="curve" smooth="yes"/>
      <point x="415" y="151"/>
      <point x="317" y="215"/>
      <point x="317" y="327" type="curve" smooth="yes"/>
      <point x="317" y="339" type="line" smooth="yes"/>
      <point x="317" y="445"/>
      <point x="417" y="503"/>
      <point x="607" y="579" type="curve"/>
      <point x="723" y="641" type="line"/>
      <point x="910" y="725"/>
      <point x="1061" y="821"/>
      <point x="1061" y="1002" type="curve" smooth="yes"/>
      <point x="1061" y="1017" type="line" smooth="yes"/>
      <point x="1061" y="1232"/>
      <point x="893" y="1346"/>
      <point x="588" y="1346" type="curve" smooth="yes"/>
      <point x="280" y="1346"/>
      <point x="110" y="1232"/>
      <point x="110" y="1017" type="curve" smooth="yes"/>
      <point x="110" y="1002" type="line" smooth="yes"/>
      <point x="110" y="826"/>
      <point x="233" y="717"/>
      <point x="450" y="638" type="curve"/>
      <point x="551" y="579" type="line"/>
      <point x="713" y="522"/>
      <point x="859" y="447"/>
      <point x="859" y="341" type="curve" smooth="yes"/>
      <point x="859" y="329" type="line" smooth="yes"/>
      <point x="859" y="210"/>
      <point x="764" y="151"/>
    </contour>
  </outline>
</glyph>
<glyph name="VowelA.or" format="2">
  <advance width="2072"/>
  <unicode hex="0B05"/>
  <anchor x="1766" y="1427" name="top2"/>
  <outline>
    <contour>
      <point x="1686" y="0" type="line"/>
      <point x="1886" y="0" type="line"/>
      <point x="1886" y="1321" type="line"/>
      <point x="1686" y="1321" type="line"/>
      <point x="1686" y="363" type="line"/>
      <point x="1693" y="332" type="line"/>
    </contour>
    <contour>
      <point x="853" y="-26" type="curve" smooth="yes"/>
      <point x="1338" y="-26"/>
      <point x="1578" y="109"/>
      <point x="1684" y="277" type="curve"/>
      <point x="1796" y="277" type="line"/>
      <point x="1700" y="466" type="line"/>
      <point x="1579" y="276"/>
      <point x="1315" y="156"/>
      <point x="872" y="156" type="curve" smooth="yes"/>
      <point x="519" y="156"/>
      <point x="353" y="212"/>
      <point x="353" y="357" type="curve" smooth="yes"/>
      <point x="353" y="366" type="line" smooth="yes"/>
      <point x="353" y="478"/>
      <point x="427" y="518"/>
      <point x="635" y="547" type="curve" smooth="yes"/>
      <point x="920" y="587" type="line" smooth="yes"/>
      <point x="1300" y="640"/>
      <point x="1424" y="768"/>
      <point x="1424" y="1003" type="curve" smooth="yes"/>
      <point x="1424" y="1017" type="line" smooth="yes"/>
      <point x="1424" y="1232"/>
      <point x="1304" y="1342"/>
      <point x="1094" y="1342" type="curve" smooth="yes"/>
      <point x="910" y="1342"/>
      <point x="817" y="1267"/>
      <point x="786" y="1156" type="curve"/>
      <point x="778" y="1156" type="line"/>
      <point x="746" y="1268"/>
      <point x="659" y="1342"/>
      <point x="482" y="1342" type="curve" smooth="yes"/>
      <point x="266" y="1342"/>
      <point x="146" y="1227"/>
      <point x="146" y="1025" type="curve" smooth="yes"/>
      <point x="146" y="1010" type="line" smooth="yes"/>
      <point x="146" y="940"/>
      <point x="163" y="872"/>
      <point x="194" y="815" type="curve"/>
      <point x="400" y="804" type="line"/>
      <point x="370" y="870"/>
      <point x="352" y="934"/>
      <point x="352" y="1000" type="curve" smooth="yes"/>
      <point x="352" y="1013" type="line" smooth="yes"/>
      <point x="352" y="1118"/>
      <point x="408" y="1179"/>
      <point x="515" y="1179" type="curve" smooth="yes"/>
      <point x="621" y="1179"/>
      <point x="679" y="1113"/>
      <point x="680" y="1000" type="curve" smooth="yes"/>
      <point x="681" y="886" type="line"/>
      <point x="881" y="886" type="line"/>
      <point x="882" y="1000" type="line" smooth="yes"/>
      <point x="883" y="1113"/>
      <point x="942" y="1179"/>
      <point x="1053" y="1179" type="curve" smooth="yes"/>
      <point x="1163" y="1179"/>
      <point x="1218" y="1118"/>
      <point x="1218" y="1015" type="curve" smooth="yes"/>
      <point x="1218" y="1004" type="line" smooth="yes"/>
      <point x="1218" y="853"/>
      <point x="1147" y="780"/>
      <point x="879" y="744" type="curve" smooth="yes"/>
      <point x="588" y="705" type="line" smooth="yes"/>
      <point x="262" y="661"/>
      <point x="132" y="569"/>
      <point x="132" y="364" type="curve" smooth="yes"/>
      <point x="132" y="353" type="line" smooth="yes"/>
      <point x="132" y="89"/>
      <point x="369" y="-26"/>
    </contour>
  </outline>
</glyph>
<glyph name="VowelI.or" format="2">
  <advance width="2254"/>
  <unicode hex="0B07"/>
  <anchor x="1699" y="1453" name="top2"/>
  <outline>
    <contour>
      <point x="2307" y="-206" type="line"/>
      <point x="2307" y="-6" type="line"/>
      <point x="1913" y="122" type="line"/>
      <point x="1957" y="63" type="line"/>
      <point x="2044" y="171"/>
      <point x="2118" y="330"/>
      <point x="2118" y="536" type="curve" smooth="yes"/>
      <point x="2118" y="557" type="line" smooth="yes"/>
      <point x="2118" y="1076"/>
      <point x="1729" y="1365"/>
      <point x="1052" y="1365" type="curve" smooth="yes"/>
      <point x="437" y="1365"/>
      <point x="108" y="1159"/>
      <point x="108" y="782" type="curve" smooth="yes"/>
      <point x="108" y="760" type="line" smooth="yes"/>
      <point x="108" y="536"/>
      <point x="221" y="402"/>
      <point x="416" y="336" type="curve"/>
      <point x="473" y="514" type="line"/>
      <point x="373" y="558"/>
      <point x="321" y="634"/>
      <point x="321" y="762" type="curve" smooth="yes"/>
      <point x="321" y="778" type="line" smooth="yes"/>
      <point x="321" y="1041"/>
      <point x="564" y="1185"/>
      <point x="1052" y="1185" type="curve" smooth="yes"/>
      <point x="1614" y="1185"/>
      <point x="1906" y="962"/>
      <point x="1906" y="516" type="curve" smooth="yes"/>
      <point x="1906" y="501" type="line" smooth="yes"/>
      <point x="1906" y="316"/>
      <point x="1847" y="152"/>
      <point x="1760" y="24" type="curve"/>
    </contour>
    <contour>
      <point x="712" y="135" type="curve" smooth="yes"/>
      <point x="601" y="135"/>
      <point x="540" y="206"/>
      <point x="540" y="341" type="curve" smooth="yes"/>
      <point x="540" y="358" type="line" smooth="yes"/>
      <point x="540" y="494"/>
      <point x="601" y="563"/>
      <point x="712" y="563" type="curve" smooth="yes"/>
      <point x="820" y="563"/>
      <point x="885" y="492"/>
      <point x="885" y="354" type="curve" smooth="yes"/>
      <point x="885" y="344" type="line" smooth="yes"/>
      <point x="885" y="207"/>
      <point x="820" y="135"/>
    </contour>
    <contour>
      <point x="675" y="-29" type="curve" smooth="yes"/>
      <point x="856" y="-29"/>
      <point x="946" y="44"/>
      <point x="984" y="157" type="curve"/>
      <point x="992" y="157" type="line"/>
      <point x="1030" y="44"/>
      <point x="1120" y="-29"/>
      <point x="1301" y="-29" type="curve" smooth="yes"/>
      <point x="1522" y="-29"/>
      <point x="1642" y="100"/>
      <point x="1642" y="339" type="curve" smooth="yes"/>
      <point x="1642" y="359" type="line" smooth="yes"/>
      <point x="1642" y="598"/>
      <point x="1522" y="727"/>
      <point x="1301" y="727" type="curve" smooth="yes"/>
      <point x="1120" y="727"/>
      <point x="1030" y="654"/>
      <point x="992" y="541" type="curve"/>
      <point x="984" y="541" type="line"/>
      <point x="946" y="654"/>
      <point x="856" y="727"/>
      <point x="683" y="727" type="curve" smooth="yes"/>
      <point x="510" y="727"/>
      <point x="407" y="642"/>
      <point x="362" y="506" type="curve"/>
      <point x="346" y="472" type="line"/>
      <point x="337" y="432"/>
      <point x="334" y="395"/>
      <point x="334" y="345" type="curve" smooth="yes"/>
      <point x="334" y="339" type="line" smooth="yes"/>
      <point x="334" y="100"/>
      <point x="453" y="-29"/>
    </contour>
    <contour>
      <point x="1264" y="135" type="curve" smooth="yes"/>
      <point x="1156" y="135"/>
      <point x="1091" y="208"/>
      <point x="1091" y="344" type="curve" smooth="yes"/>
      <point x="1091" y="354" type="line" smooth="yes"/>
      <point x="1091" y="492"/>
      <point x="1155" y="563"/>
      <point x="1263" y="563" type="curve" smooth="yes"/>
      <point x="1376" y="563"/>
      <point x="1436" y="494"/>
      <point x="1436" y="358" type="curve" smooth="yes"/>
      <point x="1436" y="341" type="line" smooth="yes"/>
      <point x="1436" y="205"/>
      <point x="1376" y="135"/>
    </contour>
  </outline>
</glyph>
<glyph name="VowelIi.or" format="2">
  <advance width="2230"/>
  <unicode hex="0B08"/>
  <anchor x="1733" y="1427" name="top2"/>
  <outline>
    <contour>
      <point x="2285" y="-206" type="line"/>
      <point x="2285" y="-6" type="line"/>
      <point x="1891" y="122" type="line"/>
      <point x="1935" y="63" type="line"/>
      <point x="2022" y="171"/>
      <point x="2096" y="330"/>
      <point x="2096" y="538" type="curve" smooth="yes"/>
      <point x="2096" y="564" type="line" smooth="yes"/>
      <point x="2096" y="1075"/>
      <point x="1755" y="1365"/>
      <point x="1132" y="1365" type="curve" smooth="yes"/>
      <point x="709" y="1365"/>
      <point x="486" y="1186"/>
      <point x="422" y="989" type="curve"/>
      <point x="416" y="970"/>
      <point x="416" y="932"/>
      <point x="422" y="914" type="curve"/>
      <point x="650" y="920" type="line"/>
      <point x="650" y="933"/>
      <point x="650" y="946"/>
      <point x="651" y="960" type="curve"/>
      <point x="691" y="1099"/>
      <point x="833" y="1185"/>
      <point x="1130" y="1185" type="curve" smooth="yes"/>
      <point x="1628" y="1185"/>
      <point x="1884" y="962"/>
      <point x="1884" y="530" type="curve" smooth="yes"/>
      <point x="1884" y="503" type="line" smooth="yes"/>
      <point x="1884" y="317"/>
      <point x="1825" y="152"/>
      <point x="1738" y="24" type="curve"/>
    </contour>
    <contour>
      <point x="690" y="135" type="curve" smooth="yes"/>
      <point x="579" y="135"/>
      <point x="518" y="206"/>
      <point x="518" y="341" type="curve" smooth="yes"/>
      <point x="518" y="358" type="line" smooth="yes"/>
      <point x="518" y="494"/>
      <point x="579" y="563"/>
      <point x="690" y="563" type="curve" smooth="yes"/>
      <point x="798" y="563"/>
      <point x="863" y="492"/>
      <point x="863" y="354" type="curve" smooth="yes"/>
      <point x="863" y="344" type="line" smooth="yes"/>
      <point x="863" y="207"/>
      <point x="798" y="135"/>
    </contour>
    <contour>
      <point x="653" y="-29" type="curve" smooth="yes"/>
      <point x="834" y="-29"/>
      <point x="924" y="44"/>
      <point x="962" y="157" type="curve"/>
      <point x="970" y="157" type="line"/>
      <point x="1008" y="44"/>
      <point x="1098" y="-29"/>
      <point x="1279" y="-29" type="curve" smooth="yes"/>
      <point x="1500" y="-29"/>
      <point x="1620" y="100"/>
      <point x="1620" y="339" type="curve" smooth="yes"/>
      <point x="1620" y="359" type="line" smooth="yes"/>
      <point x="1620" y="598"/>
      <point x="1500" y="727"/>
      <point x="1279" y="727" type="curve" smooth="yes"/>
      <point x="1098" y="727"/>
      <point x="1008" y="654"/>
      <point x="970" y="541" type="curve"/>
      <point x="962" y="541" type="line"/>
      <point x="924" y="654"/>
      <point x="835" y="727"/>
      <point x="663" y="727" type="curve" smooth="yes"/>
      <point x="488" y="727"/>
      <point x="384" y="640"/>
      <point x="340" y="500" type="curve"/>
      <point x="324" y="472" type="line"/>
      <point x="315" y="432"/>
      <point x="312" y="395"/>
      <point x="312" y="345" type="curve" smooth="yes"/>
      <point x="312" y="339" type="line" smooth="yes"/>
      <point x="312" y="100"/>
      <point x="431" y="-29"/>
    </contour>
    <contour>
      <point x="346" y="340" type="curve"/>
      <point x="435" y="494" type="line"/>
      <point x="340" y="515"/>
      <point x="287" y="575"/>
      <point x="287" y="662" type="curve" smooth="yes"/>
      <point x="287" y="671" type="line" smooth="yes"/>
      <point x="287" y="811"/>
      <point x="391" y="881"/>
      <point x="595" y="881" type="curve" smooth="yes"/>
      <point x="606" y="881" type="line" smooth="yes"/>
      <point x="747" y="881"/>
      <point x="873" y="849"/>
      <point x="966" y="812" type="curve"/>
      <point x="951" y="977" type="line"/>
      <point x="879" y="1008"/>
      <point x="786" y="1031"/>
      <point x="658" y="1046" type="curve"/>
      <point x="530" y="1051" type="line"/>
      <point x="251" y="1037"/>
      <point x="80" y="901"/>
      <point x="80" y="668" type="curve" smooth="yes"/>
      <point x="80" y="657" type="line" smooth="yes"/>
      <point x="80" y="485"/>
      <point x="185" y="384"/>
    </contour>
    <contour>
      <point x="1242" y="135" type="curve" smooth="yes"/>
      <point x="1134" y="135"/>
      <point x="1069" y="208"/>
      <point x="1069" y="344" type="curve" smooth="yes"/>
      <point x="1069" y="354" type="line" smooth="yes"/>
      <point x="1069" y="492"/>
      <point x="1133" y="563"/>
      <point x="1241" y="563" type="curve" smooth="yes"/>
      <point x="1354" y="563"/>
      <point x="1414" y="494"/>
      <point x="1414" y="358" type="curve" smooth="yes"/>
      <point x="1414" y="341" type="line" smooth="yes"/>
      <point x="1414" y="205"/>
      <point x="1354" y="135"/>
    </contour>
  </outline>
</glyph>
<glyph name="VowelU.or" format="2">
  <advance width="2199"/>
  <unicode hex="0B09"/>
  <anchor x="1680" y="1427" name="top2"/>
  <outline>
    <contour>
      <point x="2238" y="-206" type="line"/>
      <point x="2238" y="-6" type="line"/>
      <point x="1843" y="122" type="line"/>
      <point x="1888" y="72" type="line"/>
      <point x="1996" y="184"/>
      <point x="2064" y="356"/>
      <point x="2064" y="565" type="curve" smooth="yes"/>
      <point x="2064" y="588" type="line" smooth="yes"/>
      <point x="2064" y="1085"/>
      <point x="1687" y="1365"/>
      <point x="1027" y="1365" type="curve" smooth="yes"/>
      <point x="429" y="1365"/>
      <point x="108" y="1155"/>
      <point x="108" y="786" type="curve" smooth="yes"/>
      <point x="108" y="765" type="line" smooth="yes"/>
      <point x="108" y="531"/>
      <point x="238" y="375"/>
      <point x="485" y="314" type="curve"/>
      <point x="536" y="484" type="line"/>
      <point x="399" y="523"/>
      <point x="321" y="621"/>
      <point x="321" y="766" type="curve" smooth="yes"/>
      <point x="321" y="782" type="line" smooth="yes"/>
      <point x="321" y="1039"/>
      <point x="556" y="1185"/>
      <point x="1027" y="1185" type="curve" smooth="yes"/>
      <point x="1561" y="1185"/>
      <point x="1852" y="975"/>
      <point x="1852" y="556" type="curve" smooth="yes"/>
      <point x="1852" y="531" type="line" smooth="yes"/>
      <point x="1852" y="332"/>
      <point x="1778" y="159"/>
      <point x="1678" y="26" type="curve"/>
    </contour>
    <contour>
      <point x="979" y="-26" type="curve" smooth="yes"/>
      <point x="1312" y="-26"/>
      <point x="1506" y="106"/>
      <point x="1506" y="300" type="curve" smooth="yes"/>
      <point x="1506" y="308" type="line" smooth="yes"/>
      <point x="1506" y="422"/>
      <point x="1456" y="488"/>
      <point x="1354" y="520" type="curve"/>
      <point x="1354" y="588" type="line"/>
      <point x="1209" y="493" type="line"/>
      <point x="1268" y="466"/>
      <point x="1300" y="414"/>
      <point x="1300" y="344" type="curve" smooth="yes"/>
      <point x="1300" y="335" type="line" smooth="yes"/>
      <point x="1300" y="218"/>
      <point x="1186" y="142"/>
      <point x="981" y="142" type="curve" smooth="yes"/>
      <point x="762" y="142"/>
      <point x="647" y="236"/>
      <point x="647" y="375" type="curve"/>
      <point x="647" y="385" type="line"/>
      <point x="647" y="491"/>
      <point x="705" y="563"/>
      <point x="829" y="598" type="curve"/>
      <point x="829" y="779" type="line"/>
      <point x="629" y="736"/>
      <point x="490" y="631"/>
      <point x="453" y="461" type="curve"/>
      <point x="446" y="448" type="line"/>
      <point x="439" y="429"/>
      <point x="434" y="407"/>
      <point x="434" y="383" type="curve"/>
      <point x="434" y="371" type="line"/>
      <point x="434" y="119"/>
      <point x="620" y="-26"/>
    </contour>
    <contour>
      <point x="984" y="364" type="line"/>
      <point x="1268" y="490" type="line"/>
      <point x="1315" y="509" type="line"/>
      <point x="1562" y="618" type="line"/>
      <point x="1562" y="797" type="line"/>
      <point x="984" y="544" type="line"/>
    </contour>
  </outline>
</glyph>
<glyph name="VowelUu.or" format="2">
  <advance width="2218"/>
  <unicode hex="0B0A"/>
  <anchor x="1723" y="1427" name="top2"/>
  <outline>
    <contour>
      <point x="2190" y="-212" type="line"/>
      <point x="2190" y="-10" type="line"/>
      <point x="1813" y="87" type="line"/>
      <point x="1774" y="61" type="line"/>
      <point x="1836" y="52" type="line"/>
      <point x="2037" y="60"/>
      <point x="2140" y="151"/>
      <point x="2140" y="310" type="curve" smooth="yes"/>
      <point x="2140" y="323" type="line" smooth="yes"/>
      <point x="2140" y="478"/>
      <point x="2040" y="556"/>
      <point x="1886" y="569" type="curve"/>
      <point x="1880" y="539" type="line"/>
      <point x="2003" y="573"/>
      <point x="2056" y="683"/>
      <point x="2056" y="807" type="curve" smooth="yes"/>
      <point x="2056" y="822" type="line" smooth="yes"/>
      <point x="2056" y="1156"/>
      <point x="1689" y="1365"/>
      <point x="1061" y="1365" type="curve" smooth="yes"/>
      <point x="439" y="1365"/>
      <point x="108" y="1165"/>
      <point x="108" y="790" type="curve" smooth="yes"/>
      <point x="108" y="773" type="line" smooth="yes"/>
      <point x="108" y="538"/>
      <point x="239" y="388"/>
      <point x="479" y="328" type="curve"/>
      <point x="524" y="506" type="line"/>
      <point x="396" y="546"/>
      <point x="321" y="637"/>
      <point x="321" y="777" type="curve" smooth="yes"/>
      <point x="321" y="794" type="line" smooth="yes"/>
      <point x="321" y="1048"/>
      <point x="565" y="1185"/>
      <point x="1058" y="1185" type="curve" smooth="yes"/>
      <point x="1575" y="1185"/>
      <point x="1844" y="1047"/>
      <point x="1844" y="798" type="curve" smooth="yes"/>
      <point x="1844" y="788" type="line" smooth="yes"/>
      <point x="1844" y="679"/>
      <point x="1796" y="595"/>
      <point x="1675" y="589" type="curve" smooth="yes"/>
      <point x="1656" y="588" type="line"/>
      <point x="1656" y="443" type="line"/>
      <point x="1735" y="442" type="line" smooth="yes"/>
      <point x="1875" y="440"/>
      <point x="1934" y="392"/>
      <point x="1934" y="299" type="curve" smooth="yes"/>
      <point x="1934" y="291" type="line" smooth="yes"/>
      <point x="1934" y="197"/>
      <point x="1872" y="142"/>
      <point x="1734" y="139" type="curve" smooth="yes"/>
      <point x="1642" y="137" type="line"/>
      <point x="1642" y="2" type="line"/>
    </contour>
    <contour>
      <point x="951" y="-26" type="curve" smooth="yes"/>
      <point x="1284" y="-26"/>
      <point x="1478" y="106"/>
      <point x="1478" y="300" type="curve" smooth="yes"/>
      <point x="1478" y="308" type="line" smooth="yes"/>
      <point x="1478" y="422"/>
      <point x="1428" y="488"/>
      <point x="1326" y="520" type="curve"/>
      <point x="1326" y="588" type="line"/>
      <point x="1181" y="493" type="line"/>
      <point x="1240" y="466"/>
      <point x="1272" y="414"/>
      <point x="1272" y="344" type="curve" smooth="yes"/>
      <point x="1272" y="335" type="line" smooth="yes"/>
      <point x="1272" y="218"/>
      <point x="1158" y="142"/>
      <point x="953" y="142" type="curve" smooth="yes"/>
      <point x="734" y="142"/>
      <point x="619" y="236"/>
      <point x="619" y="375" type="curve"/>
      <point x="619" y="385" type="line"/>
      <point x="619" y="491"/>
      <point x="677" y="563"/>
      <point x="801" y="598" type="curve"/>
      <point x="801" y="779" type="line"/>
      <point x="601" y="736"/>
      <point x="462" y="631"/>
      <point x="425" y="461" type="curve"/>
      <point x="418" y="448" type="line"/>
      <point x="411" y="429"/>
      <point x="406" y="407"/>
      <point x="406" y="383" type="curve"/>
      <point x="406" y="371" type="line"/>
      <point x="406" y="119"/>
      <point x="592" y="-26"/>
    </contour>
    <contour>
      <point x="956" y="364" type="line"/>
      <point x="1240" y="490" type="line"/>
      <point x="1287" y="509" type="line"/>
      <point x="1534" y="618" type="line"/>
      <point x="1534" y="797" type="line"/>
      <point x="956" y="544" type="line"/>
    </contour>
  </outline>
</glyph>
<glyph name="VowelVocalicR.or" format="2">
  <advance width="2177"/>
  <unicode hex="0B0B"/>
  <anchor x="1043" y="1828" name="top1"/>
  <anchor x="1691" y="1427" name="top2"/>
  <outline>
    <contour>
      <point x="2149" y="-212" type="line"/>
      <point x="2149" y="-10" type="line"/>
      <point x="1772" y="87" type="line"/>
      <point x="1733" y="61" type="line"/>
      <point x="1795" y="52" type="line"/>
      <point x="1996" y="60"/>
      <point x="2099" y="151"/>
      <point x="2099" y="310" type="curve" smooth="yes"/>
      <point x="2099" y="323" type="line" smooth="yes"/>
      <point x="2099" y="478"/>
      <point x="1999" y="556"/>
      <point x="1845" y="569" type="curve"/>
      <point x="1839" y="539" type="line"/>
      <point x="1962" y="573"/>
      <point x="2015" y="683"/>
      <point x="2015" y="807" type="curve" smooth="yes"/>
      <point x="2015" y="822" type="line" smooth="yes"/>
      <point x="2015" y="1156"/>
      <point x="1657" y="1365"/>
      <point x="1040" y="1365" type="curve" smooth="yes"/>
      <point x="432" y="1365"/>
      <point x="108" y="1165"/>
      <point x="108" y="790" type="curve" smooth="yes"/>
      <point x="108" y="772" type="line" smooth="yes"/>
      <point x="108" y="538"/>
      <point x="239" y="388"/>
      <point x="479" y="328" type="curve"/>
      <point x="524" y="506" type="line"/>
      <point x="396" y="546"/>
      <point x="321" y="636"/>
      <point x="321" y="776" type="curve" smooth="yes"/>
      <point x="321" y="794" type="line" smooth="yes"/>
      <point x="321" y="1048"/>
      <point x="558" y="1185"/>
      <point x="1037" y="1185" type="curve" smooth="yes"/>
      <point x="1542" y="1185"/>
      <point x="1803" y="1047"/>
      <point x="1803" y="798" type="curve" smooth="yes"/>
      <point x="1803" y="788" type="line" smooth="yes"/>
      <point x="1803" y="679"/>
      <point x="1755" y="595"/>
      <point x="1634" y="589" type="curve" smooth="yes"/>
      <point x="1615" y="588" type="line"/>
      <point x="1615" y="443" type="line"/>
      <point x="1694" y="442" type="line" smooth="yes"/>
      <point x="1834" y="440"/>
      <point x="1893" y="391"/>
      <point x="1893" y="298" type="curve" smooth="yes"/>
      <point x="1893" y="290" type="line" smooth="yes"/>
      <point x="1893" y="197"/>
      <point x="1831" y="142"/>
      <point x="1693" y="139" type="curve" smooth="yes"/>
      <point x="1601" y="137" type="line"/>
      <point x="1601" y="2" type="line"/>
    </contour>
    <contour>
      <point x="927" y="-26" type="curve" smooth="yes"/>
      <point x="1256" y="-26"/>
      <point x="1430" y="106"/>
      <point x="1430" y="350" type="curve" smooth="yes"/>
      <point x="1430" y="367" type="line" smooth="yes"/>
      <point x="1430" y="609"/>
      <point x="1256" y="742"/>
      <point x="930" y="742" type="curve" smooth="yes"/>
      <point x="649" y="742"/>
      <point x="492" y="636"/>
      <point x="443" y="451" type="curve"/>
      <point x="436" y="434" type="line"/>
      <point x="430" y="414"/>
      <point x="424" y="389"/>
      <point x="424" y="364" type="curve" smooth="yes"/>
      <point x="424" y="350" type="line" smooth="yes"/>
      <point x="424" y="106"/>
      <point x="600" y="-26"/>
    </contour>
    <contour>
      <point x="927" y="140" type="curve" smooth="yes"/>
      <point x="736" y="140"/>
      <point x="635" y="213"/>
      <point x="635" y="351" type="curve" smooth="yes"/>
      <point x="635" y="366" type="line" smooth="yes"/>
      <point x="635" y="506"/>
      <point x="737" y="576"/>
      <point x="927" y="576" type="curve" smooth="yes"/>
      <point x="1117" y="576"/>
      <point x="1219" y="505"/>
      <point x="1219" y="366" type="curve" smooth="yes"/>
      <point x="1219" y="351" type="line" smooth="yes"/>
      <point x="1219" y="213"/>
      <point x="1117" y="140"/>
    </contour>
  </outline>
</glyph>
<glyph name="VowelE.or" format="2">
  <advance width="1800"/>
  <unicode hex="0B0F"/>
  <anchor x="1493" y="1427" name="top2"/>
  <outline>
    <contour>
      <point x="1275" y="0" type="line"/>
      <point x="1614" y="0" type="line"/>
      <point x="1614" y="1321" type="line"/>
      <point x="1299" y="1321" type="line"/>
      <point x="745" y="814" type="line"/>
      <point x="1013" y="814" type="line"/>
      <point x="1396" y="1173" type="line"/>
      <point x="1417" y="1173" type="line"/>
      <point x="1414" y="1056"/>
      <point x="1414" y="957"/>
      <point x="1414" y="834" type="curve" smooth="yes"/>
      <point x="1414" y="151" type="line"/>
      <point x="1390" y="151" type="line"/>
      <point x="18" y="1103" type="line"/>
      <point x="18" y="865" type="line"/>
    </contour>
  </outline>
</glyph>
<glyph name="VowelAi.or" format="2">
  <advance width="2372"/>
  <unicode hex="0B10"/>
  <anchor x="2295" y="1572" name="top2"/>
  <outline>
    <contour>
      <point x="1986" y="0" type="line"/>
      <point x="2186" y="0" type="line"/>
      <point x="2186" y="1313" type="line" smooth="yes"/>
      <point x="2186" y="1614"/>
      <point x="2056" y="1730"/>
      <point x="1730" y="1735" type="curve" smooth="yes"/>
      <point x="1185" y="1743" type="line" smooth="yes"/>
      <point x="1011" y="1746"/>
      <point x="929" y="1788"/>
      <point x="925" y="1912" type="curve" smooth="yes"/>
      <point x="924" y="1942" type="line"/>
      <point x="729" y="1942" type="line"/>
      <point x="729" y="1907" type="line" smooth="yes"/>
      <point x="729" y="1675"/>
      <point x="867" y="1580"/>
      <point x="1167" y="1576" type="curve" smooth="yes"/>
      <point x="1713" y="1568" type="line" smooth="yes"/>
      <point x="1924" y="1565"/>
      <point x="1986" y="1488"/>
      <point x="1986" y="1302" type="curve" smooth="yes"/>
    </contour>
    <contour>
      <point x="1578" y="641" type="line"/>
      <point x="2029" y="641" type="line"/>
      <point x="2029" y="805" type="line"/>
      <point x="1578" y="805" type="line"/>
    </contour>
    <component base="VowelE.or"/>
  </outline>
</glyph>
<glyph name="VowelO.or" format="2">
  <advance width="1857"/>
  <unicode hex="0B13"/>
  <anchor x="1574" y="1427" name="top2"/>
  <outline>
    <contour>
      <point x="1031" y="-25" type="curve" smooth="yes"/>
      <point x="1499" y="-25"/>
      <point x="1753" y="130"/>
      <point x="1753" y="401" type="curve" smooth="yes"/>
      <point x="1753" y="416" type="line" smooth="yes"/>
      <point x="1753" y="564"/>
      <point x="1672" y="677"/>
      <point x="1522" y="729" type="curve"/>
      <point x="1377" y="629" type="line"/>
      <point x="1479" y="593"/>
      <point x="1540" y="531"/>
      <point x="1540" y="424" type="curve" smooth="yes"/>
      <point x="1540" y="414" type="line" smooth="yes"/>
      <point x="1540" y="252"/>
      <point x="1370" y="155"/>
      <point x="1034" y="155" type="curve" smooth="yes"/>
      <point x="573" y="155"/>
      <point x="342" y="364"/>
      <point x="342" y="722" type="curve" smooth="yes"/>
      <point x="342" y="743" type="line" smooth="yes"/>
      <point x="342" y="954"/>
      <point x="413" y="1137"/>
      <point x="547" y="1321" type="curve"/>
      <point x="329" y="1321" type="line"/>
      <point x="201" y="1144"/>
      <point x="130" y="948"/>
      <point x="130" y="726" type="curve" smooth="yes"/>
      <point x="130" y="705" type="line" smooth="yes"/>
      <point x="130" y="230"/>
      <point x="441" y="-25"/>
    </contour>
    <contour>
      <point x="1043" y="563" type="line"/>
      <point x="1124" y="563" type="line" smooth="yes"/>
      <point x="1256" y="563"/>
      <point x="1387" y="586"/>
      <point x="1473" y="625" type="curve"/>
      <point x="1552" y="675" type="line"/>
      <point x="1657" y="736"/>
      <point x="1711" y="838"/>
      <point x="1711" y="968" type="curve" smooth="yes"/>
      <point x="1711" y="978" type="line" smooth="yes"/>
      <point x="1711" y="1225"/>
      <point x="1536" y="1360"/>
      <point x="1207" y="1360" type="curve" smooth="yes"/>
      <point x="889" y="1360"/>
      <point x="709" y="1236"/>
      <point x="709" y="1020" type="curve" smooth="yes"/>
      <point x="709" y="1011" type="line" smooth="yes"/>
      <point x="709" y="965"/>
      <point x="721" y="917"/>
      <point x="737" y="884" type="curve"/>
      <point x="941" y="873" type="line"/>
      <point x="925" y="908"/>
      <point x="913" y="944"/>
      <point x="913" y="982" type="curve" smooth="yes"/>
      <point x="913" y="989" type="line" smooth="yes"/>
      <point x="913" y="1122"/>
      <point x="1012" y="1195"/>
      <point x="1206" y="1195" type="curve" smooth="yes"/>
      <point x="1400" y="1195"/>
      <point x="1504" y="1118"/>
      <point x="1504" y="978" type="curve" smooth="yes"/>
      <point x="1504" y="968" type="line" smooth="yes"/>
      <point x="1504" y="798"/>
      <point x="1355" y="729"/>
      <point x="1127" y="726" type="curve" smooth="yes"/>
      <point x="1043" y="725" type="line"/>
    </contour>
  </outline>
</glyph>
<glyph name="VowelAu.or" format="2">
  <advance width="2429"/>
  <unicode hex="0B14"/>
  <anchor x="2352" y="1572" name="top2"/>
  <outline>
    <contour>
      <point x="2043" y="0" type="line"/>
      <point x="2243" y="0" type="line"/>
      <point x="2243" y="1313" type="line" smooth="yes"/>
      <point x="2243" y="1614"/>
      <point x="2113" y="1729"/>
      <point x="1787" y="1735" type="curve" smooth="yes"/>
      <point x="1242" y="1743" type="line" smooth="yes"/>
      <point x="1068" y="1746"/>
      <point x="984" y="1788"/>
      <point x="982" y="1912" type="curve" smooth="yes"/>
      <point x="981" y="1942" type="line"/>
      <point x="786" y="1942" type="line"/>
      <point x="786" y="1907" type="line" smooth="yes"/>
      <point x="786" y="1675"/>
      <point x="924" y="1580"/>
      <point x="1224" y="1576" type="curve" smooth="yes"/>
      <point x="1770" y="1568" type="line" smooth="yes"/>
      <point x="1981" y="1565"/>
      <point x="2043" y="1488"/>
      <point x="2043" y="1302" type="curve" smooth="yes"/>
    </contour>
    <contour>
      <point x="1680" y="389" type="line"/>
      <point x="2071" y="389" type="line"/>
      <point x="2071" y="553" type="line"/>
      <point x="1680" y="553" type="line"/>
    </contour>
    <component base="VowelO.or"/>
  </outline>
</glyph>
<glyph name="Gha.or" format="2">
  <advance width="2131"/>
  <unicode hex="0B18"/>
  <anchor x="1945" y="55" name="bottom"/>
  <anchor x="1124" y="53" name="nukta"/>
  <anchor x="2346" y="20" name="rasmall"/>
  <anchor x="1013" y="1828" name="top1"/>
  <anchor x="1822" y="1427" name="top2"/>
  <outline>
    <contour>
      <point x="471" y="367" type="curve"/>
      <point x="531" y="536" type="line"/>
      <point x="397" y="578"/>
      <point x="321" y="670"/>
      <point x="321" y="810" type="curve" smooth="yes"/>
      <point x="321" y="828" type="line" smooth="yes"/>
      <point x="321" y="1057"/>
      <point x="533" y="1185"/>
      <point x="970" y="1185" type="curve" smooth="yes"/>
      <point x="1436" y="1185"/>
      <point x="1743" y="1021"/>
      <point x="1745" y="682" type="curve"/>
      <point x="1767" y="940" type="line"/>
      <point x="1709" y="1201"/>
      <point x="1448" y="1365"/>
      <point x="947" y="1365" type="curve" smooth="yes"/>
      <point x="405" y="1365"/>
      <point x="108" y="1175"/>
      <point x="108" y="830" type="curve" smooth="yes"/>
      <point x="108" y="810" type="line" smooth="yes"/>
      <point x="108" y="574"/>
      <point x="246" y="426"/>
    </contour>
    <contour>
      <point x="794" y="-21" type="curve" smooth="yes"/>
      <point x="1019" y="-21"/>
      <point x="1124" y="53"/>
      <point x="1168" y="165" type="curve"/>
      <point x="1176" y="165" type="line"/>
      <point x="1211" y="54"/>
      <point x="1296" y="-21"/>
      <point x="1466" y="-21" type="curve" smooth="yes"/>
      <point x="1633" y="-21"/>
      <point x="1711" y="49"/>
      <point x="1743" y="164" type="curve"/>
      <point x="1783" y="164" type="line"/>
      <point x="1749" y="334" type="line"/>
      <point x="1714" y="225"/>
      <point x="1637" y="146"/>
      <point x="1506" y="146" type="curve" smooth="yes"/>
      <point x="1355" y="146"/>
      <point x="1277" y="229"/>
      <point x="1275" y="369" type="curve" smooth="yes"/>
      <point x="1273" y="535" type="line"/>
      <point x="1075" y="535" type="line"/>
      <point x="1073" y="369" type="line" smooth="yes"/>
      <point x="1071" y="229"/>
      <point x="980" y="146"/>
      <point x="823" y="146" type="curve" smooth="yes"/>
      <point x="665" y="146"/>
      <point x="576" y="224"/>
      <point x="576" y="364" type="curve" smooth="yes"/>
      <point x="576" y="374" type="line" smooth="yes"/>
      <point x="576" y="483"/>
      <point x="634" y="560"/>
      <point x="772" y="596" type="curve"/>
      <point x="772" y="777" type="line"/>
      <point x="575" y="748"/>
      <point x="439" y="640"/>
      <point x="393" y="490" type="curve"/>
      <point x="374" y="457" type="line"/>
      <point x="369" y="429"/>
      <point x="365" y="396"/>
      <point x="365" y="361" type="curve" smooth="yes"/>
      <point x="365" y="352" type="line" smooth="yes"/>
      <point x="365" y="105"/>
      <point x="524" y="-21"/>
    </contour>
    <contour>
      <point x="1750" y="0" type="line"/>
      <point x="1945" y="0" type="line"/>
      <point x="1945" y="1321" type="line"/>
      <point x="1745" y="1321" type="line"/>
      <point x="1751" y="1023" type="line"/>
      <point x="1719" y="1023" type="line"/>
      <point x="1745" y="861" type="line"/>
      <point x="1745" y="247" type="line"/>
      <point x="1755" y="240" type="line"/>
    </contour>
  </outline>
</glyph>
<glyph name="Nga.or" format="2">
  <advance width="2439"/>
  <unicode hex="0B19"/>
  <anchor x="1199" y="55" name="bottom"/>
  <anchor x="1067" y="53" name="nukta"/>
  <anchor x="1019" y="1828" name="top1"/>
  <anchor x="1724" y="1427" name="top2"/>
  <outline>
    <contour>
      <point x="510" y="310" type="curve"/>
      <point x="562" y="485" type="line"/>
      <point x="406" y="522"/>
      <point x="321" y="625"/>
      <point x="321" y="768" type="curve" smooth="yes"/>
      <point x="321" y="784" type="line" smooth="yes"/>
      <point x="321" y="1040"/>
      <point x="559" y="1185"/>
      <point x="1011" y="1185" type="curve" smooth="yes"/>
      <point x="1325" y="1185"/>
      <point x="1553" y="1109"/>
      <point x="1702" y="1005" type="curve"/>
      <point x="1797" y="1150" type="line"/>
      <point x="1651" y="1252"/>
      <point x="1386" y="1365"/>
      <point x="1011" y="1365" type="curve" smooth="yes"/>
      <point x="431" y="1365"/>
      <point x="108" y="1155"/>
      <point x="108" y="788" type="curve" smooth="yes"/>
      <point x="108" y="767" type="line" smooth="yes"/>
      <point x="108" y="530"/>
      <point x="243" y="370"/>
    </contour>
    <contour>
      <point x="1029" y="-26" type="curve" smooth="yes"/>
      <point x="1362" y="-26"/>
      <point x="1556" y="106"/>
      <point x="1556" y="300" type="curve" smooth="yes"/>
      <point x="1556" y="308" type="line" smooth="yes"/>
      <point x="1556" y="422"/>
      <point x="1506" y="488"/>
      <point x="1404" y="520" type="curve"/>
      <point x="1404" y="588" type="line"/>
      <point x="1259" y="493" type="line"/>
      <point x="1318" y="466"/>
      <point x="1350" y="414"/>
      <point x="1350" y="344" type="curve" smooth="yes"/>
      <point x="1350" y="335" type="line" smooth="yes"/>
      <point x="1350" y="218"/>
      <point x="1236" y="142"/>
      <point x="1031" y="142" type="curve" smooth="yes"/>
      <point x="812" y="142"/>
      <point x="697" y="236"/>
      <point x="697" y="375" type="curve"/>
      <point x="697" y="385" type="line"/>
      <point x="697" y="491"/>
      <point x="755" y="563"/>
      <point x="879" y="598" type="curve"/>
      <point x="879" y="779" type="line"/>
      <point x="679" y="736"/>
      <point x="540" y="631"/>
      <point x="503" y="461" type="curve"/>
      <point x="496" y="448" type="line"/>
      <point x="489" y="429"/>
      <point x="484" y="407"/>
      <point x="484" y="383" type="curve"/>
      <point x="484" y="371" type="line"/>
      <point x="484" y="119"/>
      <point x="670" y="-26"/>
    </contour>
    <contour>
      <point x="1034" y="364" type="line"/>
      <point x="1318" y="490" type="line"/>
      <point x="1365" y="509" type="line"/>
      <point x="1612" y="618" type="line"/>
      <point x="1612" y="797" type="line"/>
      <point x="1034" y="544" type="line"/>
    </contour>
    <contour>
      <point x="2021" y="654" type="curve" smooth="yes"/>
      <point x="2266" y="654"/>
      <point x="2393" y="761"/>
      <point x="2393" y="955" type="curve" smooth="yes"/>
      <point x="2393" y="965" type="line" smooth="yes"/>
      <point x="2393" y="1158"/>
      <point x="2266" y="1264"/>
      <point x="2026" y="1264" type="curve" smooth="yes"/>
      <point x="1895" y="1264"/>
      <point x="1787" y="1227"/>
      <point x="1726" y="1143" type="curve"/>
      <point x="1671" y="1074" type="line"/>
      <point x="1656" y="1041"/>
      <point x="1649" y="1000"/>
      <point x="1649" y="961" type="curve" smooth="yes"/>
      <point x="1649" y="957" type="line" smooth="yes"/>
      <point x="1649" y="763"/>
      <point x="1783" y="654"/>
    </contour>
    <contour>
      <point x="2022" y="802" type="curve" smooth="yes"/>
      <point x="1899" y="802"/>
      <point x="1832" y="857"/>
      <point x="1832" y="957" type="curve" smooth="yes"/>
      <point x="1832" y="963" type="line" smooth="yes"/>
      <point x="1832" y="1061"/>
      <point x="1900" y="1116"/>
      <point x="2022" y="1116" type="curve" smooth="yes"/>
      <point x="2142" y="1116"/>
      <point x="2210" y="1063"/>
      <point x="2210" y="964" type="curve" smooth="yes"/>
      <point x="2210" y="957" type="line" smooth="yes"/>
      <point x="2210" y="857"/>
      <point x="2142" y="802"/>
    </contour>
  </outline>
</glyph>
<glyph name="Ca.or" format="2">
  <advance width="2082"/>
  <unicode hex="0B1A"/>
  <anchor x="1191" y="55" name="bottom"/>
  <anchor x="1043" y="53" name="nukta"/>
  <anchor x="1028" y="1828" name="top1"/>
  <anchor x="1622" y="1427" name="top2"/>
  <outline>
    <contour>
      <point x="553" y="300" type="curve"/>
      <point x="595" y="478" type="line"/>
      <point x="417" y="512"/>
      <point x="321" y="610"/>
      <point x="321" y="775" type="curve" smooth="yes"/>
      <point x="321" y="794" type="line" smooth="yes"/>
      <point x="321" y="1046"/>
      <point x="556" y="1185"/>
      <point x="1018" y="1185" type="curve" smooth="yes"/>
      <point x="1508" y="1185"/>
      <point x="1764" y="1015"/>
      <point x="1764" y="706" type="curve" smooth="yes"/>
      <point x="1764" y="689" type="line" smooth="yes"/>
      <point x="1764" y="588"/>
      <point x="1738" y="501"/>
      <point x="1692" y="416" type="curve"/>
      <point x="1906" y="437" type="line"/>
      <point x="1950" y="516"/>
      <point x="1976" y="605"/>
      <point x="1976" y="715" type="curve" smooth="yes"/>
      <point x="1976" y="731" type="line" smooth="yes"/>
      <point x="1976" y="1130"/>
      <point x="1632" y="1365"/>
      <point x="1019" y="1365" type="curve" smooth="yes"/>
      <point x="426" y="1365"/>
      <point x="108" y="1159"/>
      <point x="108" y="790" type="curve" smooth="yes"/>
      <point x="108" y="771" type="line" smooth="yes"/>
      <point x="108" y="513"/>
      <point x="260" y="355"/>
    </contour>
    <contour>
      <point x="1027" y="-26" type="curve" smooth="yes"/>
      <point x="1356" y="-26"/>
      <point x="1530" y="106"/>
      <point x="1530" y="350" type="curve" smooth="yes"/>
      <point x="1530" y="367" type="line" smooth="yes"/>
      <point x="1530" y="609"/>
      <point x="1356" y="742"/>
      <point x="1030" y="742" type="curve" smooth="yes"/>
      <point x="749" y="742"/>
      <point x="592" y="636"/>
      <point x="543" y="451" type="curve"/>
      <point x="536" y="434" type="line"/>
      <point x="530" y="414"/>
      <point x="524" y="389"/>
      <point x="524" y="364" type="curve" smooth="yes"/>
      <point x="524" y="350" type="line" smooth="yes"/>
      <point x="524" y="106"/>
      <point x="700" y="-26"/>
    </contour>
    <contour>
      <point x="1027" y="140" type="curve" smooth="yes"/>
      <point x="836" y="140"/>
      <point x="735" y="213"/>
      <point x="735" y="351" type="curve" smooth="yes"/>
      <point x="735" y="366" type="line" smooth="yes"/>
      <point x="735" y="506"/>
      <point x="837" y="576"/>
      <point x="1027" y="576" type="curve" smooth="yes"/>
      <point x="1217" y="576"/>
      <point x="1319" y="505"/>
      <point x="1319" y="366" type="curve" smooth="yes"/>
      <point x="1319" y="351" type="line" smooth="yes"/>
      <point x="1319" y="213"/>
      <point x="1217" y="140"/>
    </contour>
  </outline>
</glyph>
<glyph name="Cha.or" format="2">
  <advance width="2082"/>
  <unicode hex="0B1B"/>
  <anchor x="1354" y="-274" name="bottom"/>
  <anchor x="1034" y="-202" name="nukta"/>
  <anchor x="1028" y="1828" name="top1"/>
  <anchor x="1622" y="1427" name="top2"/>
  <outline>
    <contour>
      <point x="553" y="300" type="curve"/>
      <point x="595" y="478" type="line"/>
      <point x="417" y="512"/>
      <point x="321" y="610"/>
      <point x="321" y="775" type="curve" smooth="yes"/>
      <point x="321" y="794" type="line" smooth="yes"/>
      <point x="321" y="1046"/>
      <point x="556" y="1185"/>
      <point x="1018" y="1185" type="curve" smooth="yes"/>
      <point x="1508" y="1185"/>
      <point x="1764" y="1015"/>
      <point x="1764" y="706" type="curve" smooth="yes"/>
      <point x="1764" y="689" type="line" smooth="yes"/>
      <point x="1764" y="588"/>
      <point x="1738" y="501"/>
      <point x="1692" y="416" type="curve"/>
      <point x="1906" y="437" type="line"/>
      <point x="1950" y="516"/>
      <point x="1976" y="605"/>
      <point x="1976" y="715" type="curve" smooth="yes"/>
      <point x="1976" y="731" type="line" smooth="yes"/>
      <point x="1976" y="1130"/>
      <point x="1632" y="1365"/>
      <point x="1019" y="1365" type="curve" smooth="yes"/>
      <point x="426" y="1365"/>
      <point x="108" y="1159"/>
      <point x="108" y="790" type="curve" smooth="yes"/>
      <point x="108" y="771" type="line" smooth="yes"/>
      <point x="108" y="513"/>
      <point x="260" y="355"/>
    </contour>
    <contour>
      <point x="627" y="-379" type="curve" smooth="yes"/>
      <point x="824" y="-379"/>
      <point x="944" y="-312"/>
      <point x="1061" y="-171" type="curve"/>
      <point x="1104" y="-106" type="line"/>
      <point x="1188" y="-12"/>
      <point x="1275" y="49"/>
      <point x="1403" y="49" type="curve" smooth="yes"/>
      <point x="1511" y="49"/>
      <point x="1571" y="4"/>
      <point x="1571" y="-85" type="curve" smooth="yes"/>
      <point x="1571" y="-89" type="line" smooth="yes"/>
      <point x="1571" y="-173"/>
      <point x="1511" y="-219"/>
      <point x="1400" y="-219" type="curve" smooth="yes"/>
      <point x="1268" y="-219"/>
      <point x="1187" y="-168"/>
      <point x="1102" y="-69" type="curve"/>
      <point x="1059" y="-21" type="line"/>
      <point x="907" y="124"/>
      <point x="790" y="185"/>
      <point x="622" y="185" type="curve" smooth="yes"/>
      <point x="414" y="185"/>
      <point x="286" y="85"/>
      <point x="286" y="-88" type="curve" smooth="yes"/>
      <point x="286" y="-96" type="line" smooth="yes"/>
      <point x="286" y="-278"/>
      <point x="404" y="-379"/>
    </contour>
    <contour>
      <point x="1428" y="-379" type="curve" smooth="yes"/>
      <point x="1651" y="-379"/>
      <point x="1769" y="-278"/>
      <point x="1769" y="-96" type="curve" smooth="yes"/>
      <point x="1769" y="-88" type="line" smooth="yes"/>
      <point x="1769" y="86"/>
      <point x="1642" y="185"/>
      <point x="1434" y="185" type="curve" smooth="yes"/>
      <point x="1265" y="185"/>
      <point x="1142" y="124"/>
      <point x="996" y="-21" type="curve"/>
      <point x="952" y="-70" type="line"/>
      <point x="868" y="-168"/>
      <point x="787" y="-219"/>
      <point x="655" y="-219" type="curve" smooth="yes"/>
      <point x="544" y="-219"/>
      <point x="484" y="-173"/>
      <point x="484" y="-89" type="curve" smooth="yes"/>
      <point x="484" y="-85" type="line" smooth="yes"/>
      <point x="484" y="4"/>
      <point x="544" y="49"/>
      <point x="652" y="49" type="curve" smooth="yes"/>
      <point x="780" y="49"/>
      <point x="867" y="-12"/>
      <point x="951" y="-106" type="curve"/>
      <point x="988" y="-171" type="line"/>
      <point x="1115" y="-312"/>
      <point x="1231" y="-379"/>
    </contour>
    <contour>
      <point x="1027" y="-5" type="curve" smooth="yes"/>
      <point x="1326" y="-5"/>
      <point x="1530" y="135"/>
      <point x="1530" y="361" type="curve" smooth="yes"/>
      <point x="1530" y="373" type="line" smooth="yes"/>
      <point x="1530" y="615"/>
      <point x="1356" y="748"/>
      <point x="1030" y="748" type="curve" smooth="yes"/>
      <point x="749" y="748"/>
      <point x="592" y="642"/>
      <point x="543" y="457" type="curve"/>
      <point x="536" y="440" type="line"/>
      <point x="530" y="420"/>
      <point x="524" y="395"/>
      <point x="524" y="370" type="curve" smooth="yes"/>
      <point x="524" y="361" type="line" smooth="yes"/>
      <point x="524" y="135"/>
      <point x="730" y="-5"/>
    </contour>
    <contour>
      <point x="1027" y="151" type="curve" smooth="yes"/>
      <point x="836" y="151"/>
      <point x="735" y="224"/>
      <point x="735" y="362" type="curve" smooth="yes"/>
      <point x="735" y="372" type="line" smooth="yes"/>
      <point x="735" y="512"/>
      <point x="837" y="582"/>
      <point x="1027" y="582" type="curve" smooth="yes"/>
      <point x="1217" y="582"/>
      <point x="1319" y="511"/>
      <point x="1319" y="372" type="curve" smooth="yes"/>
      <point x="1319" y="362" type="line" smooth="yes"/>
      <point x="1319" y="224"/>
      <point x="1217" y="151"/>
    </contour>
  </outline>
</glyph>
<glyph name="Jha.or" format="2">
  <advance width="2062"/>
  <unicode hex="0B1D"/>
  <anchor x="1173" y="55" name="bottom"/>
  <anchor x="1040" y="53" name="nukta"/>
  <anchor x="1040" y="1828" name="top1"/>
  <anchor x="1549" y="1427" name="top2"/>
  <outline>
    <contour>
      <point x="520" y="324" type="curve"/>
      <point x="566" y="496" type="line"/>
      <point x="414" y="530"/>
      <point x="321" y="634"/>
      <point x="321" y="786" type="curve" smooth="yes"/>
      <point x="321" y="806" type="line" smooth="yes"/>
      <point x="321" y="1053"/>
      <point x="514" y="1189"/>
      <point x="876" y="1189" type="curve" smooth="yes"/>
      <point x="990" y="1189"/>
      <point x="1076" y="1179"/>
      <point x="1130" y="1165" type="curve"/>
      <point x="1087" y="1315" type="line"/>
      <point x="1059" y="1273"/>
      <point x="1040" y="1203"/>
      <point x="1040" y="1148" type="curve" smooth="yes"/>
      <point x="1040" y="1134" type="line" smooth="yes"/>
      <point x="1040" y="909"/>
      <point x="1212" y="787"/>
      <point x="1512" y="787" type="curve" smooth="yes"/>
      <point x="1812" y="787"/>
      <point x="1980" y="909"/>
      <point x="1980" y="1129" type="curve" smooth="yes"/>
      <point x="1980" y="1147" type="line" smooth="yes"/>
      <point x="1980" y="1201"/>
      <point x="1964" y="1268"/>
      <point x="1944" y="1319" type="curve"/>
      <point x="1745" y="1319" type="line"/>
      <point x="1762" y="1263"/>
      <point x="1772" y="1213"/>
      <point x="1772" y="1167" type="curve" smooth="yes"/>
      <point x="1772" y="1159" type="line" smooth="yes"/>
      <point x="1772" y="1025"/>
      <point x="1683" y="951"/>
      <point x="1512" y="951" type="curve" smooth="yes"/>
      <point x="1341" y="951"/>
      <point x="1248" y="1025"/>
      <point x="1248" y="1159" type="curve" smooth="yes"/>
      <point x="1248" y="1167" type="line" smooth="yes"/>
      <point x="1248" y="1215"/>
      <point x="1259" y="1262"/>
      <point x="1277" y="1311" type="curve"/>
      <point x="1175" y="1341"/>
      <point x="1033" y="1365"/>
      <point x="866" y="1365" type="curve" smooth="yes"/>
      <point x="386" y="1365"/>
      <point x="108" y="1169"/>
      <point x="108" y="808" type="curve" smooth="yes"/>
      <point x="108" y="786" type="line" smooth="yes"/>
      <point x="108" y="541"/>
      <point x="257" y="379"/>
    </contour>
    <contour>
      <point x="1902" y="-126" type="line"/>
      <point x="1902" y="68" type="line"/>
      <point x="1434" y="229" type="line"/>
      <point x="1307" y="91" type="line"/>
    </contour>
    <contour>
      <point x="1005" y="-26" type="curve" smooth="yes"/>
      <point x="1193" y="-26"/>
      <point x="1333" y="18"/>
      <point x="1415" y="102" type="curve"/>
      <point x="1463" y="177" type="line"/>
      <point x="1492" y="223"/>
      <point x="1508" y="280"/>
      <point x="1508" y="348" type="curve"/>
      <point x="1508" y="359" type="line"/>
      <point x="1508" y="597"/>
      <point x="1334" y="728"/>
      <point x="1008" y="728" type="curve" smooth="yes"/>
      <point x="726" y="728"/>
      <point x="569" y="624"/>
      <point x="520" y="442" type="curve"/>
      <point x="514" y="427" type="line"/>
      <point x="508" y="406"/>
      <point x="502" y="380"/>
      <point x="502" y="356" type="curve" smooth="yes"/>
      <point x="502" y="343" type="line" smooth="yes"/>
      <point x="502" y="104"/>
      <point x="678" y="-26"/>
    </contour>
    <contour>
      <point x="1005" y="140" type="curve" smooth="yes"/>
      <point x="814" y="140"/>
      <point x="713" y="211"/>
      <point x="713" y="344" type="curve" smooth="yes"/>
      <point x="713" y="359" type="line" smooth="yes"/>
      <point x="713" y="494"/>
      <point x="815" y="562"/>
      <point x="1005" y="562" type="curve" smooth="yes"/>
      <point x="1195" y="562"/>
      <point x="1297" y="493"/>
      <point x="1297" y="359" type="curve" smooth="yes"/>
      <point x="1297" y="344" type="line" smooth="yes"/>
      <point x="1297" y="211"/>
      <point x="1195" y="140"/>
    </contour>
  </outline>
</glyph>
<glyph name="Nya.or" format="2">
  <advance width="2075"/>
  <unicode hex="0B1E"/>
  <anchor x="1277" y="55" name="bottom"/>
  <anchor x="1056" y="53" name="nukta"/>
  <anchor x="1046" y="1828" name="top1"/>
  <anchor x="1764" y="1427" name="top2"/>
  <outline>
    <contour>
      <point x="700" y="297" type="curve"/>
      <point x="907" y="286" type="line"/>
      <point x="877" y="336"/>
      <point x="859" y="385"/>
      <point x="859" y="435" type="curve" smooth="yes"/>
      <point x="859" y="446" type="line" smooth="yes"/>
      <point x="859" y="545"/>
      <point x="916" y="603"/>
      <point x="1025" y="603" type="curve" smooth="yes"/>
      <point x="1144" y="603"/>
      <point x="1196" y="541"/>
      <point x="1197" y="425" type="curve" smooth="yes"/>
      <point x="1198" y="344" type="line"/>
      <point x="1398" y="344" type="line"/>
      <point x="1399" y="425" type="line" smooth="yes"/>
      <point x="1400" y="542"/>
      <point x="1450" y="606"/>
      <point x="1570" y="606" type="curve" smooth="yes"/>
      <point x="1686" y="606"/>
      <point x="1744" y="548"/>
      <point x="1744" y="439" type="curve" smooth="yes"/>
      <point x="1744" y="428" type="line" smooth="yes"/>
      <point x="1744" y="237"/>
      <point x="1564" y="151"/>
      <point x="1110" y="151" type="curve" smooth="yes"/>
      <point x="594" y="151"/>
      <point x="336" y="246"/>
      <point x="336" y="498" type="curve" smooth="yes"/>
      <point x="336" y="508" type="line" smooth="yes"/>
      <point x="336" y="590"/>
      <point x="368" y="665"/>
      <point x="440" y="730" type="curve"/>
      <point x="289" y="845" type="line"/>
      <point x="202" y="770"/>
      <point x="131" y="651"/>
      <point x="131" y="507" type="curve" smooth="yes"/>
      <point x="131" y="494" type="line" smooth="yes"/>
      <point x="131" y="133"/>
      <point x="453" y="-25"/>
      <point x="1100" y="-25" type="curve" smooth="yes"/>
      <point x="1663" y="-25"/>
      <point x="1950" y="128"/>
      <point x="1950" y="433" type="curve" smooth="yes"/>
      <point x="1950" y="448" type="line" smooth="yes"/>
      <point x="1950" y="647"/>
      <point x="1829" y="747"/>
      <point x="1614" y="747" type="curve" smooth="yes"/>
      <point x="1425" y="747"/>
      <point x="1331" y="692"/>
      <point x="1303" y="610" type="curve"/>
      <point x="1295" y="610" type="line"/>
      <point x="1266" y="681"/>
      <point x="1180" y="727"/>
      <point x="994" y="727" type="curve" smooth="yes"/>
      <point x="775" y="727"/>
      <point x="653" y="633"/>
      <point x="653" y="476" type="curve" smooth="yes"/>
      <point x="653" y="465" type="line" smooth="yes"/>
      <point x="653" y="403"/>
      <point x="671" y="344"/>
    </contour>
    <contour>
      <point x="700" y="873" type="curve"/>
      <point x="907" y="862" type="line"/>
      <point x="877" y="912"/>
      <point x="859" y="960"/>
      <point x="859" y="1011" type="curve" smooth="yes"/>
      <point x="859" y="1022" type="line" smooth="yes"/>
      <point x="859" y="1121"/>
      <point x="916" y="1179"/>
      <point x="1025" y="1179" type="curve" smooth="yes"/>
      <point x="1135" y="1179"/>
      <point x="1196" y="1114"/>
      <point x="1197" y="1001" type="curve" smooth="yes"/>
      <point x="1198" y="920" type="line"/>
      <point x="1398" y="920" type="line"/>
      <point x="1399" y="1001" type="line" smooth="yes"/>
      <point x="1400" y="1114"/>
      <point x="1461" y="1179"/>
      <point x="1574" y="1179" type="curve" smooth="yes"/>
      <point x="1687" y="1179"/>
      <point x="1744" y="1121"/>
      <point x="1744" y="1015" type="curve" smooth="yes"/>
      <point x="1744" y="1004" type="line" smooth="yes"/>
      <point x="1744" y="822"/>
      <point x="1580" y="727"/>
      <point x="1142" y="727" type="curve" smooth="yes"/>
      <point x="577" y="727"/>
      <point x="336" y="845"/>
      <point x="336" y="1101" type="curve" smooth="yes"/>
      <point x="336" y="1115" type="line" smooth="yes"/>
      <point x="336" y="1189"/>
      <point x="359" y="1262"/>
      <point x="398" y="1329" type="curve"/>
      <point x="196" y="1329" type="line"/>
      <point x="155" y="1261"/>
      <point x="131" y="1179"/>
      <point x="131" y="1096" type="curve" smooth="yes"/>
      <point x="131" y="1081" type="line" smooth="yes"/>
      <point x="131" y="953"/>
      <point x="178" y="848"/>
      <point x="274" y="768" type="curve"/>
      <point x="331" y="721" type="line"/>
      <point x="423" y="647"/>
      <point x="605" y="584"/>
      <point x="766" y="570" type="curve"/>
      <point x="1025" y="643" type="line"/>
      <point x="1303" y="563" type="line"/>
      <point x="1430" y="585"/>
      <point x="1621" y="640"/>
      <point x="1711" y="673" type="curve"/>
      <point x="1874" y="732"/>
      <point x="1950" y="846"/>
      <point x="1950" y="1007" type="curve" smooth="yes"/>
      <point x="1950" y="1022" type="line" smooth="yes"/>
      <point x="1950" y="1233"/>
      <point x="1829" y="1342"/>
      <point x="1615" y="1342" type="curve" smooth="yes"/>
      <point x="1427" y="1342"/>
      <point x="1335" y="1267"/>
      <point x="1303" y="1156" type="curve"/>
      <point x="1295" y="1156" type="line"/>
      <point x="1263" y="1268"/>
      <point x="1177" y="1342"/>
      <point x="994" y="1342" type="curve" smooth="yes"/>
      <point x="775" y="1342"/>
      <point x="653" y="1231"/>
      <point x="653" y="1052" type="curve" smooth="yes"/>
      <point x="653" y="1041" type="line" smooth="yes"/>
      <point x="653" y="979"/>
      <point x="671" y="920"/>
    </contour>
  </outline>
</glyph>
<glyph name="Tta.or" format="2">
  <advance width="2081"/>
  <unicode hex="0B1F"/>
  <anchor x="1204" y="55" name="bottom"/>
  <anchor x="1061" y="53" name="nukta"/>
  <anchor x="1001" y="1828" name="top1"/>
  <anchor x="1504" y="1427" name="top2"/>
  <outline>
    <contour>
      <point x="561" y="313" type="curve"/>
      <point x="604" y="488" type="line"/>
      <point x="417" y="521"/>
      <point x="321" y="627"/>
      <point x="321" y="785" type="curve" smooth="yes"/>
      <point x="321" y="806" type="line" smooth="yes"/>
      <point x="321" y="1051"/>
      <point x="531" y="1185"/>
      <point x="963" y="1185" type="curve" smooth="yes"/>
      <point x="1427" y="1185"/>
      <point x="1731" y="1021"/>
      <point x="1733" y="683" type="curve"/>
      <point x="1755" y="940" type="line"/>
      <point x="1699" y="1201"/>
      <point x="1439" y="1365"/>
      <point x="940" y="1365" type="curve" smooth="yes"/>
      <point x="402" y="1365"/>
      <point x="108" y="1169"/>
      <point x="108" y="808" type="curve" smooth="yes"/>
      <point x="108" y="785" type="line" smooth="yes"/>
      <point x="108" y="530"/>
      <point x="260" y="364"/>
    </contour>
    <contour>
      <point x="1039" y="-26" type="curve" smooth="yes"/>
      <point x="1368" y="-26"/>
      <point x="1542" y="106"/>
      <point x="1542" y="350" type="curve" smooth="yes"/>
      <point x="1542" y="367" type="line" smooth="yes"/>
      <point x="1542" y="609"/>
      <point x="1368" y="742"/>
      <point x="1042" y="742" type="curve" smooth="yes"/>
      <point x="761" y="742"/>
      <point x="604" y="636"/>
      <point x="555" y="451" type="curve"/>
      <point x="548" y="434" type="line"/>
      <point x="542" y="414"/>
      <point x="536" y="389"/>
      <point x="536" y="364" type="curve" smooth="yes"/>
      <point x="536" y="350" type="line" smooth="yes"/>
      <point x="536" y="106"/>
      <point x="712" y="-26"/>
    </contour>
    <contour>
      <point x="1039" y="140" type="curve" smooth="yes"/>
      <point x="848" y="140"/>
      <point x="747" y="213"/>
      <point x="747" y="351" type="curve" smooth="yes"/>
      <point x="747" y="366" type="line" smooth="yes"/>
      <point x="747" y="506"/>
      <point x="849" y="576"/>
      <point x="1039" y="576" type="curve" smooth="yes"/>
      <point x="1229" y="576"/>
      <point x="1331" y="505"/>
      <point x="1331" y="366" type="curve" smooth="yes"/>
      <point x="1331" y="351" type="line" smooth="yes"/>
      <point x="1331" y="213"/>
      <point x="1229" y="140"/>
    </contour>
    <contour>
      <point x="1733" y="651" type="line"/>
      <point x="1931" y="651" type="line"/>
      <point x="1931" y="1321" type="line"/>
      <point x="1733" y="1321" type="line"/>
      <point x="1739" y="1023" type="line"/>
      <point x="1707" y="1023" type="line"/>
      <point x="1733" y="861" type="line"/>
    </contour>
  </outline>
</glyph>
<glyph name="Ttha.or" format="2">
  <advance width="1932"/>
  <unicode hex="0B20"/>
  <anchor x="1133" y="55" name="bottom"/>
  <anchor x="966" y="53" name="nukta"/>
  <anchor x="966" y="1828" name="top1"/>
  <anchor x="1500" y="1427" name="top2"/>
  <outline>
    <contour>
      <point x="966" y="-30" type="curve" smooth="yes"/>
      <point x="1509" y="-30"/>
      <point x="1812" y="216"/>
      <point x="1812" y="656" type="curve" smooth="yes"/>
      <point x="1812" y="677" type="line" smooth="yes"/>
      <point x="1812" y="1116"/>
      <point x="1509" y="1361"/>
      <point x="966" y="1361" type="curve" smooth="yes"/>
      <point x="422" y="1361"/>
      <point x="120" y="1117"/>
      <point x="120" y="677" type="curve" smooth="yes"/>
      <point x="120" y="656" type="line" smooth="yes"/>
      <point x="120" y="216"/>
      <point x="422" y="-30"/>
    </contour>
    <contour>
      <point x="966" y="150" type="curve" smooth="yes"/>
      <point x="552" y="150"/>
      <point x="333" y="328"/>
      <point x="333" y="656" type="curve" smooth="yes"/>
      <point x="333" y="676" type="line" smooth="yes"/>
      <point x="333" y="1005"/>
      <point x="552" y="1181"/>
      <point x="966" y="1181" type="curve" smooth="yes"/>
      <point x="1377" y="1181"/>
      <point x="1599" y="1005"/>
      <point x="1599" y="676" type="curve" smooth="yes"/>
      <point x="1599" y="656" type="line" smooth="yes"/>
      <point x="1599" y="328"/>
      <point x="1377" y="150"/>
    </contour>
  </outline>
</glyph>
<glyph name="Dda.or" format="2">
  <advance width="2148"/>
  <unicode hex="0B21"/>
  <anchor x="1203" y="55" name="bottom"/>
  <anchor x="1059" y="53" name="nukta"/>
  <anchor x="1064" y="1828" name="top1"/>
  <anchor x="1677" y="1427" name="top2"/>
  <outline>
    <contour>
      <point x="553" y="300" type="curve"/>
      <point x="595" y="478" type="line"/>
      <point x="417" y="512"/>
      <point x="321" y="610"/>
      <point x="321" y="775" type="curve" smooth="yes"/>
      <point x="321" y="794" type="line" smooth="yes"/>
      <point x="321" y="1046"/>
      <point x="567" y="1185"/>
      <point x="1051" y="1185" type="curve" smooth="yes"/>
      <point x="1563" y="1185"/>
      <point x="1830" y="1015"/>
      <point x="1830" y="706" type="curve" smooth="yes"/>
      <point x="1830" y="689" type="line" smooth="yes"/>
      <point x="1830" y="588"/>
      <point x="1804" y="501"/>
      <point x="1758" y="416" type="curve"/>
      <point x="1972" y="437" type="line"/>
      <point x="2016" y="516"/>
      <point x="2042" y="605"/>
      <point x="2042" y="715" type="curve" smooth="yes"/>
      <point x="2042" y="731" type="line" smooth="yes"/>
      <point x="2042" y="1130"/>
      <point x="1686" y="1365"/>
      <point x="1052" y="1365" type="curve" smooth="yes"/>
      <point x="438" y="1365"/>
      <point x="108" y="1159"/>
      <point x="108" y="790" type="curve" smooth="yes"/>
      <point x="108" y="771" type="line" smooth="yes"/>
      <point x="108" y="513"/>
      <point x="260" y="355"/>
    </contour>
    <contour>
      <point x="1029" y="-26" type="curve" smooth="yes"/>
      <point x="1362" y="-26"/>
      <point x="1556" y="106"/>
      <point x="1556" y="300" type="curve" smooth="yes"/>
      <point x="1556" y="308" type="line" smooth="yes"/>
      <point x="1556" y="422"/>
      <point x="1506" y="488"/>
      <point x="1404" y="520" type="curve"/>
      <point x="1404" y="588" type="line"/>
      <point x="1259" y="493" type="line"/>
      <point x="1318" y="466"/>
      <point x="1350" y="414"/>
      <point x="1350" y="344" type="curve" smooth="yes"/>
      <point x="1350" y="335" type="line" smooth="yes"/>
      <point x="1350" y="218"/>
      <point x="1236" y="142"/>
      <point x="1031" y="142" type="curve" smooth="yes"/>
      <point x="812" y="142"/>
      <point x="697" y="236"/>
      <point x="697" y="375" type="curve"/>
      <point x="697" y="385" type="line"/>
      <point x="697" y="491"/>
      <point x="755" y="563"/>
      <point x="879" y="598" type="curve"/>
      <point x="879" y="779" type="line"/>
      <point x="679" y="736"/>
      <point x="540" y="631"/>
      <point x="503" y="461" type="curve"/>
      <point x="496" y="448" type="line"/>
      <point x="489" y="429"/>
      <point x="484" y="407"/>
      <point x="484" y="383" type="curve"/>
      <point x="484" y="371" type="line"/>
      <point x="484" y="119"/>
      <point x="670" y="-26"/>
    </contour>
    <contour>
      <point x="1034" y="364" type="line"/>
      <point x="1318" y="490" type="line"/>
      <point x="1365" y="509" type="line"/>
      <point x="1612" y="618" type="line"/>
      <point x="1612" y="797" type="line"/>
      <point x="1034" y="544" type="line"/>
    </contour>
  </outline>
</glyph>
<glyph name="Ddha.or" format="2">
  <advance width="2150"/>
  <unicode hex="0B22"/>
  <anchor x="1210" y="55" name="bottom"/>
  <anchor x="1064" y="53" name="nukta"/>
  <anchor x="1064" y="1828" name="top1"/>
  <anchor x="1677" y="1427" name="top2"/>
  <outline>
    <contour>
      <point x="553" y="300" type="curve"/>
      <point x="595" y="478" type="line"/>
      <point x="417" y="512"/>
      <point x="321" y="610"/>
      <point x="321" y="775" type="curve" smooth="yes"/>
      <point x="321" y="794" type="line" smooth="yes"/>
      <point x="321" y="1046"/>
      <point x="567" y="1185"/>
      <point x="1052" y="1185" type="curve" smooth="yes"/>
      <point x="1565" y="1185"/>
      <point x="1832" y="1015"/>
      <point x="1832" y="706" type="curve" smooth="yes"/>
      <point x="1832" y="689" type="line" smooth="yes"/>
      <point x="1832" y="588"/>
      <point x="1806" y="501"/>
      <point x="1760" y="416" type="curve"/>
      <point x="1974" y="437" type="line"/>
      <point x="2018" y="516"/>
      <point x="2044" y="605"/>
      <point x="2044" y="715" type="curve" smooth="yes"/>
      <point x="2044" y="731" type="line" smooth="yes"/>
      <point x="2044" y="1130"/>
      <point x="1688" y="1365"/>
      <point x="1053" y="1365" type="curve" smooth="yes"/>
      <point x="438" y="1365"/>
      <point x="108" y="1159"/>
      <point x="108" y="790" type="curve" smooth="yes"/>
      <point x="108" y="771" type="line" smooth="yes"/>
      <point x="108" y="513"/>
      <point x="260" y="355"/>
    </contour>
    <contour>
      <point x="1716" y="-90" type="curve"/>
      <point x="1716" y="81" type="line"/>
      <point x="1609" y="93"/>
      <point x="1501" y="107"/>
      <point x="1408" y="132" type="curve"/>
      <point x="1235" y="46" type="line"/>
      <point x="1376" y="-22"/>
      <point x="1545" y="-71"/>
    </contour>
    <contour>
      <point x="1042" y="-26" type="curve" smooth="yes"/>
      <point x="1157" y="-26"/>
      <point x="1272" y="-6"/>
      <point x="1350" y="28" type="curve"/>
      <point x="1428" y="88" type="line"/>
      <point x="1562" y="149"/>
      <point x="1631" y="255"/>
      <point x="1631" y="388" type="curve" smooth="yes"/>
      <point x="1631" y="399" type="line" smooth="yes"/>
      <point x="1631" y="578"/>
      <point x="1514" y="702"/>
      <point x="1277" y="702" type="curve" smooth="yes"/>
      <point x="1045" y="702"/>
      <point x="919" y="578"/>
      <point x="919" y="404" type="curve" smooth="yes"/>
      <point x="919" y="395" type="line" smooth="yes"/>
      <point x="919" y="253"/>
      <point x="1013" y="155"/>
      <point x="1161" y="111" type="curve"/>
      <point x="1331" y="159" type="line"/>
      <point x="1201" y="189"/>
      <point x="1115" y="274"/>
      <point x="1115" y="383" type="curve" smooth="yes"/>
      <point x="1115" y="390" type="line" smooth="yes"/>
      <point x="1115" y="487"/>
      <point x="1171" y="540"/>
      <point x="1272" y="540" type="curve" smooth="yes"/>
      <point x="1381" y="540"/>
      <point x="1431" y="480"/>
      <point x="1431" y="389" type="curve" smooth="yes"/>
      <point x="1431" y="382" type="line" smooth="yes"/>
      <point x="1431" y="282"/>
      <point x="1371" y="200"/>
      <point x="1245" y="164" type="curve"/>
      <point x="1188" y="150" type="line"/>
      <point x="1145" y="139"/>
      <point x="1109" y="136"/>
      <point x="1046" y="136" type="curve" smooth="yes"/>
      <point x="798" y="136"/>
      <point x="674" y="240"/>
      <point x="674" y="388" type="curve" smooth="yes"/>
      <point x="674" y="397" type="line" smooth="yes"/>
      <point x="674" y="502"/>
      <point x="724" y="574"/>
      <point x="829" y="614" type="curve"/>
      <point x="829" y="789" type="line"/>
      <point x="647" y="745"/>
      <point x="519" y="639"/>
      <point x="484" y="469" type="curve"/>
      <point x="477" y="456" type="line"/>
      <point x="470" y="437"/>
      <point x="465" y="414"/>
      <point x="465" y="391" type="curve" smooth="yes"/>
      <point x="465" y="379" type="line" smooth="yes"/>
      <point x="465" y="122"/>
      <point x="658" y="-26"/>
    </contour>
  </outline>
</glyph>
<glyph name="Nna.or" format="2">
  <advance width="2053"/>
  <unicode hex="0B23"/>
  <anchor x="1867" y="55" name="bottom"/>
  <anchor x="1066" y="53" name="nukta"/>
  <anchor x="1066" y="1828" name="top1"/>
  <anchor x="1746" y="1427" name="top2"/>
  <outline>
    <contour>
      <point x="1867" y="0" type="line"/>
      <point x="1867" y="1321" type="line"/>
      <point x="1667" y="1321" type="line"/>
      <point x="1673" y="1085" type="line"/>
      <point x="1641" y="1085" type="line"/>
      <point x="1667" y="987" type="line"/>
      <point x="1667" y="0" type="line"/>
    </contour>
    <contour>
      <point x="1110" y="1366" type="curve" smooth="yes"/>
      <point x="770" y="1366"/>
      <point x="594" y="1237"/>
      <point x="594" y="1015" type="curve" smooth="yes"/>
      <point x="594" y="979"/>
      <point x="602" y="939"/>
      <point x="617" y="909" type="curve"/>
      <point x="820" y="966" type="line"/>
      <point x="811" y="979"/>
      <point x="806" y="995"/>
      <point x="806" y="1015" type="curve" smooth="yes"/>
      <point x="806" y="1134"/>
      <point x="909" y="1200"/>
      <point x="1139" y="1200" type="curve" smooth="yes"/>
      <point x="1453" y="1200"/>
      <point x="1648" y="1054"/>
      <point x="1667" y="788" type="curve"/>
      <point x="1710" y="809" type="line"/>
      <point x="1679" y="1002" type="line"/>
      <point x="1655" y="1235"/>
      <point x="1463" y="1366"/>
    </contour>
    <contour>
      <point x="1227" y="773" type="curve"/>
      <point x="1215" y="945" type="line"/>
      <point x="1119" y="984"/>
      <point x="971" y="1022"/>
      <point x="783" y="1030" type="curve"/>
      <point x="649" y="1028" type="line"/>
      <point x="305" y="1001"/>
      <point x="107" y="795"/>
      <point x="107" y="498" type="curve" smooth="yes"/>
      <point x="107" y="481" type="line" smooth="yes"/>
      <point x="107" y="157"/>
      <point x="369" y="-31"/>
      <point x="788" y="-31" type="curve" smooth="yes"/>
      <point x="1166" y="-31"/>
      <point x="1343" y="95"/>
      <point x="1343" y="315" type="curve" smooth="yes"/>
      <point x="1343" y="330" type="line" smooth="yes"/>
      <point x="1343" y="547"/>
      <point x="1188" y="675"/>
      <point x="857" y="675" type="curve" smooth="yes"/>
      <point x="582" y="675"/>
      <point x="418" y="578"/>
      <point x="329" y="420" type="curve"/>
      <point x="304" y="420" type="line"/>
      <point x="336" y="219" type="line"/>
      <point x="390" y="379"/>
      <point x="548" y="503"/>
      <point x="825" y="503" type="curve" smooth="yes"/>
      <point x="1032" y="503"/>
      <point x="1133" y="445"/>
      <point x="1133" y="328" type="curve" smooth="yes"/>
      <point x="1133" y="319" type="line" smooth="yes"/>
      <point x="1133" y="207"/>
      <point x="1028" y="141"/>
      <point x="791" y="141" type="curve" smooth="yes"/>
      <point x="502" y="141"/>
      <point x="316" y="265"/>
      <point x="316" y="487" type="curve"/>
      <point x="316" y="492" type="line"/>
      <point x="316" y="497" type="line"/>
      <point x="316" y="501" type="line"/>
      <point x="316" y="739"/>
      <point x="473" y="861"/>
      <point x="773" y="861" type="curve" smooth="yes"/>
      <point x="957" y="861"/>
      <point x="1102" y="825"/>
    </contour>
  </outline>
</glyph>
<glyph name="Ta.or" format="2">
  <advance width="2150"/>
  <unicode hex="0B24"/>
  <anchor x="1227" y="55" name="bottom"/>
  <anchor x="1055" y="53" name="nukta"/>
  <anchor x="1055" y="1828" name="top1"/>
  <anchor x="1666" y="1427" name="top2"/>
  <outline>
    <contour>
      <point x="553" y="300" type="curve"/>
      <point x="595" y="478" type="line"/>
      <point x="417" y="512"/>
      <point x="321" y="610"/>
      <point x="321" y="775" type="curve" smooth="yes"/>
      <point x="321" y="794" type="line" smooth="yes"/>
      <point x="321" y="1046"/>
      <point x="567" y="1185"/>
      <point x="1052" y="1185" type="curve" smooth="yes"/>
      <point x="1565" y="1185"/>
      <point x="1832" y="1015"/>
      <point x="1832" y="706" type="curve" smooth="yes"/>
      <point x="1832" y="689" type="line" smooth="yes"/>
      <point x="1832" y="588"/>
      <point x="1806" y="501"/>
      <point x="1760" y="416" type="curve"/>
      <point x="1974" y="437" type="line"/>
      <point x="2018" y="516"/>
      <point x="2044" y="605"/>
      <point x="2044" y="715" type="curve" smooth="yes"/>
      <point x="2044" y="731" type="line" smooth="yes"/>
      <point x="2044" y="1130"/>
      <point x="1688" y="1365"/>
      <point x="1053" y="1365" type="curve" smooth="yes"/>
      <point x="438" y="1365"/>
      <point x="108" y="1159"/>
      <point x="108" y="790" type="curve" smooth="yes"/>
      <point x="108" y="771" type="line" smooth="yes"/>
      <point x="108" y="513"/>
      <point x="260" y="355"/>
    </contour>
    <contour>
      <point x="1045" y="-26" type="curve" smooth="yes"/>
      <point x="1387" y="-26"/>
      <point x="1585" y="123"/>
      <point x="1585" y="364" type="curve" smooth="yes"/>
      <point x="1585" y="375" type="line" smooth="yes"/>
      <point x="1585" y="566"/>
      <point x="1480" y="683"/>
      <point x="1306" y="683" type="curve" smooth="yes"/>
      <point x="1196" y="683"/>
      <point x="1139" y="639"/>
      <point x="1139" y="556" type="curve" smooth="yes"/>
      <point x="1139" y="550" type="line" smooth="yes"/>
      <point x="1139" y="471"/>
      <point x="1196" y="429"/>
      <point x="1302" y="429" type="curve" smooth="yes"/>
      <point x="1387" y="429"/>
      <point x="1438" y="465"/>
      <point x="1438" y="537" type="curve" smooth="yes"/>
      <point x="1438" y="542" type="line" smooth="yes"/>
      <point x="1438" y="595"/>
      <point x="1398" y="626"/>
      <point x="1333" y="629" type="curve"/>
      <point x="1207" y="552" type="line"/>
      <point x="1229" y="553"/>
      <point x="1228" y="554"/>
      <point x="1251" y="554" type="curve"/>
      <point x="1323" y="554"/>
      <point x="1375" y="479"/>
      <point x="1375" y="375" type="curve" smooth="yes"/>
      <point x="1375" y="366" type="line" smooth="yes"/>
      <point x="1375" y="231"/>
      <point x="1253" y="142"/>
      <point x="1045" y="142" type="curve" smooth="yes"/>
      <point x="825" y="142"/>
      <point x="712" y="236"/>
      <point x="712" y="374" type="curve" smooth="yes"/>
      <point x="712" y="387" type="line" smooth="yes"/>
      <point x="712" y="491"/>
      <point x="770" y="563"/>
      <point x="894" y="598" type="curve"/>
      <point x="894" y="779" type="line"/>
      <point x="694" y="736"/>
      <point x="555" y="631"/>
      <point x="518" y="461" type="curve"/>
      <point x="499" y="407" type="line"/>
      <point x="499" y="373" type="line" smooth="yes"/>
      <point x="499" y="119"/>
      <point x="683" y="-26"/>
    </contour>
  </outline>
</glyph>
<glyph name="Tha.or" format="2">
  <advance width="2017"/>
  <unicode hex="0B25"/>
  <anchor x="1831" y="55" name="bottom"/>
  <anchor x="1024" y="53" name="nukta"/>
  <anchor x="1024" y="1828" name="top1"/>
  <anchor x="1710" y="1427" name="top2"/>
  <outline>
    <contour>
      <point x="814" y="-26" type="curve" smooth="yes"/>
      <point x="1290" y="-26"/>
      <point x="1525" y="110"/>
      <point x="1629" y="280" type="curve"/>
      <point x="1741" y="280" type="line"/>
      <point x="1645" y="466" type="line"/>
      <point x="1525" y="275"/>
      <point x="1268" y="156"/>
      <point x="837" y="156" type="curve" smooth="yes"/>
      <point x="485" y="156"/>
      <point x="325" y="212"/>
      <point x="325" y="354" type="curve" smooth="yes"/>
      <point x="325" y="365" type="line" smooth="yes"/>
      <point x="325" y="479"/>
      <point x="394" y="519"/>
      <point x="611" y="552" type="curve" smooth="yes"/>
      <point x="836" y="586" type="line" smooth="yes"/>
      <point x="1228" y="645"/>
      <point x="1349" y="774"/>
      <point x="1349" y="989" type="curve" smooth="yes"/>
      <point x="1349" y="1001" type="line" smooth="yes"/>
      <point x="1349" y="1237"/>
      <point x="1196" y="1365"/>
      <point x="891" y="1365" type="curve" smooth="yes"/>
      <point x="592" y="1365"/>
      <point x="429" y="1246"/>
      <point x="429" y="1037" type="curve" smooth="yes"/>
      <point x="429" y="1024" type="line" smooth="yes"/>
      <point x="429" y="967"/>
      <point x="446" y="915"/>
      <point x="473" y="868" type="curve"/>
      <point x="678" y="856" type="line"/>
      <point x="650" y="908"/>
      <point x="635" y="954"/>
      <point x="635" y="1003" type="curve" smooth="yes"/>
      <point x="635" y="1016" type="line" smooth="yes"/>
      <point x="635" y="1136"/>
      <point x="720" y="1200"/>
      <point x="887" y="1200" type="curve" smooth="yes"/>
      <point x="1055" y="1200"/>
      <point x="1143" y="1132"/>
      <point x="1143" y="1004" type="curve" smooth="yes"/>
      <point x="1143" y="992" type="line" smooth="yes"/>
      <point x="1143" y="855"/>
      <point x="1064" y="781"/>
      <point x="800" y="743" type="curve" smooth="yes"/>
      <point x="563" y="709" type="line" smooth="yes"/>
      <point x="229" y="661"/>
      <point x="104" y="573"/>
      <point x="104" y="362" type="curve" smooth="yes"/>
      <point x="104" y="346" type="line" smooth="yes"/>
      <point x="104" y="90"/>
      <point x="335" y="-26"/>
    </contour>
    <contour>
      <point x="1631" y="0" type="line"/>
      <point x="1831" y="0" type="line"/>
      <point x="1831" y="1321" type="line"/>
      <point x="1631" y="1321" type="line"/>
      <point x="1631" y="366" type="line"/>
      <point x="1638" y="335" type="line"/>
    </contour>
  </outline>
</glyph>
<glyph name="Dha.or" format="2">
  <advance width="1865"/>
  <unicode hex="0B27"/>
  <anchor x="1679" y="55" name="bottom"/>
  <anchor x="945" y="53" name="nukta"/>
  <anchor x="885" y="1828" name="top1"/>
  <anchor x="1559" y="1427" name="top2"/>
  <outline>
    <contour>
      <point x="791" y="-25" type="curve" smooth="yes"/>
      <point x="1199" y="-25"/>
      <point x="1391" y="107"/>
      <point x="1477" y="273" type="curve"/>
      <point x="1587" y="273" type="line"/>
      <point x="1490" y="468" type="line"/>
      <point x="1393" y="274"/>
      <point x="1180" y="152"/>
      <point x="832" y="152" type="curve" smooth="yes"/>
      <point x="499" y="152"/>
      <point x="334" y="253"/>
      <point x="334" y="469" type="curve" smooth="yes"/>
      <point x="334" y="478" type="line" smooth="yes"/>
      <point x="334" y="670"/>
      <point x="468" y="786"/>
      <point x="780" y="788" type="curve" smooth="yes"/>
      <point x="832" y="788"/>
      <point x="881" y="782"/>
      <point x="920" y="776" type="curve"/>
      <point x="829" y="918" type="line"/>
      <point x="782" y="932"/>
      <point x="732" y="934"/>
      <point x="684" y="934" type="curve" smooth="yes"/>
      <point x="349" y="932"/>
      <point x="120" y="770"/>
      <point x="120" y="473" type="curve" smooth="yes"/>
      <point x="120" y="462" type="line" smooth="yes"/>
      <point x="120" y="148"/>
      <point x="350" y="-25"/>
    </contour>
    <contour>
      <point x="399" y="1321" type="line"/>
      <point x="109" y="1321" type="line"/>
      <point x="109" y="1313" type="line"/>
      <point x="693" y="896" type="line"/>
      <point x="790" y="822" type="line"/>
      <point x="1156" y="571" type="line"/>
      <point x="1164" y="571" type="line"/>
      <point x="1164" y="778" type="line"/>
    </contour>
    <contour>
      <point x="1479" y="0" type="line"/>
      <point x="1679" y="0" type="line"/>
      <point x="1679" y="1321" type="line"/>
      <point x="1479" y="1321" type="line"/>
      <point x="1479" y="372" type="line"/>
      <point x="1466" y="359" type="line"/>
      <point x="1486" y="328" type="line"/>
    </contour>
  </outline>
</glyph>
<glyph name="Na.or" format="2">
  <advance width="2058"/>
  <unicode hex="0B28"/>
  <anchor x="1391" y="55" name="bottom"/>
  <anchor x="1007" y="53" name="nukta"/>
  <anchor x="1012" y="1828" name="top1"/>
  <anchor x="1600" y="1427" name="top2"/>
  <outline>
    <contour>
      <point x="329" y="0" type="line"/>
      <point x="607" y="0" type="line"/>
      <point x="903" y="295" type="line" smooth="yes"/>
      <point x="986" y="378"/>
      <point x="1082" y="476"/>
      <point x="1167" y="562" type="curve"/>
      <point x="1196" y="562" type="line"/>
      <point x="1193" y="486"/>
      <point x="1189" y="389"/>
      <point x="1189" y="317" type="curve" smooth="yes"/>
      <point x="1189" y="0" type="line"/>
      <point x="1391" y="0" type="line"/>
      <point x="1391" y="712" type="line"/>
      <point x="1084" y="712" type="line"/>
      <point x="765" y="417" type="line"/>
      <point x="700" y="354" type="line"/>
    </contour>
    <contour>
      <point x="715" y="304" type="curve"/>
      <point x="837" y="450" type="line"/>
      <point x="505" y="474"/>
      <point x="321" y="586"/>
      <point x="321" y="787" type="curve" smooth="yes"/>
      <point x="321" y="806" type="line" smooth="yes"/>
      <point x="321" y="1053"/>
      <point x="551" y="1185"/>
      <point x="1001" y="1185" type="curve" smooth="yes"/>
      <point x="1487" y="1185"/>
      <point x="1740" y="1018"/>
      <point x="1740" y="706" type="curve" smooth="yes"/>
      <point x="1740" y="689" type="line" smooth="yes"/>
      <point x="1740" y="588"/>
      <point x="1714" y="501"/>
      <point x="1668" y="416" type="curve"/>
      <point x="1882" y="437" type="line"/>
      <point x="1926" y="516"/>
      <point x="1952" y="605"/>
      <point x="1952" y="715" type="curve" smooth="yes"/>
      <point x="1952" y="731" type="line" smooth="yes"/>
      <point x="1952" y="1135"/>
      <point x="1611" y="1365"/>
      <point x="1002" y="1365" type="curve" smooth="yes"/>
      <point x="420" y="1365"/>
      <point x="108" y="1166"/>
      <point x="108" y="803" type="curve" smooth="yes"/>
      <point x="108" y="785" type="line" smooth="yes"/>
      <point x="108" y="500"/>
      <point x="321" y="337"/>
    </contour>
  </outline>
</glyph>
<glyph name="Pha.or" format="2">
  <advance width="2459"/>
  <unicode hex="0B2B"/>
  <anchor x="1834" y="55" name="bottom"/>
  <anchor x="1112" y="53" name="nukta"/>
  <anchor x="972" y="1828" name="top1"/>
  <anchor x="1714" y="1427" name="top2"/>
  <anchor x="1834" y="1395" name="top3"/>
  <outline>
    <contour>
      <point x="492" y="405" type="curve"/>
      <point x="557" y="573" type="line"/>
      <point x="406" y="604"/>
      <point x="321" y="696"/>
      <point x="321" y="835" type="curve" smooth="yes"/>
      <point x="321" y="854" type="line" smooth="yes"/>
      <point x="321" y="1068"/>
      <point x="514" y="1185"/>
      <point x="912" y="1185" type="curve" smooth="yes"/>
      <point x="1350" y="1185"/>
      <point x="1633" y="1020"/>
      <point x="1635" y="680" type="curve"/>
      <point x="1749" y="680" type="line"/>
      <point x="1656" y="940" type="line"/>
      <point x="1603" y="1201"/>
      <point x="1358" y="1365"/>
      <point x="890" y="1365" type="curve" smooth="yes"/>
      <point x="384" y="1365"/>
      <point x="108" y="1186"/>
      <point x="108" y="856" type="curve" smooth="yes"/>
      <point x="108" y="835" type="line" smooth="yes"/>
      <point x="108" y="602"/>
      <point x="250" y="457"/>
    </contour>
    <contour>
      <point x="1016" y="-26" type="curve" smooth="yes"/>
      <point x="1381" y="-26"/>
      <point x="1555" y="104"/>
      <point x="1632" y="266" type="curve"/>
      <point x="1742" y="266" type="line"/>
      <point x="1646" y="455" type="line"/>
      <point x="1559" y="265"/>
      <point x="1368" y="146"/>
      <point x="1054" y="146" type="curve" smooth="yes"/>
      <point x="772" y="146"/>
      <point x="641" y="217"/>
      <point x="641" y="369" type="curve" smooth="yes"/>
      <point x="641" y="377" type="line" smooth="yes"/>
      <point x="641" y="519"/>
      <point x="759" y="593"/>
      <point x="1017" y="596" type="curve"/>
      <point x="1017" y="768" type="line"/>
      <point x="750" y="765"/>
      <point x="571" y="697"/>
      <point x="482" y="546" type="curve"/>
      <point x="459" y="505" type="line"/>
      <point x="442" y="467"/>
      <point x="430" y="425"/>
      <point x="430" y="371" type="curve" smooth="yes"/>
      <point x="430" y="363" type="line" smooth="yes"/>
      <point x="430" y="112"/>
      <point x="621" y="-26"/>
    </contour>
    <contour>
      <point x="1634" y="0" type="line"/>
      <point x="1834" y="0" type="line"/>
      <point x="1834" y="1321" type="line"/>
      <point x="1634" y="1321" type="line"/>
      <point x="1640" y="1023" type="line"/>
      <point x="1608" y="1023" type="line"/>
      <point x="1635" y="861" type="line"/>
      <point x="1635" y="356" type="line"/>
      <point x="1641" y="321" type="line"/>
    </contour>
    <contour>
      <point x="2035" y="737" type="curve" smooth="yes"/>
      <point x="1909" y="737"/>
      <point x="1834" y="788"/>
      <point x="1834" y="893" type="curve" smooth="yes"/>
      <point x="1834" y="899" type="line" smooth="yes"/>
      <point x="1834" y="1003"/>
      <point x="1909" y="1054"/>
      <point x="2035" y="1054" type="curve" smooth="yes"/>
      <point x="2157" y="1054"/>
      <point x="2227" y="1003"/>
      <point x="2227" y="900" type="curve" smooth="yes"/>
      <point x="2227" y="892" type="line" smooth="yes"/>
      <point x="2227" y="790"/>
      <point x="2157" y="737"/>
    </contour>
    <contour>
      <point x="2077" y="591" type="curve" smooth="yes"/>
      <point x="2293" y="591"/>
      <point x="2409" y="702"/>
      <point x="2409" y="891" type="curve" smooth="yes"/>
      <point x="2409" y="903" type="line" smooth="yes"/>
      <point x="2409" y="1093"/>
      <point x="2293" y="1200"/>
      <point x="2081" y="1200" type="curve" smooth="yes"/>
      <point x="1909" y="1200"/>
      <point x="1805" y="1126"/>
      <point x="1781" y="977" type="curve"/>
      <point x="1781" y="795" type="line"/>
      <point x="1803" y="666"/>
      <point x="1900" y="591"/>
    </contour>
  </outline>
</glyph>
<glyph name="Bha.or" format="2">
  <advance width="2197"/>
  <unicode hex="0B2D"/>
  <anchor x="1230" y="55" name="bottom"/>
  <anchor x="1056" y="53" name="nukta"/>
  <anchor x="1056" y="1828" name="top1"/>
  <anchor x="1724" y="1427" name="top2"/>
  <outline>
    <contour>
      <point x="2263" y="-206" type="line"/>
      <point x="2263" y="-6" type="line"/>
      <point x="1868" y="122" type="line"/>
      <point x="1911" y="72" type="line"/>
      <point x="2020" y="182"/>
      <point x="2089" y="354"/>
      <point x="2089" y="563" type="curve" smooth="yes"/>
      <point x="2089" y="588" type="line" smooth="yes"/>
      <point x="2089" y="1085"/>
      <point x="1707" y="1365"/>
      <point x="1039" y="1365" type="curve" smooth="yes"/>
      <point x="433" y="1365"/>
      <point x="108" y="1155"/>
      <point x="108" y="786" type="curve" smooth="yes"/>
      <point x="108" y="765" type="line" smooth="yes"/>
      <point x="108" y="531"/>
      <point x="241" y="375"/>
      <point x="494" y="314" type="curve"/>
      <point x="546" y="485" type="line"/>
      <point x="403" y="523"/>
      <point x="321" y="622"/>
      <point x="321" y="766" type="curve" smooth="yes"/>
      <point x="321" y="782" type="line" smooth="yes"/>
      <point x="321" y="1039"/>
      <point x="560" y="1185"/>
      <point x="1039" y="1185" type="curve" smooth="yes"/>
      <point x="1581" y="1185"/>
      <point x="1877" y="975"/>
      <point x="1877" y="556" type="curve" smooth="yes"/>
      <point x="1877" y="529" type="line" smooth="yes"/>
      <point x="1877" y="330"/>
      <point x="1803" y="159"/>
      <point x="1703" y="26" type="curve"/>
    </contour>
    <contour>
      <point x="1021" y="-27" type="curve" smooth="yes"/>
      <point x="1385" y="-27"/>
      <point x="1583" y="144"/>
      <point x="1583" y="431" type="curve" smooth="yes"/>
      <point x="1583" y="443" type="line" smooth="yes"/>
      <point x="1583" y="522"/>
      <point x="1562" y="617"/>
      <point x="1536" y="695" type="curve"/>
      <point x="1348" y="695" type="line"/>
      <point x="1368" y="620"/>
      <point x="1382" y="563"/>
      <point x="1382" y="488" type="curve"/>
      <point x="1385" y="451" type="line"/>
      <point x="1388" y="432" type="line"/>
      <point x="1388" y="242"/>
      <point x="1262" y="138"/>
      <point x="1021" y="138" type="curve" smooth="yes"/>
      <point x="778" y="138"/>
      <point x="646" y="253"/>
      <point x="646" y="448" type="curve" smooth="yes"/>
      <point x="646" y="463" type="line" smooth="yes"/>
      <point x="646" y="572"/>
      <point x="676" y="658"/>
      <point x="719" y="744" type="curve"/>
      <point x="522" y="744" type="line"/>
      <point x="482" y="673"/>
      <point x="444" y="574"/>
      <point x="438" y="460" type="curve"/>
      <point x="435" y="432" type="line"/>
      <point x="435" y="417" type="line"/>
      <point x="435" y="136"/>
      <point x="639" y="-27"/>
    </contour>
    <contour>
      <point x="1148" y="259" type="curve" smooth="yes"/>
      <point x="1279" y="259"/>
      <point x="1346" y="306"/>
      <point x="1376" y="380" type="curve"/>
      <point x="1480" y="380" type="line"/>
      <point x="1383" y="552" type="line"/>
      <point x="1376" y="465"/>
      <point x="1315" y="406"/>
      <point x="1222" y="406" type="curve" smooth="yes"/>
      <point x="1112" y="406"/>
      <point x="1065" y="460"/>
      <point x="1065" y="559" type="curve" smooth="yes"/>
      <point x="1065" y="565" type="line" smooth="yes"/>
      <point x="1065" y="607"/>
      <point x="1077" y="656"/>
      <point x="1091" y="695" type="curve"/>
      <point x="906" y="695" type="line"/>
      <point x="884" y="645"/>
      <point x="868" y="582"/>
      <point x="868" y="524" type="curve" smooth="yes"/>
      <point x="868" y="515" type="line" smooth="yes"/>
      <point x="868" y="351"/>
      <point x="968" y="259"/>
    </contour>
  </outline>
</glyph>
<glyph name="Ya.or" format="2">
  <advance width="2066"/>
  <unicode hex="0B2F"/>
  <anchor x="1880" y="55" name="bottom"/>
  <anchor x="1117" y="53" name="nukta"/>
  <anchor x="986" y="1828" name="top1"/>
  <anchor x="1759" y="1427" name="top2"/>
  <outline>
    <contour>
      <point x="0" y="244" type="line"/>
      <point x="532" y="427" type="line"/>
      <point x="688" y="481" type="line"/>
      <point x="1077" y="613" type="line"/>
      <point x="1077" y="785" type="line"/>
      <point x="535" y="602" type="line"/>
      <point x="415" y="560" type="line"/>
      <point x="0" y="421" type="line"/>
    </contour>
    <contour>
      <point x="1680" y="0" type="line"/>
      <point x="1880" y="0" type="line"/>
      <point x="1880" y="1321" type="line"/>
      <point x="1680" y="1321" type="line"/>
      <point x="1686" y="1023" type="line"/>
      <point x="1654" y="1023" type="line"/>
      <point x="1681" y="861" type="line"/>
      <point x="1681" y="356" type="line"/>
      <point x="1687" y="321" type="line"/>
    </contour>
    <contour>
      <point x="503" y="485" type="curve"/>
      <point x="605" y="617" type="line"/>
      <point x="450" y="647"/>
      <point x="367" y="736"/>
      <point x="367" y="865" type="curve" smooth="yes"/>
      <point x="367" y="876" type="line" smooth="yes"/>
      <point x="367" y="1076"/>
      <point x="560" y="1185"/>
      <point x="958" y="1185" type="curve" smooth="yes"/>
      <point x="1396" y="1185"/>
      <point x="1679" y="1020"/>
      <point x="1681" y="680" type="curve"/>
      <point x="1795" y="680" type="line"/>
      <point x="1702" y="940" type="line"/>
      <point x="1649" y="1201"/>
      <point x="1404" y="1365"/>
      <point x="935" y="1365" type="curve" smooth="yes"/>
      <point x="431" y="1365"/>
      <point x="154" y="1193"/>
      <point x="154" y="878" type="curve" smooth="yes"/>
      <point x="154" y="865" type="line" smooth="yes"/>
      <point x="154" y="659"/>
      <point x="284" y="528"/>
    </contour>
    <contour>
      <point x="1063" y="-26" type="curve" smooth="yes"/>
      <point x="1427" y="-26"/>
      <point x="1601" y="104"/>
      <point x="1678" y="266" type="curve"/>
      <point x="1788" y="266" type="line"/>
      <point x="1692" y="455" type="line"/>
      <point x="1605" y="265"/>
      <point x="1414" y="146"/>
      <point x="1100" y="146" type="curve" smooth="yes"/>
      <point x="803" y="146"/>
      <point x="680" y="222"/>
      <point x="680" y="366" type="curve"/>
      <point x="680" y="369" type="line"/>
      <point x="680" y="421"/>
      <point x="701" y="482"/>
      <point x="753" y="510" type="curve"/>
      <point x="533" y="494" type="line"/>
      <point x="486" y="450"/>
      <point x="469" y="396"/>
      <point x="469" y="346" type="curve" smooth="yes"/>
      <point x="469" y="342" type="line" smooth="yes"/>
      <point x="469" y="110"/>
      <point x="663" y="-26"/>
    </contour>
  </outline>
</glyph>
<glyph name="Ra.or" format="2">
  <advance width="2109"/>
  <unicode hex="0B30"/>
  <anchor x="1108" y="55" name="bottom"/>
  <anchor x="1052" y="53" name="nukta"/>
  <anchor x="994" y="1828" name="top1"/>
  <anchor x="1607" y="1427" name="top2"/>
  <outline>
    <contour>
      <point x="2151" y="-206" type="line"/>
      <point x="2151" y="-6" type="line"/>
      <point x="1756" y="122" type="line"/>
      <point x="1801" y="72" type="line"/>
      <point x="1909" y="184"/>
      <point x="1977" y="356"/>
      <point x="1977" y="566" type="curve" smooth="yes"/>
      <point x="1977" y="589" type="line" smooth="yes"/>
      <point x="1977" y="1086"/>
      <point x="1617" y="1365"/>
      <point x="983" y="1365" type="curve" smooth="yes"/>
      <point x="416" y="1365"/>
      <point x="108" y="1159"/>
      <point x="108" y="797" type="curve" smooth="yes"/>
      <point x="108" y="776" type="line" smooth="yes"/>
      <point x="108" y="545"/>
      <point x="238" y="391"/>
      <point x="485" y="331" type="curve"/>
      <point x="536" y="501" type="line"/>
      <point x="399" y="539"/>
      <point x="321" y="635"/>
      <point x="321" y="777" type="curve" smooth="yes"/>
      <point x="321" y="793" type="line" smooth="yes"/>
      <point x="321" y="1043"/>
      <point x="541" y="1185"/>
      <point x="983" y="1185" type="curve" smooth="yes"/>
      <point x="1490" y="1185"/>
      <point x="1765" y="976"/>
      <point x="1765" y="557" type="curve" smooth="yes"/>
      <point x="1765" y="532" type="line" smooth="yes"/>
      <point x="1765" y="332"/>
      <point x="1691" y="159"/>
      <point x="1591" y="26" type="curve"/>
    </contour>
    <contour>
      <point x="941" y="-26" type="curve" smooth="yes"/>
      <point x="1270" y="-26"/>
      <point x="1444" y="106"/>
      <point x="1444" y="350" type="curve" smooth="yes"/>
      <point x="1444" y="367" type="line" smooth="yes"/>
      <point x="1444" y="609"/>
      <point x="1270" y="742"/>
      <point x="944" y="742" type="curve" smooth="yes"/>
      <point x="663" y="742"/>
      <point x="506" y="636"/>
      <point x="457" y="451" type="curve"/>
      <point x="450" y="434" type="line"/>
      <point x="444" y="414"/>
      <point x="438" y="389"/>
      <point x="438" y="364" type="curve" smooth="yes"/>
      <point x="438" y="350" type="line" smooth="yes"/>
      <point x="438" y="106"/>
      <point x="614" y="-26"/>
    </contour>
    <contour>
      <point x="941" y="140" type="curve" smooth="yes"/>
      <point x="750" y="140"/>
      <point x="649" y="213"/>
      <point x="649" y="351" type="curve" smooth="yes"/>
      <point x="649" y="366" type="line" smooth="yes"/>
      <point x="649" y="506"/>
      <point x="751" y="576"/>
      <point x="941" y="576" type="curve" smooth="yes"/>
      <point x="1131" y="576"/>
      <point x="1233" y="505"/>
      <point x="1233" y="366" type="curve" smooth="yes"/>
      <point x="1233" y="351" type="line" smooth="yes"/>
      <point x="1233" y="213"/>
      <point x="1131" y="140"/>
    </contour>
  </outline>
</glyph>
<glyph name="Va.or" format="2">
  <advance width="2082"/>
  <unicode hex="0B35"/>
  <anchor x="1506" y="55" name="bottom"/>
  <anchor x="1040" y="53" name="nukta"/>
  <anchor x="1040" y="1828" name="top1"/>
  <anchor x="1637" y="1427" name="top2"/>
  <outline>
    <contour>
      <point x="584" y="309" type="curve"/>
      <point x="616" y="487" type="line"/>
      <point x="421" y="521"/>
      <point x="321" y="617"/>
      <point x="321" y="779" type="curve" smooth="yes"/>
      <point x="321" y="797" type="line" smooth="yes"/>
      <point x="321" y="1048"/>
      <point x="556" y="1185"/>
      <point x="1018" y="1185" type="curve" smooth="yes"/>
      <point x="1509" y="1185"/>
      <point x="1764" y="1015"/>
      <point x="1764" y="706" type="curve" smooth="yes"/>
      <point x="1764" y="689" type="line" smooth="yes"/>
      <point x="1764" y="588"/>
      <point x="1738" y="501"/>
      <point x="1692" y="416" type="curve"/>
      <point x="1906" y="437" type="line"/>
      <point x="1950" y="516"/>
      <point x="1976" y="605"/>
      <point x="1976" y="715" type="curve" smooth="yes"/>
      <point x="1976" y="731" type="line" smooth="yes"/>
      <point x="1976" y="1131"/>
      <point x="1632" y="1365"/>
      <point x="1019" y="1365" type="curve" smooth="yes"/>
      <point x="426" y="1365"/>
      <point x="108" y="1162"/>
      <point x="108" y="795" type="curve" smooth="yes"/>
      <point x="108" y="776" type="line" smooth="yes"/>
      <point x="108" y="519"/>
      <point x="265" y="359"/>
    </contour>
    <contour>
      <point x="1304" y="0" type="line"/>
      <point x="1506" y="0" type="line"/>
      <point x="1506" y="389" type="line" smooth="yes"/>
      <point x="1506" y="648"/>
      <point x="1339" y="775"/>
      <point x="1024" y="775" type="curve" smooth="yes"/>
      <point x="752" y="775"/>
      <point x="590" y="667"/>
      <point x="550" y="467" type="curve"/>
      <point x="544" y="406" type="line"/>
      <point x="544" y="395" type="line" smooth="yes"/>
      <point x="544" y="189"/>
      <point x="683" y="63"/>
      <point x="965" y="63" type="curve" smooth="yes"/>
      <point x="1149" y="63"/>
      <point x="1253" y="117"/>
      <point x="1298" y="212" type="curve"/>
      <point x="1308" y="212" type="line"/>
      <point x="1304" y="101" type="line"/>
    </contour>
    <contour>
      <point x="1021" y="226" type="curve" smooth="yes"/>
      <point x="845" y="226"/>
      <point x="752" y="290"/>
      <point x="752" y="416" type="curve" smooth="yes"/>
      <point x="752" y="424" type="line" smooth="yes"/>
      <point x="752" y="551"/>
      <point x="847" y="612"/>
      <point x="1027" y="612" type="curve" smooth="yes"/>
      <point x="1208" y="612"/>
      <point x="1302" y="552"/>
      <point x="1302" y="425" type="curve" smooth="yes"/>
      <point x="1302" y="417" type="line" smooth="yes"/>
      <point x="1302" y="303"/>
      <point x="1205" y="226"/>
    </contour>
    <contour>
      <point x="1029" y="325" type="curve" smooth="yes"/>
      <point x="1119" y="325"/>
      <point x="1157" y="359"/>
      <point x="1157" y="420" type="curve" smooth="yes"/>
      <point x="1157" y="421" type="line" smooth="yes"/>
      <point x="1157" y="485"/>
      <point x="1119" y="516"/>
      <point x="1029" y="516" type="curve" smooth="yes"/>
      <point x="938" y="516"/>
      <point x="899" y="484"/>
      <point x="899" y="421" type="curve" smooth="yes"/>
      <point x="899" y="420" type="line" smooth="yes"/>
      <point x="899" y="358"/>
      <point x="938" y="325"/>
    </contour>
  </outline>
</glyph>
<glyph name="Ssa.or" format="2">
  <advance width="2020"/>
  <unicode hex="0B37"/>
  <anchor x="1834" y="55" name="bottom"/>
  <anchor x="1107" y="53" name="nukta"/>
  <anchor x="964" y="1828" name="top1"/>
  <anchor x="1714" y="1427" name="top2"/>
  <outline>
    <contour>
      <point x="492" y="405" type="curve"/>
      <point x="557" y="573" type="line"/>
      <point x="406" y="604"/>
      <point x="321" y="696"/>
      <point x="321" y="833" type="curve" smooth="yes"/>
      <point x="321" y="853" type="line" smooth="yes"/>
      <point x="321" y="996"/>
      <point x="404" y="1097"/>
      <point x="582" y="1147" type="curve"/>
      <point x="661" y="1166" type="line"/>
      <point x="743" y="1180"/>
      <point x="805" y="1185"/>
      <point x="913" y="1185" type="curve" smooth="yes"/>
      <point x="1350" y="1185"/>
      <point x="1633" y="1020"/>
      <point x="1635" y="680" type="curve"/>
      <point x="1749" y="680" type="line"/>
      <point x="1656" y="940" type="line"/>
      <point x="1603" y="1201"/>
      <point x="1358" y="1365"/>
      <point x="890" y="1365" type="curve" smooth="yes"/>
      <point x="384" y="1365"/>
      <point x="108" y="1186"/>
      <point x="108" y="856" type="curve" smooth="yes"/>
      <point x="108" y="833" type="line" smooth="yes"/>
      <point x="108" y="602"/>
      <point x="250" y="457"/>
    </contour>
    <contour>
      <point x="1014" y="-26" type="curve" smooth="yes"/>
      <point x="1381" y="-26"/>
      <point x="1555" y="104"/>
      <point x="1632" y="266" type="curve"/>
      <point x="1742" y="266" type="line"/>
      <point x="1646" y="454" type="line"/>
      <point x="1559" y="266"/>
      <point x="1372" y="146"/>
      <point x="1055" y="146" type="curve" smooth="yes"/>
      <point x="774" y="146"/>
      <point x="641" y="217"/>
      <point x="641" y="369" type="curve" smooth="yes"/>
      <point x="641" y="377" type="line" smooth="yes"/>
      <point x="641" y="524"/>
      <point x="770" y="601"/>
      <point x="1040" y="601" type="curve" smooth="yes"/>
      <point x="1099" y="601"/>
      <point x="1144" y="600"/>
      <point x="1188" y="592" type="curve"/>
      <point x="1172" y="739" type="line"/>
      <point x="1135" y="750"/>
      <point x="1064" y="761"/>
      <point x="995" y="761" type="curve" smooth="yes"/>
      <point x="746" y="761"/>
      <point x="565" y="687"/>
      <point x="484" y="546" type="curve"/>
      <point x="461" y="505" type="line"/>
      <point x="443" y="467"/>
      <point x="430" y="425"/>
      <point x="430" y="371" type="curve" smooth="yes"/>
      <point x="430" y="363" type="line" smooth="yes"/>
      <point x="430" y="112"/>
      <point x="622" y="-26"/>
    </contour>
    <contour>
      <point x="1530" y="203" type="line"/>
      <point x="1648" y="318" type="line"/>
      <point x="646" y="1255" type="line"/>
      <point x="482" y="1175" type="line"/>
    </contour>
    <contour>
      <point x="1634" y="0" type="line"/>
      <point x="1834" y="0" type="line"/>
      <point x="1834" y="1321" type="line"/>
      <point x="1634" y="1321" type="line"/>
      <point x="1640" y="1023" type="line"/>
      <point x="1608" y="1023" type="line"/>
      <point x="1635" y="861" type="line"/>
      <point x="1635" y="356" type="line"/>
      <point x="1641" y="341" type="line"/>
    </contour>
  </outline>
</glyph>
<glyph name="Sa.or" format="2">
  <advance width="1917"/>
  <unicode hex="0B38"/>
  <anchor x="1731" y="55" name="bottom"/>
  <anchor x="971" y="53" name="nukta"/>
  <anchor x="919" y="1828" name="top1"/>
  <anchor x="1610" y="1427" name="top2"/>
  <outline>
    <contour>
      <point x="1531" y="1321" type="line"/>
      <point x="1537" y="1023" type="line"/>
      <point x="1505" y="1023" type="line"/>
      <point x="1531" y="861" type="line"/>
      <point x="1531" y="775" type="line"/>
      <point x="1531" y="114" type="line"/>
      <point x="1570" y="174" type="line"/>
      <point x="471" y="290" type="line"/>
      <point x="471" y="300" type="line"/>
      <point x="1570" y="648" type="line"/>
      <point x="1569" y="825" type="line"/>
      <point x="748" y="564" type="line"/>
      <point x="634" y="523" type="line"/>
      <point x="218" y="384" type="line"/>
      <point x="218" y="147" type="line"/>
      <point x="1539" y="0" type="line"/>
      <point x="1731" y="0" type="line"/>
      <point x="1731" y="1321" type="line"/>
    </contour>
    <contour>
      <point x="871" y="592" type="line"/>
      <point x="592" y="598"/>
      <point x="328" y="655"/>
      <point x="328" y="885" type="curve" smooth="yes"/>
      <point x="328" y="896" type="line" smooth="yes"/>
      <point x="328" y="1085"/>
      <point x="497" y="1185"/>
      <point x="851" y="1185" type="curve" smooth="yes"/>
      <point x="1262" y="1185"/>
      <point x="1529" y="1020"/>
      <point x="1531" y="685" type="curve"/>
      <point x="1665" y="717" type="line"/>
      <point x="1553" y="940" type="line"/>
      <point x="1503" y="1201"/>
      <point x="1273" y="1365"/>
      <point x="831" y="1365" type="curve" smooth="yes"/>
      <point x="362" y="1365"/>
      <point x="110" y="1198"/>
      <point x="110" y="898" type="curve" smooth="yes"/>
      <point x="110" y="883" type="line" smooth="yes"/>
      <point x="110" y="578"/>
      <point x="390" y="485"/>
      <point x="663" y="484" type="curve"/>
    </contour>
  </outline>
</glyph>
<glyph name="Ha.or" format="2">
  <advance width="2082"/>
  <unicode hex="0B39"/>
  <anchor x="1137" y="-219" name="bottom"/>
  <anchor x="1030" y="-239" name="nukta"/>
  <anchor x="1040" y="1828" name="top1"/>
  <anchor x="1636" y="1427" name="top2"/>
  <outline>
    <contour>
      <point x="584" y="309" type="curve"/>
      <point x="616" y="487" type="line"/>
      <point x="421" y="521"/>
      <point x="321" y="617"/>
      <point x="321" y="779" type="curve" smooth="yes"/>
      <point x="321" y="797" type="line" smooth="yes"/>
      <point x="321" y="1048"/>
      <point x="556" y="1185"/>
      <point x="1018" y="1185" type="curve" smooth="yes"/>
      <point x="1509" y="1185"/>
      <point x="1764" y="1015"/>
      <point x="1764" y="706" type="curve" smooth="yes"/>
      <point x="1764" y="689" type="line" smooth="yes"/>
      <point x="1764" y="588"/>
      <point x="1738" y="501"/>
      <point x="1692" y="416" type="curve"/>
      <point x="1906" y="437" type="line"/>
      <point x="1950" y="516"/>
      <point x="1976" y="605"/>
      <point x="1976" y="715" type="curve" smooth="yes"/>
      <point x="1976" y="731" type="line" smooth="yes"/>
      <point x="1976" y="1131"/>
      <point x="1632" y="1365"/>
      <point x="1019" y="1365" type="curve" smooth="yes"/>
      <point x="426" y="1365"/>
      <point x="108" y="1162"/>
      <point x="108" y="795" type="curve" smooth="yes"/>
      <point x="108" y="776" type="line" smooth="yes"/>
      <point x="108" y="519"/>
      <point x="265" y="359"/>
    </contour>
    <contour>
      <point x="1545" y="-423" type="line"/>
      <point x="1545" y="-240" type="line"/>
      <point x="640" y="-79" type="line"/>
      <point x="640" y="-67" type="line"/>
      <point x="917" y="104" type="line"/>
      <point x="750" y="186" type="line"/>
      <point x="430" y="-24" type="line"/>
      <point x="430" y="-208" type="line"/>
    </contour>
    <contour>
      <point x="1281" y="0" type="line"/>
      <point x="1483" y="0" type="line"/>
      <point x="1483" y="716" type="line"/>
      <point x="1281" y="716" type="line"/>
      <point x="1281" y="357" type="line"/>
      <point x="1290" y="426" type="line"/>
      <point x="1257" y="307"/>
      <point x="1131" y="230"/>
      <point x="968" y="230" type="curve" smooth="yes"/>
      <point x="796" y="230"/>
      <point x="709" y="294"/>
      <point x="709" y="413" type="curve" smooth="yes"/>
      <point x="709" y="418" type="line" smooth="yes"/>
      <point x="709" y="509"/>
      <point x="764" y="573"/>
      <point x="886" y="600" type="curve"/>
      <point x="886" y="779" type="line"/>
      <point x="685" y="749"/>
      <point x="549" y="647"/>
      <point x="509" y="483" type="curve"/>
      <point x="501" y="449" type="line"/>
      <point x="499" y="437"/>
      <point x="496" y="423"/>
      <point x="496" y="407" type="curve" smooth="yes"/>
      <point x="496" y="396" type="line" smooth="yes"/>
      <point x="496" y="191"/>
      <point x="642" y="63"/>
      <point x="920" y="63" type="curve" smooth="yes"/>
      <point x="1107" y="63"/>
      <point x="1224" y="118"/>
      <point x="1275" y="238" type="curve"/>
      <point x="1285" y="238" type="line"/>
      <point x="1281" y="129" type="line"/>
    </contour>
  </outline>
</glyph>
<glyph name="Nukta.or" format="2">
  <unicode hex="0B3C"/>
  <anchor x="-1040" y="53" name="_nukta"/>
  <outline>
    <contour>
      <point x="-1041" y="-418" type="curve" smooth="yes"/>
      <point x="-945" y="-418"/>
      <point x="-899" y="-369"/>
      <point x="-899" y="-296" type="curve" smooth="yes"/>
      <point x="-899" y="-291" type="line" smooth="yes"/>
      <point x="-899" y="-216"/>
      <point x="-947" y="-167"/>
      <point x="-1040" y="-167" type="curve" smooth="yes"/>
      <point x="-1133" y="-167"/>
      <point x="-1181" y="-215"/>
      <point x="-1181" y="-291" type="curve" smooth="yes"/>
      <point x="-1181" y="-296" type="line" smooth="yes"/>
      <point x="-1181" y="-368"/>
      <point x="-1133" y="-418"/>
    </contour>
  </outline>
</glyph>
<glyph name="Avagraha.or" format="2">
  <advance width="1122"/>
  <unicode hex="0B3D"/>
  <outline>
    <contour>
      <point x="97" y="1006" type="line"/>
      <point x="1008" y="1353" type="line"/>
      <point x="1008" y="1162" type="line"/>
      <point x="264" y="891" type="line"/>
      <point x="264" y="992" type="line"/>
      <point x="985" y="721" type="line"/>
      <point x="985" y="590" type="line"/>
      <point x="264" y="327" type="line"/>
      <point x="264" y="426" type="line"/>
      <point x="1008" y="160" type="line"/>
      <point x="1008" y="-31" type="line"/>
      <point x="97" y="309" type="line"/>
      <point x="97" y="436" type="line"/>
      <point x="727" y="664" type="line"/>
      <point x="727" y="645" type="line"/>
      <point x="97" y="877" type="line"/>
    </contour>
  </outline>
</glyph>
<glyph name="MatraAa.or" format="2">
  <advance width="572"/>
  <unicode hex="0B3E"/>
  <outline>
    <contour>
      <point x="386" y="1321" type="line"/>
      <point x="386" y="0" type="line"/>
      <point x="186" y="0" type="line"/>
      <point x="186" y="1321" type="line"/>
    </contour>
  </outline>
</glyph>
<glyph name="MatraI.or" format="2">
  <unicode hex="0B3F"/>
  <anchor x="-1089" y="1828" name="_top1"/>
  <outline>
    <contour>
      <point x="-1896" y="1418" type="line"/>
      <point x="-1664" y="1549"/>
      <point x="-1404" y="1627"/>
      <point x="-1089" y="1627" type="curve" smooth="yes"/>
      <point x="-774" y="1627"/>
      <point x="-514" y="1550"/>
      <point x="-282" y="1418" type="curve"/>
      <point x="-295" y="1601" type="line"/>
      <point x="-500" y="1725"/>
      <point x="-757" y="1801"/>
      <point x="-1089" y="1801" type="curve" smooth="yes"/>
      <point x="-1421" y="1801"/>
      <point x="-1678" y="1725"/>
      <point x="-1883" y="1601" type="curve"/>
    </contour>
  </outline>
</glyph>
<glyph name="MatraIi.or" format="2">
  <advance width="882"/>
  <unicode hex="0B40"/>
  <outline>
    <contour>
      <point x="496" y="0" type="line"/>
      <point x="696" y="0" type="line"/>
      <point x="696" y="1321" type="line"/>
      <point x="529" y="1321" type="line"/>
      <point x="38" y="1021" type="line"/>
      <point x="38" y="807" type="line"/>
      <point x="45" y="807" type="line"/>
      <point x="486" y="1082" type="line"/>
      <point x="496" y="1082" type="line"/>
    </contour>
  </outline>
</glyph>
<glyph name="MatraUu.or" format="2">
  <unicode hex="0B42"/>
  <anchor x="-186" y="55" name="_bottom"/>
  <outline>
    <contour>
      <point x="342" y="-796" type="curve"/>
      <point x="342" y="-618" type="line"/>
      <point x="172" y="-582"/>
      <point x="34" y="-528"/>
      <point x="-109" y="-435" type="curve"/>
      <point x="-205" y="-484"/>
      <point x="-299" y="-518"/>
      <point x="-431" y="-518" type="curve" smooth="yes"/>
      <point x="-570" y="-518"/>
      <point x="-630" y="-478"/>
      <point x="-630" y="-409" type="curve" smooth="yes"/>
      <point x="-630" y="-402" type="line" smooth="yes"/>
      <point x="-630" y="-338"/>
      <point x="-579" y="-301"/>
      <point x="-429" y="-301" type="curve" smooth="yes"/>
      <point x="-345" y="-301"/>
      <point x="-262" y="-310"/>
      <point x="-186" y="-322" type="curve"/>
      <point x="-186" y="307" type="line"/>
      <point x="-386" y="307" type="line"/>
      <point x="-386" y="-219" type="line"/>
      <point x="-229" y="-175" type="line"/>
      <point x="-316" y="-157"/>
      <point x="-396" y="-147"/>
      <point x="-477" y="-147" type="curve" smooth="yes"/>
      <point x="-706" y="-147"/>
      <point x="-826" y="-246"/>
      <point x="-826" y="-406" type="curve" smooth="yes"/>
      <point x="-826" y="-415" type="line" smooth="yes"/>
      <point x="-826" y="-585"/>
      <point x="-695" y="-676"/>
      <point x="-458" y="-676" type="curve" smooth="yes"/>
      <point x="-291" y="-676"/>
      <point x="-158" y="-630"/>
      <point x="-71" y="-570" type="curve"/>
      <point x="-188" y="-574" type="line"/>
      <point x="-34" y="-674"/>
      <point x="128" y="-742"/>
    </contour>
  </outline>
</glyph>
<glyph name="MatraVocalicR.or" format="2">
  <unicode hex="0B43"/>
  <anchor x="-186" y="55" name="_bottom"/>
  <outline>
    <contour>
      <point x="-264" y="-406" type="curve" smooth="yes"/>
      <point x="-307" y="-406"/>
      <point x="-349" y="-413"/>
      <point x="-387" y="-425" type="curve"/>
      <point x="-387" y="-298" type="line"/>
      <point x="-346" y="-281"/>
      <point x="-287" y="-271"/>
      <point x="-223" y="-271" type="curve" smooth="yes"/>
      <point x="-57" y="-271"/>
      <point x="28" y="-339"/>
      <point x="28" y="-462" type="curve" smooth="yes"/>
      <point x="28" y="-471" type="line" smooth="yes"/>
      <point x="28" y="-615"/>
      <point x="-112" y="-693"/>
      <point x="-351" y="-693" type="curve" smooth="yes"/>
      <point x="-621" y="-693"/>
      <point x="-778" y="-586"/>
      <point x="-778" y="-391" type="curve" smooth="yes"/>
      <point x="-778" y="-379" type="line" smooth="yes"/>
      <point x="-778" y="-173"/>
      <point x="-616" y="-50"/>
      <point x="-306" y="-27" type="curve"/>
      <point x="-386" y="-103" type="line"/>
      <point x="-386" y="324" type="line"/>
      <point x="-186" y="324" type="line"/>
      <point x="-186" y="-162" type="line"/>
      <point x="-471" y="-172"/>
      <point x="-595" y="-242"/>
      <point x="-595" y="-380" type="curve" smooth="yes"/>
      <point x="-595" y="-390" type="line" smooth="yes"/>
      <point x="-595" y="-493"/>
      <point x="-505" y="-547"/>
      <point x="-347" y="-547" type="curve" smooth="yes"/>
      <point x="-209" y="-547"/>
      <point x="-151" y="-519"/>
      <point x="-151" y="-468" type="curve" smooth="yes"/>
      <point x="-151" y="-464" type="line" smooth="yes"/>
      <point x="-151" y="-423"/>
      <point x="-187" y="-406"/>
    </contour>
  </outline>
</glyph>
<glyph name="MatraVocalicRr.or" format="2">
  <unicode hex="0B44"/>
  <outline>
    <contour>
      <point x="-283" y="-870" type="curve" smooth="yes"/>
      <point x="-40" y="-870"/>
      <point x="103" y="-790"/>
      <point x="103" y="-645" type="curve" smooth="yes"/>
      <point x="103" y="-636" type="line" smooth="yes"/>
      <point x="103" y="-511"/>
      <point x="14" y="-445"/>
      <point x="-142" y="-445" type="curve" smooth="yes"/>
      <point x="-206" y="-445"/>
      <point x="-252" y="-453"/>
      <point x="-292" y="-467" type="curve"/>
      <point x="-292" y="-588" type="line"/>
      <point x="-254" y="-576"/>
      <point x="-220" y="-571"/>
      <point x="-177" y="-571" type="curve" smooth="yes"/>
      <point x="-106" y="-571"/>
      <point x="-66" y="-594"/>
      <point x="-66" y="-642" type="curve" smooth="yes"/>
      <point x="-66" y="-647" type="line" smooth="yes"/>
      <point x="-66" y="-705"/>
      <point x="-145" y="-735"/>
      <point x="-279" y="-735" type="curve" smooth="yes"/>
      <point x="-440" y="-735"/>
      <point x="-524" y="-694"/>
      <point x="-524" y="-618" type="curve" smooth="yes"/>
      <point x="-524" y="-612" type="line" smooth="yes"/>
      <point x="-524" y="-546"/>
      <point x="-471" y="-513"/>
      <point x="-362" y="-507" type="curve"/>
      <point x="-362" y="-390" type="line"/>
      <point x="-464" y="-387"/>
      <point x="-510" y="-366"/>
      <point x="-510" y="-324" type="curve" smooth="yes"/>
      <point x="-510" y="-322" type="line" smooth="yes"/>
      <point x="-510" y="-276"/>
      <point x="-465" y="-258"/>
      <point x="-355" y="-258" type="curve" smooth="yes"/>
      <point x="-310" y="-258"/>
      <point x="-243" y="-264"/>
      <point x="-178" y="-281" type="curve"/>
      <point x="-196" y="-150" type="line"/>
      <point x="-248" y="-134"/>
      <point x="-317" y="-123"/>
      <point x="-407" y="-123" type="curve" smooth="yes"/>
      <point x="-589" y="-123"/>
      <point x="-688" y="-181"/>
      <point x="-688" y="-295" type="curve" smooth="yes"/>
      <point x="-688" y="-298" type="line" smooth="yes"/>
      <point x="-688" y="-376"/>
      <point x="-643" y="-419"/>
      <point x="-561" y="-437" type="curve"/>
      <point x="-561" y="-443" type="line"/>
      <point x="-650" y="-464"/>
      <point x="-697" y="-532"/>
      <point x="-697" y="-620" type="curve" smooth="yes"/>
      <point x="-697" y="-626" type="line" smooth="yes"/>
      <point x="-697" y="-783"/>
      <point x="-550" y="-870"/>
    </contour>
  </outline>
</glyph>
<glyph name="MatraE.or" format="2">
  <advance width="1433"/>
  <unicode hex="0B47"/>
  <outline>
    <contour>
      <point x="783" y="-29" type="curve" smooth="yes"/>
      <point x="1149" y="-29"/>
      <point x="1347" y="126"/>
      <point x="1347" y="398" type="curve" smooth="yes"/>
      <point x="1347" y="414" type="line" smooth="yes"/>
      <point x="1347" y="676"/>
      <point x="1176" y="823"/>
      <point x="861" y="823" type="curve" smooth="yes"/>
      <point x="576" y="823"/>
      <point x="419" y="705"/>
      <point x="353" y="565" type="curve"/>
      <point x="321" y="565" type="line"/>
      <point x="356" y="393" type="line"/>
      <point x="425" y="539"/>
      <point x="588" y="653"/>
      <point x="806" y="653" type="curve" smooth="yes"/>
      <point x="1042" y="653"/>
      <point x="1137" y="555"/>
      <point x="1137" y="410" type="curve" smooth="yes"/>
      <point x="1137" y="401" type="line" smooth="yes"/>
      <point x="1137" y="243"/>
      <point x="1018" y="141"/>
      <point x="788" y="141" type="curve" smooth="yes"/>
      <point x="508" y="141"/>
      <point x="341" y="308"/>
      <point x="341" y="635" type="curve" smooth="yes"/>
      <point x="341" y="653" type="line" smooth="yes"/>
      <point x="341" y="998"/>
      <point x="509" y="1180"/>
      <point x="826" y="1180" type="curve" smooth="yes"/>
      <point x="1026" y="1180"/>
      <point x="1145" y="1136"/>
      <point x="1259" y="1075" type="curve"/>
      <point x="1246" y="1260" type="line"/>
      <point x="1142" y="1313"/>
      <point x="1004" y="1360"/>
      <point x="801" y="1360" type="curve" smooth="yes"/>
      <point x="363" y="1360"/>
      <point x="128" y="1097"/>
      <point x="128" y="653" type="curve"/>
      <point x="128" y="634" type="line"/>
      <point x="128" y="213"/>
      <point x="375" y="-29"/>
    </contour>
  </outline>
</glyph>
<glyph name="Virama.or" format="2">
  <unicode hex="0B4D"/>
  <anchor x="-186" y="55" name="_bottom"/>
  <outline>
    <contour>
      <point x="-406" y="-114" type="line"/>
      <point x="-406" y="-97" type="line"/>
      <point x="-183" y="-97" type="line"/>
      <point x="176" y="-509" type="line"/>
      <point x="176" y="-517" type="line"/>
      <point x="-27" y="-517" type="line"/>
    </contour>
  </outline>
</glyph>
<glyph name="LengthmarkAi.or" format="2">
  <unicode hex="0B56"/>
  <outline>
    <contour>
      <point x="-1428" y="1942" type="line"/>
      <point x="-1427" y="1912" type="line" smooth="yes"/>
      <point x="-1423" y="1788"/>
      <point x="-1341" y="1745"/>
      <point x="-1167" y="1743" type="curve" smooth="yes"/>
      <point x="-609" y="1735" type="line" smooth="yes"/>
      <point x="-336" y="1731"/>
      <point x="-186" y="1625"/>
      <point x="-186" y="1409" type="curve" smooth="yes"/>
      <point x="-186" y="1395" type="line"/>
      <point x="-384" y="1395" type="line"/>
      <point x="-384" y="1398" type="line" smooth="yes"/>
      <point x="-384" y="1513"/>
      <point x="-467" y="1564"/>
      <point x="-626" y="1567" type="curve" smooth="yes"/>
      <point x="-1185" y="1576" type="line" smooth="yes"/>
      <point x="-1485" y="1581"/>
      <point x="-1623" y="1675"/>
      <point x="-1623" y="1907" type="curve" smooth="yes"/>
      <point x="-1623" y="1942" type="line"/>
    </contour>
  </outline>
</glyph>
<glyph name="LengthmarkAu.or" format="2">
  <advance width="572"/>
  <unicode hex="0B57"/>
  <outline>
    <contour>
      <point x="186" y="0" type="line"/>
      <point x="386" y="0" type="line"/>
      <point x="386" y="1313" type="line" smooth="yes"/>
      <point x="386" y="1614"/>
      <point x="256" y="1730"/>
      <point x="-70" y="1735" type="curve" smooth="yes"/>
      <point x="-615" y="1743" type="line" smooth="yes"/>
      <point x="-789" y="1746"/>
      <point x="-871" y="1788"/>
      <point x="-875" y="1912" type="curve" smooth="yes"/>
      <point x="-876" y="1942" type="line"/>
      <point x="-1071" y="1942" type="line"/>
      <point x="-1071" y="1907" type="line" smooth="yes"/>
      <point x="-1071" y="1675"/>
      <point x="-933" y="1580"/>
      <point x="-633" y="1576" type="curve" smooth="yes"/>
      <point x="-87" y="1568" type="line" smooth="yes"/>
      <point x="124" y="1565"/>
      <point x="186" y="1488"/>
      <point x="186" y="1302" type="curve" smooth="yes"/>
    </contour>
  </outline>
</glyph>
<glyph name="Yya.or" format="2">
  <advance width="2066"/>
  <unicode hex="0B5F"/>
  <anchor x="1886" y="-257" name="bottom"/>
  <anchor x="986" y="1828" name="top1"/>
  <anchor x="1759" y="1427" name="top2"/>
  <outline>
    <contour>
      <point x="2107" y="-474" type="line"/>
      <point x="2107" y="-275" type="line"/>
      <point x="1731" y="-177" type="line"/>
      <point x="1639" y="-200" type="line"/>
      <point x="1736" y="-213" type="line"/>
      <point x="1948" y="-203"/>
      <point x="2058" y="-108"/>
      <point x="2058" y="65" type="curve" smooth="yes"/>
      <point x="2058" y="74" type="line" smooth="yes"/>
      <point x="2058" y="237"/>
      <point x="1956" y="335"/>
      <point x="1822" y="357" type="curve"/>
      <point x="1706" y="370" type="line"/>
      <point x="1614" y="365"/>
      <point x="1527" y="329"/>
      <point x="1437" y="288" type="curve" smooth="yes"/>
      <point x="1260" y="207"/>
      <point x="1116" y="146"/>
      <point x="950" y="146" type="curve" smooth="yes"/>
      <point x="772" y="146"/>
      <point x="678" y="221"/>
      <point x="678" y="348" type="curve" smooth="yes"/>
      <point x="678" y="351" type="line" smooth="yes"/>
      <point x="678" y="408"/>
      <point x="696" y="479"/>
      <point x="753" y="510" type="curve"/>
      <point x="528" y="491" type="line"/>
      <point x="487" y="450"/>
      <point x="469" y="385"/>
      <point x="469" y="321" type="curve" smooth="yes"/>
      <point x="469" y="315" type="line" smooth="yes"/>
      <point x="469" y="98"/>
      <point x="624" y="-26"/>
      <point x="928" y="-26" type="curve" smooth="yes"/>
      <point x="1129" y="-26"/>
      <point x="1262" y="26"/>
      <point x="1446" y="108" type="curve" smooth="yes"/>
      <point x="1551" y="155"/>
      <point x="1629" y="198"/>
      <point x="1707" y="198" type="curve" smooth="yes"/>
      <point x="1807" y="198"/>
      <point x="1852" y="144"/>
      <point x="1852" y="51" type="curve" smooth="yes"/>
      <point x="1852" y="44" type="line" smooth="yes"/>
      <point x="1852" y="-55"/>
      <point x="1786" y="-117"/>
      <point x="1641" y="-119" type="curve" smooth="yes"/>
      <point x="1502" y="-121" type="line"/>
      <point x="1502" y="-259" type="line"/>
    </contour>
    <contour>
      <point x="0" y="244" type="line"/>
      <point x="532" y="427" type="line"/>
      <point x="688" y="481" type="line"/>
      <point x="1077" y="613" type="line"/>
      <point x="1077" y="785" type="line"/>
      <point x="535" y="602" type="line"/>
      <point x="415" y="560" type="line"/>
      <point x="0" y="421" type="line"/>
    </contour>
    <contour>
      <point x="503" y="485" type="curve"/>
      <point x="605" y="617" type="line"/>
      <point x="450" y="647"/>
      <point x="367" y="736"/>
      <point x="367" y="865" type="curve" smooth="yes"/>
      <point x="367" y="876" type="line" smooth="yes"/>
      <point x="367" y="1076"/>
      <point x="560" y="1185"/>
      <point x="958" y="1185" type="curve" smooth="yes"/>
      <point x="1397" y="1185"/>
      <point x="1681" y="1020"/>
      <point x="1683" y="680" type="curve"/>
      <point x="1795" y="680" type="line"/>
      <point x="1702" y="940" type="line"/>
      <point x="1649" y="1201"/>
      <point x="1404" y="1365"/>
      <point x="935" y="1365" type="curve" smooth="yes"/>
      <point x="431" y="1365"/>
      <point x="154" y="1193"/>
      <point x="154" y="878" type="curve" smooth="yes"/>
      <point x="154" y="865" type="line" smooth="yes"/>
      <point x="154" y="659"/>
      <point x="284" y="528"/>
    </contour>
    <contour>
      <point x="1683" y="225" type="line"/>
      <point x="1880" y="225" type="line"/>
      <point x="1880" y="1321" type="line"/>
      <point x="1680" y="1321" type="line"/>
      <point x="1686" y="1023" type="line"/>
      <point x="1654" y="1023" type="line"/>
      <point x="1683" y="861" type="line"/>
    </contour>
  </outline>
</glyph>
<glyph name="VocalicRr.or" format="2">
  <advance width="2176"/>
  <unicode hex="0B60"/>
  <anchor x="1043" y="1828" name="top1"/>
  <anchor x="1691" y="1427" name="top2"/>
  <outline>
    <contour>
      <point x="2149" y="-209" type="line"/>
      <point x="2149" y="-12" type="line"/>
      <point x="1772" y="79" type="line"/>
      <point x="1733" y="59" type="line"/>
      <point x="1846" y="48" type="line"/>
      <point x="2012" y="51"/>
      <point x="2099" y="104"/>
      <point x="2099" y="212" type="curve" smooth="yes"/>
      <point x="2099" y="219" type="line" smooth="yes"/>
      <point x="2099" y="303"/>
      <point x="2045" y="345"/>
      <point x="1968" y="356" type="curve"/>
      <point x="1968" y="362" type="line"/>
      <point x="2045" y="374"/>
      <point x="2095" y="423"/>
      <point x="2095" y="504" type="curve" smooth="yes"/>
      <point x="2095" y="510" type="line" smooth="yes"/>
      <point x="2095" y="615"/>
      <point x="2022" y="672"/>
      <point x="1872" y="675" type="curve"/>
      <point x="1850" y="644" type="line"/>
      <point x="1966" y="667"/>
      <point x="2015" y="754"/>
      <point x="2015" y="861" type="curve" smooth="yes"/>
      <point x="2015" y="873" type="line" smooth="yes"/>
      <point x="2015" y="1175"/>
      <point x="1659" y="1365"/>
      <point x="1044" y="1365" type="curve" smooth="yes"/>
      <point x="433" y="1365"/>
      <point x="108" y="1165"/>
      <point x="108" y="791" type="curve" smooth="yes"/>
      <point x="108" y="772" type="line" smooth="yes"/>
      <point x="108" y="538"/>
      <point x="239" y="388"/>
      <point x="479" y="328" type="curve"/>
      <point x="524" y="506" type="line"/>
      <point x="396" y="546"/>
      <point x="321" y="637"/>
      <point x="321" y="777" type="curve" smooth="yes"/>
      <point x="321" y="794" type="line" smooth="yes"/>
      <point x="321" y="1048"/>
      <point x="559" y="1185"/>
      <point x="1041" y="1185" type="curve" smooth="yes"/>
      <point x="1542" y="1185"/>
      <point x="1803" y="1067"/>
      <point x="1803" y="855" type="curve" smooth="yes"/>
      <point x="1803" y="845" type="line" smooth="yes"/>
      <point x="1803" y="758"/>
      <point x="1756" y="694"/>
      <point x="1634" y="686" type="curve" smooth="yes"/>
      <point x="1603" y="684" type="line"/>
      <point x="1603" y="547" type="line"/>
      <point x="1777" y="544" type="line" smooth="yes"/>
      <point x="1859" y="543"/>
      <point x="1893" y="526"/>
      <point x="1893" y="479" type="curve" smooth="yes"/>
      <point x="1893" y="477" type="line" smooth="yes"/>
      <point x="1893" y="433"/>
      <point x="1859" y="412"/>
      <point x="1777" y="411" type="curve" smooth="yes"/>
      <point x="1617" y="409" type="line"/>
      <point x="1617" y="273" type="line"/>
      <point x="1777" y="271" type="line" smooth="yes"/>
      <point x="1861" y="270"/>
      <point x="1895" y="250"/>
      <point x="1895" y="206" type="curve" smooth="yes"/>
      <point x="1895" y="203" type="line" smooth="yes"/>
      <point x="1895" y="160"/>
      <point x="1859" y="135"/>
      <point x="1777" y="135" type="curve" smooth="yes"/>
      <point x="1601" y="134" type="line"/>
      <point x="1601" y="6" type="line"/>
    </contour>
    <contour>
      <point x="927" y="-26" type="curve" smooth="yes"/>
      <point x="1256" y="-26"/>
      <point x="1430" y="106"/>
      <point x="1430" y="350" type="curve" smooth="yes"/>
      <point x="1430" y="367" type="line" smooth="yes"/>
      <point x="1430" y="609"/>
      <point x="1256" y="742"/>
      <point x="930" y="742" type="curve" smooth="yes"/>
      <point x="649" y="742"/>
      <point x="492" y="636"/>
      <point x="443" y="451" type="curve"/>
      <point x="436" y="434" type="line"/>
      <point x="430" y="414"/>
      <point x="424" y="389"/>
      <point x="424" y="364" type="curve" smooth="yes"/>
      <point x="424" y="350" type="line" smooth="yes"/>
      <point x="424" y="106"/>
      <point x="600" y="-26"/>
    </contour>
    <contour>
      <point x="927" y="140" type="curve" smooth="yes"/>
      <point x="736" y="140"/>
      <point x="635" y="213"/>
      <point x="635" y="351" type="curve" smooth="yes"/>
      <point x="635" y="366" type="line" smooth="yes"/>
      <point x="635" y="506"/>
      <point x="737" y="576"/>
      <point x="927" y="576" type="curve" smooth="yes"/>
      <point x="1117" y="576"/>
      <point x="1219" y="505"/>
      <point x="1219" y="366" type="curve" smooth="yes"/>
      <point x="1219" y="351" type="line" smooth="yes"/>
      <point x="1219" y="213"/>
      <point x="1117" y="140"/>
    </contour>
  </outline>
</glyph>
<glyph name="VocalicLl.or" format="2">
  <advance width="1798"/>
  <unicode hex="0B61"/>
  <anchor x="1409" y="1427" name="top2"/>
  <outline>
    <contour>
      <point x="926" y="-26" type="curve" smooth="yes"/>
      <point x="1068" y="-26"/>
      <point x="1193" y="-14"/>
      <point x="1292" y="8" type="curve"/>
      <point x="1412" y="51" type="line"/>
      <point x="1611" y="102"/>
      <point x="1706" y="210"/>
      <point x="1706" y="350" type="curve" smooth="yes"/>
      <point x="1706" y="362" type="line" smooth="yes"/>
      <point x="1706" y="557"/>
      <point x="1568" y="680"/>
      <point x="1264" y="680" type="curve" smooth="yes"/>
      <point x="986" y="680"/>
      <point x="809" y="567"/>
      <point x="809" y="379" type="curve" smooth="yes"/>
      <point x="809" y="369" type="line" smooth="yes"/>
      <point x="809" y="224"/>
      <point x="909" y="142"/>
      <point x="1062" y="110" type="curve"/>
      <point x="1233" y="148" type="line"/>
      <point x="1099" y="179"/>
      <point x="1010" y="251"/>
      <point x="1010" y="348" type="curve" smooth="yes"/>
      <point x="1010" y="358" type="line" smooth="yes"/>
      <point x="1010" y="458"/>
      <point x="1100" y="516"/>
      <point x="1263" y="516" type="curve" smooth="yes"/>
      <point x="1425" y="516"/>
      <point x="1501" y="459"/>
      <point x="1501" y="364" type="curve" smooth="yes"/>
      <point x="1501" y="353" type="line" smooth="yes"/>
      <point x="1501" y="241"/>
      <point x="1377" y="168"/>
      <point x="1182" y="150" type="curve"/>
      <point x="1108" y="138" type="line"/>
      <point x="1053" y="137"/>
      <point x="989" y="137"/>
      <point x="935" y="138" type="curve"/>
      <point x="508" y="141"/>
      <point x="326" y="230"/>
      <point x="326" y="400" type="curve" smooth="yes"/>
      <point x="326" y="413" type="line" smooth="yes"/>
      <point x="326" y="556"/>
      <point x="430" y="599"/>
      <point x="654" y="649" type="curve" smooth="yes"/>
      <point x="966" y="718" type="line" smooth="yes"/>
      <point x="1266" y="784"/>
      <point x="1384" y="871"/>
      <point x="1384" y="1044" type="curve" smooth="yes"/>
      <point x="1384" y="1059" type="line" smooth="yes"/>
      <point x="1384" y="1254"/>
      <point x="1220" y="1367"/>
      <point x="910" y="1367" type="curve" smooth="yes"/>
      <point x="602" y="1367"/>
      <point x="428" y="1261"/>
      <point x="428" y="1065" type="curve" smooth="yes"/>
      <point x="428" y="1056" type="line" smooth="yes"/>
      <point x="428" y="1010"/>
      <point x="442" y="964"/>
      <point x="462" y="930" type="curve"/>
      <point x="667" y="918" type="line"/>
      <point x="647" y="954"/>
      <point x="634" y="988"/>
      <point x="634" y="1027" type="curve" smooth="yes"/>
      <point x="634" y="1034" type="line" smooth="yes"/>
      <point x="634" y="1146"/>
      <point x="728" y="1207"/>
      <point x="905" y="1207" type="curve" smooth="yes"/>
      <point x="1085" y="1207"/>
      <point x="1178" y="1152"/>
      <point x="1178" y="1050" type="curve" smooth="yes"/>
      <point x="1178" y="1041" type="line" smooth="yes"/>
      <point x="1178" y="952"/>
      <point x="1104" y="908"/>
      <point x="923" y="870" type="curve" smooth="yes"/>
      <point x="616" y="806" type="line" smooth="yes"/>
      <point x="278" y="736"/>
      <point x="110" y="641"/>
      <point x="110" y="408" type="curve" smooth="yes"/>
      <point x="110" y="392" type="line" smooth="yes"/>
      <point x="110" y="112"/>
      <point x="390" y="-26"/>
    </contour>
    <contour>
      <point x="1757" y="-135" type="curve"/>
      <point x="1757" y="36" type="line"/>
      <point x="1627" y="49"/>
      <point x="1496" y="64"/>
      <point x="1383" y="90" type="curve"/>
      <point x="1210" y="4" type="line"/>
      <point x="1370" y="-64"/>
      <point x="1562" y="-115"/>
    </contour>
  </outline>
</glyph>
<glyph name="MatraVocalicL.or" format="2">
  <unicode hex="0B62"/>
  <outline>
    <contour>
      <point x="-146" y="-726" type="curve" smooth="yes"/>
      <point x="134" y="-726"/>
      <point x="261" y="-645"/>
      <point x="261" y="-525" type="curve" smooth="yes"/>
      <point x="261" y="-519" type="line" smooth="yes"/>
      <point x="261" y="-421"/>
      <point x="186" y="-359"/>
      <point x="29" y="-359" type="curve" smooth="yes"/>
      <point x="-117" y="-359"/>
      <point x="-212" y="-417"/>
      <point x="-212" y="-516" type="curve" smooth="yes"/>
      <point x="-212" y="-521" type="line" smooth="yes"/>
      <point x="-212" y="-594"/>
      <point x="-156" y="-637"/>
      <point x="-65" y="-653" type="curve"/>
      <point x="13" y="-627" type="line"/>
      <point x="-53" y="-615"/>
      <point x="-97" y="-584"/>
      <point x="-97" y="-535" type="curve" smooth="yes"/>
      <point x="-97" y="-530" type="line" smooth="yes"/>
      <point x="-97" y="-482"/>
      <point x="-52" y="-453"/>
      <point x="24" y="-453" type="curve" smooth="yes"/>
      <point x="105" y="-453"/>
      <point x="140" y="-480"/>
      <point x="140" y="-522" type="curve" smooth="yes"/>
      <point x="140" y="-527" type="line" smooth="yes"/>
      <point x="140" y="-578"/>
      <point x="79" y="-613"/>
      <point x="-21" y="-620" type="curve"/>
      <point x="-64" y="-624" type="line"/>
      <point x="-82" y="-625"/>
      <point x="-115" y="-625"/>
      <point x="-141" y="-625" type="curve" smooth="yes"/>
      <point x="-353" y="-623"/>
      <point x="-442" y="-582"/>
      <point x="-442" y="-501" type="curve" smooth="yes"/>
      <point x="-442" y="-495" type="line" smooth="yes"/>
      <point x="-442" y="-428"/>
      <point x="-393" y="-405"/>
      <point x="-294" y="-381" type="curve" smooth="yes"/>
      <point x="-126" y="-340" type="line" smooth="yes"/>
      <point x="32" y="-302"/>
      <point x="93" y="-259"/>
      <point x="93" y="-169" type="curve" smooth="yes"/>
      <point x="93" y="-161" type="line" smooth="yes"/>
      <point x="93" y="-60"/>
      <point x="6" y="0"/>
      <point x="-158" y="0" type="curve" smooth="yes"/>
      <point x="-319" y="0"/>
      <point x="-412" y="-57"/>
      <point x="-412" y="-159" type="curve" smooth="yes"/>
      <point x="-412" y="-163" type="line" smooth="yes"/>
      <point x="-412" y="-188"/>
      <point x="-403" y="-213"/>
      <point x="-392" y="-230" type="curve"/>
      <point x="-276" y="-239" type="line"/>
      <point x="-289" y="-218"/>
      <point x="-296" y="-201"/>
      <point x="-296" y="-179" type="curve" smooth="yes"/>
      <point x="-296" y="-176" type="line" smooth="yes"/>
      <point x="-296" y="-126"/>
      <point x="-247" y="-97"/>
      <point x="-159" y="-97" type="curve" smooth="yes"/>
      <point x="-75" y="-97"/>
      <point x="-31" y="-123"/>
      <point x="-31" y="-164" type="curve" smooth="yes"/>
      <point x="-31" y="-169" type="line" smooth="yes"/>
      <point x="-31" y="-208"/>
      <point x="-66" y="-230"/>
      <point x="-152" y="-248" type="curve" smooth="yes"/>
      <point x="-317" y="-284" type="line" smooth="yes"/>
      <point x="-483" y="-320"/>
      <point x="-571" y="-376"/>
      <point x="-571" y="-498" type="curve" smooth="yes"/>
      <point x="-571" y="-506" type="line" smooth="yes"/>
      <point x="-571" y="-654"/>
      <point x="-425" y="-726"/>
    </contour>
  </outline>
</glyph>
<glyph name="MatraVocalicLl.or" format="2">
  <unicode hex="0B63"/>
  <outline>
    <contour>
      <point x="-411" y="-726" type="curve" smooth="yes"/>
      <point x="-333" y="-726"/>
      <point x="-247" y="-716"/>
      <point x="-197" y="-699" type="curve"/>
      <point x="-156" y="-683" type="line"/>
      <point x="-52" y="-651"/>
      <point x="-3" y="-595"/>
      <point x="-3" y="-525" type="curve" smooth="yes"/>
      <point x="-3" y="-519" type="line" smooth="yes"/>
      <point x="-3" y="-421"/>
      <point x="-78" y="-359"/>
      <point x="-235" y="-359" type="curve" smooth="yes"/>
      <point x="-381" y="-359"/>
      <point x="-476" y="-417"/>
      <point x="-476" y="-516" type="curve" smooth="yes"/>
      <point x="-476" y="-521" type="line" smooth="yes"/>
      <point x="-476" y="-594"/>
      <point x="-420" y="-637"/>
      <point x="-329" y="-653" type="curve"/>
      <point x="-251" y="-627" type="line"/>
      <point x="-317" y="-615"/>
      <point x="-361" y="-584"/>
      <point x="-361" y="-535" type="curve" smooth="yes"/>
      <point x="-361" y="-530" type="line" smooth="yes"/>
      <point x="-361" y="-482"/>
      <point x="-316" y="-453"/>
      <point x="-240" y="-453" type="curve" smooth="yes"/>
      <point x="-159" y="-453"/>
      <point x="-124" y="-480"/>
      <point x="-124" y="-522" type="curve" smooth="yes"/>
      <point x="-124" y="-527" type="line" smooth="yes"/>
      <point x="-124" y="-578"/>
      <point x="-187" y="-613"/>
      <point x="-285" y="-620" type="curve"/>
      <point x="-328" y="-624" type="line"/>
      <point x="-346" y="-625"/>
      <point x="-379" y="-625"/>
      <point x="-405" y="-625" type="curve" smooth="yes"/>
      <point x="-617" y="-623"/>
      <point x="-706" y="-582"/>
      <point x="-706" y="-501" type="curve" smooth="yes"/>
      <point x="-706" y="-495" type="line" smooth="yes"/>
      <point x="-706" y="-428"/>
      <point x="-657" y="-405"/>
      <point x="-558" y="-381" type="curve" smooth="yes"/>
      <point x="-390" y="-340" type="line" smooth="yes"/>
      <point x="-232" y="-301"/>
      <point x="-171" y="-259"/>
      <point x="-171" y="-169" type="curve" smooth="yes"/>
      <point x="-171" y="-161" type="line" smooth="yes"/>
      <point x="-171" y="-60"/>
      <point x="-258" y="0"/>
      <point x="-422" y="0" type="curve" smooth="yes"/>
      <point x="-583" y="0"/>
      <point x="-676" y="-57"/>
      <point x="-676" y="-159" type="curve" smooth="yes"/>
      <point x="-676" y="-163" type="line" smooth="yes"/>
      <point x="-676" y="-188"/>
      <point x="-667" y="-213"/>
      <point x="-656" y="-230" type="curve"/>
      <point x="-540" y="-239" type="line"/>
      <point x="-553" y="-218"/>
      <point x="-560" y="-201"/>
      <point x="-560" y="-179" type="curve" smooth="yes"/>
      <point x="-560" y="-176" type="line" smooth="yes"/>
      <point x="-560" y="-126"/>
      <point x="-511" y="-97"/>
      <point x="-423" y="-97" type="curve" smooth="yes"/>
      <point x="-339" y="-97"/>
      <point x="-295" y="-123"/>
      <point x="-295" y="-164" type="curve" smooth="yes"/>
      <point x="-295" y="-169" type="line" smooth="yes"/>
      <point x="-295" y="-208"/>
      <point x="-330" y="-229"/>
      <point x="-416" y="-248" type="curve" smooth="yes"/>
      <point x="-581" y="-284" type="line" smooth="yes"/>
      <point x="-747" y="-320"/>
      <point x="-835" y="-376"/>
      <point x="-835" y="-498" type="curve" smooth="yes"/>
      <point x="-835" y="-506" type="line" smooth="yes"/>
      <point x="-835" y="-654"/>
      <point x="-689" y="-726"/>
    </contour>
    <contour>
      <point x="13" y="-799" type="curve"/>
      <point x="13" y="-700" type="line"/>
      <point x="-53" y="-691"/>
      <point x="-112" y="-683"/>
      <point x="-167" y="-666" type="curve"/>
      <point x="-282" y="-698" type="line"/>
      <point x="-195" y="-745"/>
      <point x="-92" y="-785"/>
    </contour>
  </outline>
</glyph>
<glyph name="zero.or" format="2">
  <advance width="1586"/>
  <unicode hex="0B66"/>
  <outline>
    <contour>
      <point x="116" y="682" type="curve" smooth="yes"/>
      <point x="116" y="650" type="line" smooth="yes"/>
      <point x="116" y="215"/>
      <point x="361" y="-30"/>
      <point x="793" y="-30" type="curve" smooth="yes"/>
      <point x="1224" y="-30"/>
      <point x="1470" y="215"/>
      <point x="1470" y="649" type="curve" smooth="yes"/>
      <point x="1470" y="683" type="line" smooth="yes"/>
      <point x="1470" y="1117"/>
      <point x="1224" y="1361"/>
      <point x="793" y="1361" type="curve" smooth="yes"/>
      <point x="362" y="1361"/>
      <point x="116" y="1117"/>
    </contour>
    <contour>
      <point x="327" y="652" type="curve" smooth="yes"/>
      <point x="327" y="679" type="line" smooth="yes"/>
      <point x="327" y="1005"/>
      <point x="488" y="1182"/>
      <point x="793" y="1182" type="curve" smooth="yes"/>
      <point x="1098" y="1182"/>
      <point x="1259" y="1005"/>
      <point x="1259" y="679" type="curve" smooth="yes"/>
      <point x="1259" y="651" type="line" smooth="yes"/>
      <point x="1259" y="327"/>
      <point x="1098" y="150"/>
      <point x="793" y="150" type="curve" smooth="yes"/>
      <point x="488" y="150"/>
      <point x="327" y="327"/>
    </contour>
  </outline>
</glyph>
<glyph name="one.or" format="2">
  <advance width="1444"/>
  <unicode hex="0B67"/>
  <outline>
    <contour>
      <point x="787" y="1361" type="curve" smooth="yes"/>
      <point x="1153" y="1361"/>
      <point x="1346" y="1214"/>
      <point x="1346" y="950" type="curve" smooth="yes"/>
      <point x="1346" y="937" type="line" smooth="yes"/>
      <point x="1346" y="683"/>
      <point x="1173" y="543"/>
      <point x="845" y="543" type="curve" smooth="yes"/>
      <point x="579" y="543"/>
      <point x="421" y="645"/>
      <point x="339" y="777" type="curve"/>
      <point x="286" y="777" type="line"/>
      <point x="335" y="992" type="line"/>
      <point x="405" y="835"/>
      <point x="568" y="720"/>
      <point x="810" y="720" type="curve" smooth="yes"/>
      <point x="1030" y="720"/>
      <point x="1135" y="795"/>
      <point x="1135" y="943" type="curve" smooth="yes"/>
      <point x="1135" y="952" type="line" smooth="yes"/>
      <point x="1135" y="1097"/>
      <point x="1023" y="1181"/>
      <point x="787" y="1181" type="curve" smooth="yes"/>
      <point x="491" y="1181"/>
      <point x="331" y="1027"/>
      <point x="331" y="753" type="curve" smooth="yes"/>
      <point x="331" y="743" type="line"/>
      <point x="331" y="733" type="line"/>
      <point x="331" y="727" type="line" smooth="yes"/>
      <point x="331" y="366"/>
      <point x="621" y="179"/>
      <point x="1123" y="179" type="curve" smooth="yes"/>
      <point x="1261" y="179" type="line"/>
      <point x="1234" y="-2" type="line"/>
      <point x="1099" y="-2" type="line" smooth="yes"/>
      <point x="456" y="-2"/>
      <point x="120" y="261"/>
      <point x="120" y="721" type="curve" smooth="yes"/>
      <point x="120" y="740" type="line" smooth="yes"/>
      <point x="120" y="1138"/>
      <point x="382" y="1361"/>
    </contour>
  </outline>
</glyph>
<glyph name="two.or" format="2">
  <advance width="1444"/>
  <unicode hex="0B68"/>
  <outline>
    <contour>
      <point x="658" y="1361" type="curve" smooth="yes"/>
      <point x="1063" y="1361"/>
      <point x="1325" y="1138"/>
      <point x="1325" y="740" type="curve" smooth="yes"/>
      <point x="1325" y="721" type="line" smooth="yes"/>
      <point x="1325" y="261"/>
      <point x="989" y="-2"/>
      <point x="346" y="-2" type="curve" smooth="yes"/>
      <point x="211" y="-2" type="line"/>
      <point x="184" y="179" type="line"/>
      <point x="322" y="179" type="line" smooth="yes"/>
      <point x="824" y="179"/>
      <point x="1114" y="366"/>
      <point x="1114" y="727" type="curve" smooth="yes"/>
      <point x="1114" y="733" type="line"/>
      <point x="1114" y="743" type="line"/>
      <point x="1114" y="753" type="line" smooth="yes"/>
      <point x="1114" y="1027"/>
      <point x="954" y="1181"/>
      <point x="658" y="1181" type="curve" smooth="yes"/>
      <point x="422" y="1181"/>
      <point x="310" y="1097"/>
      <point x="310" y="952" type="curve" smooth="yes"/>
      <point x="310" y="943" type="line" smooth="yes"/>
      <point x="310" y="795"/>
      <point x="415" y="720"/>
      <point x="635" y="720" type="curve" smooth="yes"/>
      <point x="877" y="720"/>
      <point x="1040" y="835"/>
      <point x="1110" y="992" type="curve"/>
      <point x="1159" y="777" type="line"/>
      <point x="1106" y="777" type="line"/>
      <point x="1024" y="645"/>
      <point x="866" y="543"/>
      <point x="600" y="543" type="curve" smooth="yes"/>
      <point x="272" y="543"/>
      <point x="99" y="683"/>
      <point x="99" y="937" type="curve" smooth="yes"/>
      <point x="99" y="950" type="line" smooth="yes"/>
      <point x="99" y="1214"/>
      <point x="292" y="1361"/>
    </contour>
  </outline>
</glyph>
<glyph name="three.or" format="2">
  <advance width="1908"/>
  <unicode hex="0B69"/>
  <outline>
    <contour>
      <point x="546" y="1359" type="curve" smooth="yes"/>
      <point x="267" y="1359"/>
      <point x="96" y="1193"/>
      <point x="96" y="928" type="curve" smooth="yes"/>
      <point x="96" y="916" type="line" smooth="yes"/>
      <point x="96" y="645"/>
      <point x="247" y="491"/>
      <point x="519" y="491" type="curve" smooth="yes"/>
      <point x="707" y="491"/>
      <point x="797" y="558"/>
      <point x="840" y="666" type="curve"/>
      <point x="903" y="666" type="line"/>
      <point x="845" y="923" type="line"/>
      <point x="843" y="759"/>
      <point x="740" y="670"/>
      <point x="569" y="670" type="curve" smooth="yes"/>
      <point x="405" y="670"/>
      <point x="310" y="758"/>
      <point x="310" y="920" type="curve" smooth="yes"/>
      <point x="310" y="931" type="line" smooth="yes"/>
      <point x="310" y="1095"/>
      <point x="405" y="1180"/>
      <point x="573" y="1180" type="curve" smooth="yes"/>
      <point x="745" y="1180"/>
      <point x="845" y="1086"/>
      <point x="845" y="933" type="curve" smooth="yes"/>
      <point x="845" y="749" type="line"/>
      <point x="853" y="701" type="line"/>
      <point x="845" y="474" type="line"/>
      <point x="845" y="0" type="line"/>
      <point x="1050" y="0" type="line"/>
      <point x="1050" y="920" type="line" smooth="yes"/>
      <point x="1050" y="1090"/>
      <point x="1135" y="1180"/>
      <point x="1287" y="1180" type="curve" smooth="yes"/>
      <point x="1450" y="1180"/>
      <point x="1524" y="1099"/>
      <point x="1524" y="918" type="curve" smooth="yes"/>
      <point x="1524" y="0" type="line"/>
      <point x="1729" y="0" type="line"/>
      <point x="1729" y="937" type="line" smooth="yes"/>
      <point x="1729" y="1215"/>
      <point x="1594" y="1359"/>
      <point x="1330" y="1359" type="curve" smooth="yes"/>
      <point x="1113" y="1359"/>
      <point x="1002" y="1263"/>
      <point x="953" y="1125" type="curve"/>
      <point x="945" y="1125" type="line"/>
      <point x="905" y="1267"/>
      <point x="777" y="1359"/>
    </contour>
  </outline>
</glyph>
<glyph name="four.or" format="2">
  <advance width="1493"/>
  <unicode hex="0B6A"/>
  <outline>
    <contour>
      <point x="776" y="789" type="line"/>
      <point x="1538" y="1316" type="line"/>
      <point x="1538" y="1321" type="line"/>
      <point x="1256" y="1321" type="line"/>
      <point x="636" y="896" type="line"/>
    </contour>
    <contour>
      <point x="714" y="796" type="line"/>
      <point x="845" y="911" type="line"/>
      <point x="236" y="1321" type="line"/>
      <point x="-46" y="1321" type="line"/>
      <point x="-46" y="1316" type="line"/>
    </contour>
    <contour>
      <point x="744" y="-27" type="curve" smooth="yes"/>
      <point x="1124" y="-27"/>
      <point x="1325" y="112"/>
      <point x="1325" y="364" type="curve" smooth="yes"/>
      <point x="1325" y="370" type="line" smooth="yes"/>
      <point x="1325" y="552"/>
      <point x="1227" y="662"/>
      <point x="1029" y="792" type="curve" smooth="yes"/>
      <point x="863" y="901" type="line"/>
      <point x="690" y="811" type="line"/>
      <point x="871" y="694" type="line" smooth="yes"/>
      <point x="1023" y="596"/>
      <point x="1120" y="522"/>
      <point x="1120" y="385" type="curve" smooth="yes"/>
      <point x="1120" y="379" type="line" smooth="yes"/>
      <point x="1120" y="232"/>
      <point x="986" y="145"/>
      <point x="744" y="145" type="curve" smooth="yes"/>
      <point x="507" y="145"/>
      <point x="372" y="233"/>
      <point x="372" y="378" type="curve" smooth="yes"/>
      <point x="372" y="385" type="line" smooth="yes"/>
      <point x="372" y="521"/>
      <point x="462" y="599"/>
      <point x="618" y="695" type="curve" smooth="yes"/>
      <point x="802" y="809" type="line"/>
      <point x="625" y="894" type="line"/>
      <point x="463" y="792" type="line" smooth="yes"/>
      <point x="261" y="665"/>
      <point x="167" y="553"/>
      <point x="167" y="369" type="curve" smooth="yes"/>
      <point x="167" y="363" type="line" smooth="yes"/>
      <point x="167" y="116"/>
      <point x="368" y="-27"/>
    </contour>
  </outline>
</glyph>
<glyph name="five.or" format="2">
  <advance width="1912"/>
  <unicode hex="0B6B"/>
  <outline>
    <contour>
      <point x="846" y="599" type="curve"/>
      <point x="1182" y="580"/>
      <point x="1332" y="509"/>
      <point x="1332" y="357" type="curve"/>
      <point x="1332" y="354" type="line"/>
      <point x="1332" y="216"/>
      <point x="1197" y="148"/>
      <point x="941" y="148" type="curve" smooth="yes"/>
      <point x="680" y="148"/>
      <point x="546" y="216"/>
      <point x="546" y="352" type="curve"/>
      <point x="546" y="356" type="line"/>
      <point x="546" y="504"/>
      <point x="665" y="570"/>
    </contour>
    <contour>
      <point x="1054" y="751" type="curve"/>
      <point x="731" y="752"/>
      <point x="593" y="830"/>
      <point x="593" y="975" type="curve"/>
      <point x="593" y="980" type="line"/>
      <point x="593" y="1110"/>
      <point x="722" y="1180"/>
      <point x="972" y="1180" type="curve" smooth="yes"/>
      <point x="1218" y="1180"/>
      <point x="1350" y="1111"/>
      <point x="1350" y="980" type="curve"/>
      <point x="1350" y="974" type="line"/>
      <point x="1350" y="834"/>
      <point x="1242" y="777"/>
    </contour>
    <contour>
      <point x="972" y="1360" type="curve" smooth="yes"/>
      <point x="580" y="1360"/>
      <point x="382" y="1226"/>
      <point x="382" y="1006" type="curve" smooth="yes"/>
      <point x="382" y="999" type="line" smooth="yes"/>
      <point x="382" y="827"/>
      <point x="509" y="735"/>
      <point x="715" y="700" type="curve"/>
      <point x="702" y="654" type="line"/>
      <point x="449" y="631"/>
      <point x="335" y="515"/>
      <point x="335" y="344" type="curve" smooth="yes"/>
      <point x="335" y="337" type="line" smooth="yes"/>
      <point x="335" y="96"/>
      <point x="535" y="-32"/>
      <point x="941" y="-32" type="curve" smooth="yes"/>
      <point x="1343" y="-32"/>
      <point x="1543" y="99"/>
      <point x="1543" y="334" type="curve" smooth="yes"/>
      <point x="1543" y="340" type="line" smooth="yes"/>
      <point x="1543" y="499"/>
      <point x="1427" y="597"/>
      <point x="1193" y="643" type="curve"/>
      <point x="1215" y="693" type="line"/>
      <point x="1465" y="726"/>
      <point x="1561" y="840"/>
      <point x="1561" y="993" type="curve" smooth="yes"/>
      <point x="1561" y="1000" type="line" smooth="yes"/>
      <point x="1561" y="1231"/>
      <point x="1360" y="1360"/>
    </contour>
    <contour>
      <point x="1890" y="501" type="line"/>
      <point x="1890" y="676" type="line"/>
      <point x="1181" y="750" type="line"/>
      <point x="1128" y="601" type="line"/>
    </contour>
    <contour>
      <point x="23" y="835" type="line"/>
      <point x="23" y="660" type="line"/>
      <point x="710" y="598" type="line"/>
      <point x="780" y="751" type="line"/>
    </contour>
  </outline>
</glyph>
<glyph name="six.or" format="2">
  <advance width="1543"/>
  <unicode hex="0B6C"/>
  <outline>
    <contour>
      <point x="722" y="1183" type="curve" smooth="yes"/>
      <point x="1042" y="1183"/>
      <point x="1214" y="1032"/>
      <point x="1214" y="741" type="curve" smooth="yes"/>
      <point x="1214" y="727" type="line" smooth="yes"/>
      <point x="1214" y="369"/>
      <point x="928" y="179"/>
      <point x="373" y="179" type="curve" smooth="yes"/>
      <point x="202" y="179" type="line"/>
      <point x="229" y="-1" type="line"/>
      <point x="386" y="-1" type="line" smooth="yes"/>
      <point x="1072" y="-1"/>
      <point x="1424" y="260"/>
      <point x="1424" y="726" type="curve" smooth="yes"/>
      <point x="1424" y="742" type="line" smooth="yes"/>
      <point x="1424" y="1150"/>
      <point x="1157" y="1361"/>
      <point x="730" y="1361" type="curve" smooth="yes"/>
      <point x="435" y="1361"/>
      <point x="240" y="1238"/>
      <point x="139" y="1126" type="curve"/>
      <point x="139" y="960" type="line"/>
      <point x="500" y="949"/>
      <point x="633" y="903"/>
      <point x="633" y="785" type="curve" smooth="yes"/>
      <point x="633" y="778" type="line" smooth="yes"/>
      <point x="633" y="694"/>
      <point x="560" y="652"/>
      <point x="400" y="652" type="curve" smooth="yes"/>
      <point x="289" y="652"/>
      <point x="188" y="673"/>
      <point x="94" y="708" type="curve"/>
      <point x="108" y="539" type="line"/>
      <point x="191" y="507"/>
      <point x="295" y="487"/>
      <point x="417" y="487" type="curve" smooth="yes"/>
      <point x="685" y="487"/>
      <point x="838" y="596"/>
      <point x="838" y="776" type="curve" smooth="yes"/>
      <point x="838" y="786" type="line" smooth="yes"/>
      <point x="838" y="991"/>
      <point x="697" y="1087"/>
      <point x="224" y="1093" type="curve"/>
      <point x="291" y="1028" type="line"/>
      <point x="377" y="1119"/>
      <point x="505" y="1183"/>
    </contour>
  </outline>
</glyph>
<glyph name="seven.or" format="2">
  <advance width="1675"/>
  <unicode hex="0B6D"/>
  <outline>
    <contour>
      <point x="815" y="1361" type="curve" smooth="yes"/>
      <point x="1265" y="1361"/>
      <point x="1556" y="1140"/>
      <point x="1556" y="743" type="curve" smooth="yes"/>
      <point x="1556" y="727" type="line" smooth="yes"/>
      <point x="1556" y="260"/>
      <point x="1204" y="-1"/>
      <point x="518" y="-1" type="curve" smooth="yes"/>
      <point x="326" y="-1" type="line"/>
      <point x="299" y="179" type="line"/>
      <point x="505" y="179" type="line" smooth="yes"/>
      <point x="1060" y="179"/>
      <point x="1346" y="369"/>
      <point x="1346" y="727" type="curve" smooth="yes"/>
      <point x="1346" y="741" type="line" smooth="yes"/>
      <point x="1346" y="1031"/>
      <point x="1161" y="1183"/>
      <point x="815" y="1183" type="curve" smooth="yes"/>
      <point x="475" y="1183"/>
      <point x="306" y="1068"/>
      <point x="306" y="860" type="curve" smooth="yes"/>
      <point x="306" y="856" type="line"/>
      <point x="306" y="852" type="line"/>
      <point x="306" y="849" type="line"/>
      <point x="306" y="689"/>
      <point x="407" y="608"/>
      <point x="569" y="608" type="curve" smooth="yes"/>
      <point x="700" y="608"/>
      <point x="768" y="654"/>
      <point x="768" y="735" type="curve"/>
      <point x="768" y="740" type="line"/>
      <point x="768" y="819"/>
      <point x="711" y="860"/>
      <point x="596" y="860" type="curve" smooth="yes"/>
      <point x="456" y="860"/>
      <point x="366" y="789"/>
      <point x="314" y="701" type="curve"/>
      <point x="299" y="839" type="line"/>
      <point x="313" y="839" type="line"/>
      <point x="360" y="940"/>
      <point x="464" y="1015"/>
      <point x="654" y="1015" type="curve" smooth="yes"/>
      <point x="862" y="1015"/>
      <point x="974" y="920"/>
      <point x="974" y="741" type="curve" smooth="yes"/>
      <point x="974" y="733" type="line" smooth="yes"/>
      <point x="974" y="548"/>
      <point x="830" y="443"/>
      <point x="565" y="443" type="curve" smooth="yes"/>
      <point x="276" y="443"/>
      <point x="100" y="589"/>
      <point x="100" y="850" type="curve" smooth="yes"/>
      <point x="100" y="859" type="line" smooth="yes"/>
      <point x="100" y="1165"/>
      <point x="362" y="1361"/>
    </contour>
  </outline>
</glyph>
<glyph name="eight.or" format="2">
  <advance width="1340"/>
  <unicode hex="0B6E"/>
  <outline>
    <contour>
      <point x="386" y="1" type="line"/>
      <point x="186" y="1" type="line"/>
      <point x="186" y="1322" type="line"/>
      <point x="1277" y="1321" type="line"/>
      <point x="1277" y="1147" type="line"/>
      <point x="386" y="1148" type="line"/>
    </contour>
  </outline>
</glyph>
<glyph name="nine.or" format="2">
  <advance width="1528"/>
  <unicode hex="0B6F"/>
  <outline>
    <contour>
      <point x="1373" y="667" type="line"/>
      <point x="1373" y="1321" type="line"/>
      <point x="1175" y="1321" type="line"/>
      <point x="1175" y="1086" type="line" smooth="yes"/>
      <point x="1175" y="997"/>
      <point x="1179" y="911"/>
      <point x="1182" y="830" type="curve"/>
      <point x="1247" y="831" type="line"/>
      <point x="571" y="1321" type="line"/>
      <point x="362" y="1321" type="line"/>
      <point x="207" y="1153"/>
      <point x="119" y="974"/>
      <point x="119" y="756" type="curve" smooth="yes"/>
      <point x="119" y="740" type="line" smooth="yes"/>
      <point x="119" y="259"/>
      <point x="481" y="-1"/>
      <point x="1145" y="-1" type="curve" smooth="yes"/>
      <point x="1282" y="-1" type="line"/>
      <point x="1309" y="179" type="line"/>
      <point x="1158" y="179" type="line" smooth="yes"/>
      <point x="626" y="179"/>
      <point x="331" y="366"/>
      <point x="331" y="741" type="curve" smooth="yes"/>
      <point x="331" y="755" type="line" smooth="yes"/>
      <point x="331" y="936"/>
      <point x="409" y="1102"/>
      <point x="540" y="1217" type="curve"/>
      <point x="426" y="1198" type="line"/>
      <point x="1177" y="668" type="line"/>
    </contour>
  </outline>
</glyph>
<glyph name="Isshar.or" format="2">
  <advance width="1855"/>
  <unicode hex="0B70"/>
  <outline>
    <contour>
      <point x="287" y="845" type="line"/>
      <point x="809" y="178" type="line"/>
      <point x="840" y="178" type="line"/>
      <point x="1578" y="1350" type="line"/>
      <point x="1802" y="1350" type="line"/>
      <point x="958" y="0" type="line"/>
      <point x="708" y="0" type="line"/>
      <point x="53" y="845" type="line"/>
    </contour>
    <contour>
      <point x="802" y="768" type="curve" smooth="yes"/>
      <point x="898" y="768"/>
      <point x="944" y="817"/>
      <point x="944" y="890" type="curve" smooth="yes"/>
      <point x="944" y="895" type="line" smooth="yes"/>
      <point x="944" y="970"/>
      <point x="896" y="1019"/>
      <point x="803" y="1019" type="curve" smooth="yes"/>
      <point x="710" y="1019"/>
      <point x="662" y="971"/>
      <point x="662" y="895" type="curve" smooth="yes"/>
      <point x="662" y="890" type="line" smooth="yes"/>
      <point x="662" y="818"/>
      <point x="710" y="768"/>
    </contour>
  </outline>
</glyph>
<glyph name="Wa.or" format="2">
  <advance width="1734"/>
  <unicode hex="0B71"/>
  <anchor x="1468" y="12" name="bottom"/>
  <anchor x="1872" y="-43" name="rasmall"/>
  <anchor x="866" y="1828" name="top1"/>
  <outline>
    <contour>
      <point x="677" y="1027" type="curve"/>
      <point x="866" y="1020" type="line"/>
      <point x="855" y="1041"/>
      <point x="847" y="1062"/>
      <point x="847" y="1083" type="curve" smooth="yes"/>
      <point x="847" y="1088" type="line" smooth="yes"/>
      <point x="847" y="1176"/>
      <point x="938" y="1219"/>
      <point x="1119" y="1219" type="curve" smooth="yes"/>
      <point x="1303" y="1219"/>
      <point x="1399" y="1173"/>
      <point x="1399" y="1086" type="curve" smooth="yes"/>
      <point x="1399" y="1076" type="line" smooth="yes"/>
      <point x="1399" y="995"/>
      <point x="1301" y="934"/>
      <point x="1063" y="934" type="curve" smooth="yes"/>
      <point x="973" y="934" type="line"/>
      <point x="973" y="782" type="line"/>
      <point x="1061" y="782" type="line" smooth="yes"/>
      <point x="1157" y="782"/>
      <point x="1272" y="794"/>
      <point x="1368" y="826" type="curve"/>
      <point x="1436" y="864" type="line"/>
      <point x="1542" y="912"/>
      <point x="1597" y="981"/>
      <point x="1597" y="1080" type="curve" smooth="yes"/>
      <point x="1597" y="1092" type="line" smooth="yes"/>
      <point x="1597" y="1271"/>
      <point x="1431" y="1366"/>
      <point x="1119" y="1366" type="curve" smooth="yes"/>
      <point x="821" y="1366"/>
      <point x="656" y="1277"/>
      <point x="656" y="1113" type="curve" smooth="yes"/>
      <point x="656" y="1107" type="line" smooth="yes"/>
      <point x="656" y="1076"/>
      <point x="665" y="1049"/>
    </contour>
    <contour>
      <point x="942" y="368" type="curve" smooth="yes"/>
      <point x="1392" y="368"/>
      <point x="1634" y="481"/>
      <point x="1634" y="683" type="curve" smooth="yes"/>
      <point x="1634" y="694" type="line" smooth="yes"/>
      <point x="1634" y="798"/>
      <point x="1558" y="881"/>
      <point x="1404" y="909" type="curve"/>
      <point x="1283" y="829" type="line"/>
      <point x="1387" y="810"/>
      <point x="1426" y="769"/>
      <point x="1426" y="713" type="curve"/>
      <point x="1426" y="708" type="line"/>
      <point x="1426" y="603"/>
      <point x="1289" y="535"/>
      <point x="949" y="535" type="curve" smooth="yes"/>
      <point x="518" y="535"/>
      <point x="302" y="670"/>
      <point x="302" y="929" type="curve" smooth="yes"/>
      <point x="302" y="943" type="line" smooth="yes"/>
      <point x="302" y="1089"/>
      <point x="364" y="1211"/>
      <point x="474" y="1338" type="curve"/>
      <point x="264" y="1338" type="line"/>
      <point x="160" y="1216"/>
      <point x="102" y="1082"/>
      <point x="102" y="926" type="curve" smooth="yes"/>
      <point x="102" y="911" type="line" smooth="yes"/>
      <point x="102" y="556"/>
      <point x="396" y="368"/>
    </contour>
    <contour>
      <point x="480" y="321" type="curve" smooth="yes"/>
      <point x="480" y="329" type="line" smooth="yes"/>
      <point x="480" y="379"/>
      <point x="499" y="425"/>
      <point x="534" y="458" type="curve"/>
      <point x="353" y="528" type="line"/>
      <point x="303" y="470"/>
      <point x="272" y="389"/>
      <point x="272" y="313" type="curve" smooth="yes"/>
      <point x="272" y="302" type="line" smooth="yes"/>
      <point x="272" y="91"/>
      <point x="441" y="-31"/>
      <point x="775" y="-31" type="curve" smooth="yes"/>
      <point x="1017" y="-31"/>
      <point x="1179" y="27"/>
      <point x="1262" y="154" type="curve"/>
      <point x="1270" y="154" type="line"/>
      <point x="1266" y="28" type="line"/>
      <point x="1266" y="-63" type="line"/>
      <point x="1468" y="-63" type="line"/>
      <point x="1468" y="500" type="line"/>
      <point x="1266" y="500" type="line"/>
      <point x="1266" y="259" type="line"/>
      <point x="1276" y="327" type="line"/>
      <point x="1228" y="208"/>
      <point x="1055" y="130"/>
      <point x="830" y="130" type="curve" smooth="yes"/>
      <point x="597" y="130"/>
      <point x="480" y="198"/>
    </contour>
  </outline>
</glyph>
<glyph name="onequarter.or" format="2">
  <advance width="572"/>
  <unicode hex="0B72"/>
  <outline>
    <contour>
      <point x="186" y="1152" type="line"/>
      <point x="386" y="1152" type="line"/>
      <point x="386" y="0" type="line"/>
      <point x="186" y="0" type="line"/>
    </contour>
  </outline>
</glyph>
<glyph name="onehalf.or" format="2">
  <advance width="1223"/>
  <unicode hex="0B73"/>
  <outline>
    <contour>
      <point x="308" y="1152" type="curve"/>
      <point x="108" y="1152" type="line"/>
      <point x="108" y="1122"/>
      <point x="108" y="1008"/>
      <point x="108" y="961" type="curve" smooth="yes"/>
      <point x="108" y="947" type="line" smooth="yes"/>
      <point x="108" y="690"/>
      <point x="249" y="554"/>
      <point x="514" y="554" type="curve" smooth="yes"/>
      <point x="690" y="554"/>
      <point x="794" y="617"/>
      <point x="832" y="704" type="curve"/>
      <point x="867" y="704" type="line"/>
      <point x="843" y="886" type="line"/>
      <point x="816" y="790"/>
      <point x="712" y="719"/>
      <point x="572" y="719" type="curve" smooth="yes"/>
      <point x="393" y="719"/>
      <point x="308" y="806"/>
      <point x="308" y="971" type="curve" smooth="yes"/>
      <point x="308" y="981" type="line" smooth="yes"/>
      <point x="308" y="1013"/>
      <point x="308" y="1113"/>
    </contour>
    <contour>
      <point x="837" y="1" type="line"/>
      <point x="1037" y="1" type="line"/>
      <point x="1037" y="1152" type="line"/>
      <point x="837" y="1152" type="line"/>
      <point x="837" y="833" type="line"/>
      <point x="841" y="763" type="line"/>
      <point x="837" y="444" type="line"/>
    </contour>
  </outline>
</glyph>
<glyph name="threequarter.or" format="2">
  <advance width="1926"/>
  <unicode hex="0B74"/>
  <outline>
    <contour>
      <point x="1025" y="1152" type="curve"/>
      <point x="825" y="1152" type="line"/>
      <point x="825" y="1120"/>
      <point x="825" y="995"/>
      <point x="825" y="955" type="curve" smooth="yes"/>
      <point x="825" y="941" type="line" smooth="yes"/>
      <point x="825" y="688"/>
      <point x="964" y="554"/>
      <point x="1224" y="554" type="curve" smooth="yes"/>
      <point x="1396" y="554"/>
      <point x="1498" y="617"/>
      <point x="1535" y="704" type="curve"/>
      <point x="1570" y="704" type="line"/>
      <point x="1546" y="886" type="line"/>
      <point x="1520" y="790"/>
      <point x="1418" y="719"/>
      <point x="1282" y="719" type="curve" smooth="yes"/>
      <point x="1108" y="719"/>
      <point x="1025" y="804"/>
      <point x="1025" y="965" type="curve" smooth="yes"/>
      <point x="1025" y="975" type="line" smooth="yes"/>
      <point x="1025" y="1009"/>
      <point x="1025" y="1112"/>
    </contour>
    <contour>
      <point x="1540" y="1" type="line"/>
      <point x="1740" y="1" type="line"/>
      <point x="1740" y="1152" type="line"/>
      <point x="1540" y="1152" type="line"/>
      <point x="1540" y="822" type="line"/>
      <point x="1544" y="783" type="line"/>
      <point x="1540" y="444" type="line"/>
    </contour>
    <contour>
      <point x="310" y="1152" type="curve"/>
      <point x="110" y="1152" type="line"/>
      <point x="110" y="1121"/>
      <point x="110" y="1003"/>
      <point x="110" y="955" type="curve" smooth="yes"/>
      <point x="110" y="941" type="line" smooth="yes"/>
      <point x="110" y="688"/>
      <point x="254" y="554"/>
      <point x="523" y="554" type="curve" smooth="yes"/>
      <point x="711" y="554"/>
      <point x="826" y="619"/>
      <point x="875" y="709" type="curve"/>
      <point x="907" y="709" type="line"/>
      <point x="861" y="886" type="line"/>
      <point x="833" y="790"/>
      <point x="722" y="719"/>
      <point x="574" y="719" type="curve" smooth="yes"/>
      <point x="398" y="719"/>
      <point x="310" y="803"/>
      <point x="310" y="965" type="curve" smooth="yes"/>
      <point x="310" y="976" type="line" smooth="yes"/>
      <point x="310" y="1009"/>
      <point x="310" y="1112"/>
    </contour>
  </outline>
</glyph>
<glyph name="oneeigth.or" format="2">
  <advance width="2388"/>
  <unicode hex="0B76"/>
  <outline>
    <contour>
      <point x="604" y="-31" type="curve" smooth="yes"/>
      <point x="284" y="-31"/>
      <point x="81" y="90"/>
      <point x="81" y="343" type="curve" smooth="yes"/>
      <point x="81" y="353" type="line" smooth="yes"/>
      <point x="81" y="638"/>
      <point x="339" y="808"/>
      <point x="760" y="808" type="curve" smooth="yes"/>
      <point x="1229" y="808"/>
      <point x="1531" y="637"/>
      <point x="1531" y="274" type="curve" smooth="yes"/>
      <point x="1531" y="236"/>
      <point x="1525" y="189"/>
      <point x="1513" y="164" type="curve"/>
      <point x="1521" y="164" type="line"/>
      <point x="1576" y="266"/>
      <point x="1664" y="415"/>
      <point x="1718" y="500" type="curve" smooth="yes"/>
      <point x="2132" y="1152" type="line"/>
      <point x="2365" y="1152" type="line"/>
      <point x="1634" y="0" type="line"/>
      <point x="1282" y="0" type="line"/>
      <point x="1311" y="69"/>
      <point x="1327" y="162"/>
      <point x="1327" y="252" type="curve" smooth="yes"/>
      <point x="1327" y="258" type="line" smooth="yes"/>
      <point x="1327" y="528"/>
      <point x="1121" y="644"/>
      <point x="759" y="644" type="curve" smooth="yes"/>
      <point x="441" y="644"/>
      <point x="280" y="530"/>
      <point x="280" y="347" type="curve" smooth="yes"/>
      <point x="280" y="340" type="line"/>
      <point x="280" y="340" type="line"/>
      <point x="280" y="336" type="line" smooth="yes"/>
      <point x="280" y="192"/>
      <point x="411" y="132"/>
      <point x="604" y="132" type="curve" smooth="yes"/>
      <point x="777" y="132"/>
      <point x="842" y="169"/>
      <point x="842" y="235" type="curve" smooth="yes"/>
      <point x="842" y="240" type="line" smooth="yes"/>
      <point x="842" y="303"/>
      <point x="790" y="338"/>
      <point x="651" y="338" type="curve" smooth="yes"/>
      <point x="490" y="338"/>
      <point x="365" y="291"/>
      <point x="276" y="203" type="curve"/>
      <point x="268" y="328" type="line"/>
      <point x="286" y="328" type="line"/>
      <point x="349" y="431"/>
      <point x="499" y="494"/>
      <point x="687" y="494" type="curve" smooth="yes"/>
      <point x="925" y="494"/>
      <point x="1048" y="411"/>
      <point x="1048" y="245" type="curve" smooth="yes"/>
      <point x="1048" y="235" type="line" smooth="yes"/>
      <point x="1048" y="62"/>
      <point x="898" y="-31"/>
    </contour>
  </outline>
</glyph>
<glyph name="threesixteenth.or" format="2">
  <advance width="2454"/>
  <unicode hex="0B77"/>
  <outline>
    <contour>
      <point x="497" y="655" type="curve" smooth="yes"/>
      <point x="698" y="655"/>
      <point x="799" y="577"/>
      <point x="838" y="469" type="curve"/>
      <point x="846" y="469" type="line"/>
      <point x="885" y="577"/>
      <point x="992" y="655"/>
      <point x="1201" y="655" type="curve" smooth="yes"/>
      <point x="1457" y="655"/>
      <point x="1587" y="522"/>
      <point x="1587" y="302" type="curve" smooth="yes"/>
      <point x="1587" y="265"/>
      <point x="1583" y="203"/>
      <point x="1577" y="161" type="curve"/>
      <point x="1584" y="161" type="line"/>
      <point x="1623" y="234"/>
      <point x="1664" y="303"/>
      <point x="1704" y="367" type="curve" smooth="yes"/>
      <point x="2203" y="1152" type="line"/>
      <point x="2436" y="1152" type="line"/>
      <point x="1705" y="0" type="line"/>
      <point x="1385" y="0" type="line"/>
      <point x="1385" y="260" type="line" smooth="yes"/>
      <point x="1385" y="420"/>
      <point x="1316" y="491"/>
      <point x="1165" y="491" type="curve" smooth="yes"/>
      <point x="1018" y="491"/>
      <point x="943" y="412"/>
      <point x="943" y="260" type="curve" smooth="yes"/>
      <point x="943" y="0" type="line"/>
      <point x="741" y="0" type="line"/>
      <point x="741" y="260" type="line" smooth="yes"/>
      <point x="741" y="412"/>
      <point x="665" y="491"/>
      <point x="516" y="491" type="curve" smooth="yes"/>
      <point x="369" y="491"/>
      <point x="289" y="408"/>
      <point x="289" y="251" type="curve" smooth="yes"/>
      <point x="289" y="244" type="line" smooth="yes"/>
      <point x="289" y="160"/>
      <point x="301" y="88"/>
      <point x="329" y="0" type="curve"/>
      <point x="125" y="0" type="line"/>
      <point x="100" y="76"/>
      <point x="85" y="148"/>
      <point x="85" y="245" type="curve" smooth="yes"/>
      <point x="85" y="254" type="line" smooth="yes"/>
      <point x="85" y="509"/>
      <point x="227" y="655"/>
    </contour>
  </outline>
</glyph>
<glyph name="BaBa.or" format="2">
  <advance width="2190"/>
  <anchor x="1719" y="55" name="bottom"/>
  <anchor x="2107" y="20" name="rasmall"/>
  <anchor x="1071" y="1828" name="top1"/>
  <anchor x="1708" y="1427" name="top2"/>
  <outline>
    <contour>
      <point x="396" y="344" type="curve"/>
      <point x="478" y="512" type="line"/>
      <point x="376" y="555"/>
      <point x="321" y="629"/>
      <point x="321" y="754" type="curve" smooth="yes"/>
      <point x="321" y="774" type="line" smooth="yes"/>
      <point x="321" y="1042"/>
      <point x="570" y="1185"/>
      <point x="1068" y="1185" type="curve" smooth="yes"/>
      <point x="1598" y="1185"/>
      <point x="1872" y="1014"/>
      <point x="1872" y="664" type="curve" smooth="yes"/>
      <point x="1872" y="651" type="line" smooth="yes"/>
      <point x="1872" y="568"/>
      <point x="1853" y="489"/>
      <point x="1820" y="416" type="curve"/>
      <point x="2034" y="437" type="line"/>
      <point x="2066" y="504"/>
      <point x="2084" y="580"/>
      <point x="2084" y="671" type="curve" smooth="yes"/>
      <point x="2084" y="684" type="line" smooth="yes"/>
      <point x="2084" y="1131"/>
      <point x="1730" y="1365"/>
      <point x="1070" y="1365" type="curve" smooth="yes"/>
      <point x="442" y="1365"/>
      <point x="108" y="1162"/>
      <point x="108" y="776" type="curve" smooth="yes"/>
      <point x="108" y="754" type="line" smooth="yes"/>
      <point x="108" y="539"/>
      <point x="216" y="409"/>
    </contour>
    <contour>
      <point x="759" y="227" type="curve" smooth="yes"/>
      <point x="642" y="227"/>
      <point x="574" y="288"/>
      <point x="574" y="398" type="curve" smooth="yes"/>
      <point x="574" y="407" type="line" smooth="yes"/>
      <point x="574" y="518"/>
      <point x="642" y="579"/>
      <point x="761" y="579" type="curve" smooth="yes"/>
      <point x="879" y="579"/>
      <point x="949" y="513"/>
      <point x="949" y="408" type="curve" smooth="yes"/>
      <point x="949" y="399" type="line" smooth="yes"/>
      <point x="949" y="293"/>
      <point x="873" y="227"/>
    </contour>
    <contour>
      <point x="1517" y="0" type="line"/>
      <point x="1719" y="0" type="line"/>
      <point x="1719" y="387" type="line" smooth="yes"/>
      <point x="1719" y="620"/>
      <point x="1582" y="743"/>
      <point x="1348" y="743" type="curve" smooth="yes"/>
      <point x="1165" y="743"/>
      <point x="1062" y="669"/>
      <point x="1028" y="557" type="curve"/>
      <point x="1020" y="557" type="line"/>
      <point x="991" y="669"/>
      <point x="892" y="743"/>
      <point x="724" y="743" type="curve" smooth="yes"/>
      <point x="549" y="743"/>
      <point x="438" y="652"/>
      <point x="390" y="505" type="curve"/>
      <point x="384" y="486" type="line"/>
      <point x="375" y="463"/>
      <point x="368" y="430"/>
      <point x="368" y="404" type="curve" smooth="yes"/>
      <point x="368" y="397" type="line" smooth="yes"/>
      <point x="368" y="193"/>
      <point x="487" y="63"/>
      <point x="715" y="63" type="curve" smooth="yes"/>
      <point x="882" y="63"/>
      <point x="970" y="123"/>
      <point x="1008" y="219" type="curve"/>
      <point x="1016" y="219" type="line"/>
      <point x="1053" y="123"/>
      <point x="1133" y="63"/>
      <point x="1274" y="63" type="curve" smooth="yes"/>
      <point x="1414" y="63"/>
      <point x="1484" y="117"/>
      <point x="1511" y="204" type="curve"/>
      <point x="1564" y="204" type="line"/>
      <point x="1517" y="399" type="line"/>
      <point x="1517" y="294"/>
      <point x="1441" y="227"/>
      <point x="1327" y="227" type="curve" smooth="yes"/>
      <point x="1210" y="227"/>
      <point x="1142" y="288"/>
      <point x="1142" y="398" type="curve" smooth="yes"/>
      <point x="1142" y="407" type="line" smooth="yes"/>
      <point x="1142" y="518"/>
      <point x="1210" y="579"/>
      <point x="1329" y="579" type="curve" smooth="yes"/>
      <point x="1447" y="579"/>
      <point x="1517" y="513"/>
      <point x="1517" y="408" type="curve" smooth="yes"/>
      <point x="1517" y="267" type="line"/>
      <point x="1523" y="232" type="line"/>
      <point x="1517" y="95" type="line"/>
    </contour>
  </outline>
</glyph>
<glyph name="BaDa.or" format="2">
  <advance width="2190"/>
  <anchor x="1687" y="55" name="bottom"/>
  <anchor x="2091" y="20" name="rasmall"/>
  <anchor x="1071" y="1828" name="top1"/>
  <anchor x="1708" y="1427" name="top2"/>
  <outline>
    <contour>
      <point x="396" y="344" type="curve"/>
      <point x="478" y="512" type="line"/>
      <point x="376" y="555"/>
      <point x="321" y="629"/>
      <point x="321" y="754" type="curve" smooth="yes"/>
      <point x="321" y="774" type="line" smooth="yes"/>
      <point x="321" y="1042"/>
      <point x="570" y="1185"/>
      <point x="1068" y="1185" type="curve" smooth="yes"/>
      <point x="1598" y="1185"/>
      <point x="1872" y="1014"/>
      <point x="1872" y="664" type="curve" smooth="yes"/>
      <point x="1872" y="651" type="line" smooth="yes"/>
      <point x="1872" y="568"/>
      <point x="1853" y="489"/>
      <point x="1820" y="416" type="curve"/>
      <point x="2034" y="437" type="line"/>
      <point x="2066" y="504"/>
      <point x="2084" y="580"/>
      <point x="2084" y="671" type="curve" smooth="yes"/>
      <point x="2084" y="684" type="line" smooth="yes"/>
      <point x="2084" y="1131"/>
      <point x="1730" y="1365"/>
      <point x="1070" y="1365" type="curve" smooth="yes"/>
      <point x="442" y="1365"/>
      <point x="108" y="1162"/>
      <point x="108" y="776" type="curve" smooth="yes"/>
      <point x="108" y="754" type="line" smooth="yes"/>
      <point x="108" y="539"/>
      <point x="216" y="409"/>
    </contour>
    <contour>
      <point x="765" y="227" type="curve" smooth="yes"/>
      <point x="644" y="227"/>
      <point x="574" y="288"/>
      <point x="574" y="398" type="curve" smooth="yes"/>
      <point x="574" y="407" type="line" smooth="yes"/>
      <point x="574" y="518"/>
      <point x="644" y="579"/>
      <point x="767" y="579" type="curve" smooth="yes"/>
      <point x="889" y="579"/>
      <point x="961" y="513"/>
      <point x="961" y="408" type="curve" smooth="yes"/>
      <point x="961" y="399" type="line" smooth="yes"/>
      <point x="961" y="293"/>
      <point x="883" y="227"/>
    </contour>
    <contour>
      <point x="719" y="63" type="curve" smooth="yes"/>
      <point x="883" y="63"/>
      <point x="967" y="123"/>
      <point x="1004" y="219" type="curve"/>
      <point x="1012" y="219" type="line"/>
      <point x="1047" y="123"/>
      <point x="1124" y="63"/>
      <point x="1259" y="63" type="curve" smooth="yes"/>
      <point x="1382" y="63"/>
      <point x="1447" y="107"/>
      <point x="1479" y="204" type="curve"/>
      <point x="1535" y="204" type="line"/>
      <point x="1494" y="396" type="line"/>
      <point x="1476" y="275"/>
      <point x="1409" y="227"/>
      <point x="1323" y="227" type="curve" smooth="yes"/>
      <point x="1211" y="227"/>
      <point x="1155" y="286"/>
      <point x="1155" y="399" type="curve" smooth="yes"/>
      <point x="1155" y="402" type="line" smooth="yes"/>
      <point x="1155" y="611"/>
      <point x="1017" y="743"/>
      <point x="769" y="743" type="curve" smooth="yes"/>
      <point x="553" y="743"/>
      <point x="437" y="651"/>
      <point x="390" y="505" type="curve"/>
      <point x="384" y="486" type="line"/>
      <point x="375" y="463"/>
      <point x="368" y="430"/>
      <point x="368" y="404" type="curve" smooth="yes"/>
      <point x="368" y="397" type="line" smooth="yes"/>
      <point x="368" y="187"/>
      <point x="484" y="63"/>
    </contour>
    <contour>
      <point x="1485" y="0" type="line"/>
      <point x="1687" y="0" type="line"/>
      <point x="1687" y="699" type="line"/>
      <point x="1485" y="699" type="line"/>
      <point x="1485" y="267" type="line"/>
      <point x="1491" y="252" type="line"/>
      <point x="1485" y="94" type="line"/>
    </contour>
  </outline>
</glyph>
<glyph name="BaJa.or" format="2">
  <advance width="2082"/>
  <anchor x="1706" y="-598" name="bottom"/>
  <anchor x="1996" y="-598" name="rasmall"/>
  <anchor x="1040" y="1828" name="top1"/>
  <anchor x="1637" y="1427" name="top2"/>
  <outline>
    <contour>
      <point x="1021" y="229" type="curve" smooth="yes"/>
      <point x="848" y="229"/>
      <point x="757" y="292"/>
      <point x="757" y="416" type="curve" smooth="yes"/>
      <point x="757" y="424" type="line" smooth="yes"/>
      <point x="757" y="548"/>
      <point x="850" y="608"/>
      <point x="1027" y="608" type="curve" smooth="yes"/>
      <point x="1205" y="608"/>
      <point x="1297" y="549"/>
      <point x="1297" y="425" type="curve" smooth="yes"/>
      <point x="1297" y="417" type="line" smooth="yes"/>
      <point x="1297" y="305"/>
      <point x="1202" y="229"/>
    </contour>
    <contour>
      <point x="1304" y="-150" type="line"/>
      <point x="1506" y="-150" type="line"/>
      <point x="1506" y="389" type="line" smooth="yes"/>
      <point x="1506" y="648"/>
      <point x="1339" y="775"/>
      <point x="1024" y="775" type="curve" smooth="yes"/>
      <point x="752" y="775"/>
      <point x="590" y="667"/>
      <point x="550" y="467" type="curve"/>
      <point x="544" y="406" type="line"/>
      <point x="544" y="395" type="line" smooth="yes"/>
      <point x="544" y="189"/>
      <point x="683" y="63"/>
      <point x="965" y="63" type="curve" smooth="yes"/>
      <point x="1149" y="63"/>
      <point x="1253" y="117"/>
      <point x="1298" y="212" type="curve"/>
      <point x="1308" y="212" type="line"/>
      <point x="1304" y="101" type="line"/>
    </contour>
    <contour>
      <point x="584" y="309" type="curve"/>
      <point x="616" y="487" type="line"/>
      <point x="421" y="521"/>
      <point x="321" y="617"/>
      <point x="321" y="779" type="curve" smooth="yes"/>
      <point x="321" y="797" type="line" smooth="yes"/>
      <point x="321" y="1048"/>
      <point x="556" y="1185"/>
      <point x="1018" y="1185" type="curve" smooth="yes"/>
      <point x="1509" y="1185"/>
      <point x="1764" y="1015"/>
      <point x="1764" y="706" type="curve" smooth="yes"/>
      <point x="1764" y="689" type="line" smooth="yes"/>
      <point x="1764" y="588"/>
      <point x="1738" y="501"/>
      <point x="1692" y="416" type="curve"/>
      <point x="1906" y="437" type="line"/>
      <point x="1950" y="516"/>
      <point x="1976" y="605"/>
      <point x="1976" y="715" type="curve" smooth="yes"/>
      <point x="1976" y="731" type="line" smooth="yes"/>
      <point x="1976" y="1131"/>
      <point x="1632" y="1365"/>
      <point x="1019" y="1365" type="curve" smooth="yes"/>
      <point x="426" y="1365"/>
      <point x="108" y="1162"/>
      <point x="108" y="795" type="curve" smooth="yes"/>
      <point x="108" y="776" type="line" smooth="yes"/>
      <point x="108" y="519"/>
      <point x="265" y="359"/>
    </contour>
    <contour>
      <point x="984" y="-677" type="curve" smooth="yes"/>
      <point x="1213" y="-677"/>
      <point x="1344" y="-587"/>
      <point x="1344" y="-438" type="curve" smooth="yes"/>
      <point x="1344" y="-433" type="line" smooth="yes"/>
      <point x="1344" y="-337"/>
      <point x="1301" y="-289"/>
      <point x="1218" y="-264" type="curve"/>
      <point x="1218" y="-258" type="line"/>
      <point x="1594" y="-184" type="line"/>
      <point x="1537" y="-114" type="line"/>
      <point x="1532" y="-203"/>
      <point x="1532" y="-297"/>
      <point x="1532" y="-378" type="curve" smooth="yes"/>
      <point x="1532" y="-655" type="line"/>
      <point x="1706" y="-655" type="line"/>
      <point x="1706" y="-108" type="line"/>
      <point x="1621" y="-34" type="line"/>
      <point x="1059" y="-145" type="line"/>
      <point x="1059" y="-278" type="line"/>
      <point x="1129" y="-290"/>
      <point x="1169" y="-330"/>
      <point x="1169" y="-398" type="curve" smooth="yes"/>
      <point x="1169" y="-403" type="line" smooth="yes"/>
      <point x="1169" y="-483"/>
      <point x="1105" y="-534"/>
      <point x="988" y="-534" type="curve" smooth="yes"/>
      <point x="856" y="-534"/>
      <point x="780" y="-471"/>
      <point x="780" y="-364" type="curve" smooth="yes"/>
      <point x="780" y="-355" type="line" smooth="yes"/>
      <point x="780" y="-275"/>
      <point x="824" y="-209"/>
      <point x="918" y="-182" type="curve"/>
      <point x="918" y="-29" type="line"/>
      <point x="703" y="-66"/>
      <point x="599" y="-198"/>
      <point x="599" y="-355" type="curve" smooth="yes"/>
      <point x="599" y="-365" type="line" smooth="yes"/>
      <point x="599" y="-562"/>
      <point x="727" y="-677"/>
    </contour>
  </outline>
</glyph>
